<?xml version="1.0"?>
<svg xmlns="http://www.w3.org/2000/svg" xmlns:xlink="http://www.w3.org/1999/xlink" viewBox="0 0 376.800000 184.000000" width="188.400000mm" height="92.000000mm" version="1.1">
<rect x="1.000000" y="1.000000" width="375.800000" height="183.000000" rx="0" ry="0" style="stroke:none;fill:#cccccc;"/>
<rect x="0.000000" y="0.000000" width="375.800000" height="183.000000" rx="0" ry="0" style="stroke:none;fill:#ffffff;"/>
<text x="10.000000" y="7.000000" font-family="Arial" font-size="7"></text>
<rect x="116.400000" y="43.000000" width="24.000000" height="24.000000" rx="0" ry="0" style="stroke:none;fill:#cccccc;"/>
<rect x="115.400000" y="42.000000" width="24.000000" height="24.000000" rx="0" ry="0" style="stroke:none;fill:#f44800;"/>
<text x="127.400000" y="56.000000" font-family="Arial" font-size="7" text-anchor="middle" fill="#FFFFFF">0</text>
<circle cx="117.400000" cy="44.000000" r="1"/>
<line x1="106.400000" y1="25.000000" x2="106.400000" y2="75.000000"  style="stroke: black; stroke-linecap:round; stroke-width:0.25; stroke-dasharray:3,3;"/>
<line x1="106.400000" y1="75.000000" x2="148.400000" y2="75.000000"  style="stroke: black; stroke-linecap:round; stroke-width:0.25; stroke-dasharray:3,3;"/>
<line x1="148.400000" y1="75.000000" x2="148.400000" y2="25.000000"  style="stroke: black; stroke-linecap:round; stroke-width:0.25; stroke-dasharray:3,3;"/>
<line x1="106.400000" y1="25.000000" x2="111.400000" y2="25.000000"  style="stroke: black; stroke-linecap:round; stroke-width:0.25; stroke-dasharray:3,3;"/>
<line x1="146.875000" y1="25.000000" x2="148.400000" y2="25.000000"  style="stroke: black; stroke-linecap:round; stroke-width:0.25; stroke-dasharray:3,3;"/>
<text x="111.400000" y="27.000000" font-family="Arial" font-size="7">diffInput</text>
<rect x="51.000000" y="95.000000" width="154.800000" height="24.000000" rx="0" ry="0" style="stroke:none;fill:#cccccc;"/>
<rect x="50.000000" y="94.000000" width="154.800000" height="24.000000" rx="0" ry="0" style="stroke:none;fill:#477881;"/>
<text x="127.400000" y="108.000000" font-family="Arial" font-size="7" text-anchor="middle" fill="#FFFFFF">hslider(DC, 0.0f, -1.0f, 1.0f, 0.1f)</text>
<circle cx="52.000000" cy="96.000000" r="1"/>
<rect x="116.400000" y="127.000000" width="24.000000" height="24.000000" rx="0" ry="0" style="stroke:none;fill:#cccccc;"/>
<rect x="115.400000" y="126.000000" width="24.000000" height="24.000000" rx="0" ry="0" style="stroke:none;fill:#f44800;"/>
<text x="127.400000" y="140.000000" font-family="Arial" font-size="7" text-anchor="middle" fill="#FFFFFF">1</text>
<circle cx="117.400000" cy="128.000000" r="1"/>
<line x1="41.000000" y1="85.000000" x2="41.000000" y2="159.000000"  style="stroke: black; stroke-linecap:round; stroke-width:0.25; stroke-dasharray:3,3;"/>
<line x1="41.000000" y1="159.000000" x2="213.800000" y2="159.000000"  style="stroke: black; stroke-linecap:round; stroke-width:0.25; stroke-dasharray:3,3;"/>
<line x1="213.800000" y1="159.000000" x2="213.800000" y2="85.000000"  style="stroke: black; stroke-linecap:round; stroke-width:0.25; stroke-dasharray:3,3;"/>
<line x1="41.000000" y1="85.000000" x2="46.000000" y2="85.000000"  style="stroke: black; stroke-linecap:round; stroke-width:0.25; stroke-dasharray:3,3;"/>
<line x1="84.700000" y1="85.000000" x2="213.800000" y2="85.000000"  style="stroke: black; stroke-linecap:round; stroke-width:0.25; stroke-dasharray:3,3;"/>
<text x="46.000000" y="87.000000" font-family="Arial" font-size="7">diffSlider</text>
<rect x="303.800000" y="65.000000" width="24.000000" height="24.000000" rx="0" ry="0" style="stroke:none;fill:#cccccc;"/>
<rect x="302.800000" y="64.000000" width="24.000000" height="24.000000" rx="0" ry="0" style="stroke:none;fill:#4B71A1;"/>
<text x="314.800000" y="78.000000" font-family="Arial" font-size="7" text-anchor="middle" fill="#FFFFFF">+</text>
<circle cx="304.800000" cy="66.000000" r="1"/>
<line x1="299.800000" y1="71.000000" x2="302.800000" y2="72.000000"  transform="rotate(0.000000,302.800000,72.000000)" style="stroke: black; stroke-width:0.25;"/>
<line x1="299.800000" y1="73.000000" x2="302.800000" y2="72.000000"  transform="rotate(0.000000,302.800000,72.000000)" style="stroke: black; stroke-width:0.25;"/>
<line x1="299.800000" y1="79.000000" x2="302.800000" y2="80.000000"  transform="rotate(0.000000,302.800000,80.000000)" style="stroke: black; stroke-width:0.25;"/>
<line x1="299.800000" y1="81.000000" x2="302.800000" y2="80.000000"  transform="rotate(0.000000,302.800000,80.000000)" style="stroke: black; stroke-width:0.25;"/>
<rect x="303.800000" y="97.000000" width="24.000000" height="24.000000" rx="0" ry="0" style="stroke:none;fill:#cccccc;"/>
<rect x="302.800000" y="96.000000" width="24.000000" height="24.000000" rx="0" ry="0" style="stroke:none;fill:#4B71A1;"/>
<text x="314.800000" y="110.000000" font-family="Arial" font-size="7" text-anchor="middle" fill="#FFFFFF">+</text>
<circle cx="304.800000" cy="98.000000" r="1"/>
<line x1="299.800000" y1="103.000000" x2="302.800000" y2="104.000000"  transform="rotate(0.000000,302.800000,104.000000)" style="stroke: black; stroke-width:0.25;"/>
<line x1="299.800000" y1="105.000000" x2="302.800000" y2="104.000000"  transform="rotate(0.000000,302.800000,104.000000)" style="stroke: black; stroke-width:0.25;"/>
<line x1="299.800000" y1="111.000000" x2="302.800000" y2="112.000000"  transform="rotate(0.000000,302.800000,112.000000)" style="stroke: black; stroke-width:0.25;"/>
<line x1="299.800000" y1="113.000000" x2="302.800000" y2="112.000000"  transform="rotate(0.000000,302.800000,112.000000)" style="stroke: black; stroke-width:0.25;"/>
<line x1="239.800000" y1="55.000000" x2="239.800000" y2="129.000000"  style="stroke: black; stroke-linecap:round; stroke-width:0.25; stroke-dasharray:3,3;"/>
<line x1="239.800000" y1="129.000000" x2="335.800000" y2="129.000000"  style="stroke: black; stroke-linecap:round; stroke-width:0.25; stroke-dasharray:3,3;"/>
<line x1="335.800000" y1="129.000000" x2="335.800000" y2="55.000000"  style="stroke: black; stroke-linecap:round; stroke-width:0.25; stroke-dasharray:3,3;"/>
<line x1="239.800000" y1="55.000000" x2="244.800000" y2="55.000000"  style="stroke: black; stroke-linecap:round; stroke-width:0.25; stroke-dasharray:3,3;"/>
<line x1="273.825000" y1="55.000000" x2="335.800000" y2="55.000000"  style="stroke: black; stroke-linecap:round; stroke-width:0.25; stroke-dasharray:3,3;"/>
<text x="244.800000" y="57.000000" font-family="Arial" font-size="7">diffAdd</text>
<line x1="15.000000" y1="15.000000" x2="15.000000" y2="169.000000"  style="stroke: black; stroke-linecap:round; stroke-width:0.25; stroke-dasharray:3,3;"/>
<line x1="15.000000" y1="169.000000" x2="361.800000" y2="169.000000"  style="stroke: black; stroke-linecap:round; stroke-width:0.25; stroke-dasharray:3,3;"/>
<line x1="361.800000" y1="169.000000" x2="361.800000" y2="15.000000"  style="stroke: black; stroke-linecap:round; stroke-width:0.25; stroke-dasharray:3,3;"/>
<line x1="15.000000" y1="15.000000" x2="20.000000" y2="15.000000"  style="stroke: black; stroke-linecap:round; stroke-width:0.25; stroke-dasharray:3,3;"/>
<line x1="49.025000" y1="15.000000" x2="361.800000" y2="15.000000"  style="stroke: black; stroke-linecap:round; stroke-width:0.25; stroke-dasharray:3,3;"/>
<text x="20.000000" y="17.000000" font-family="Arial" font-size="7">process</text>
<line x1="363.800000" y1="87.000000" x2="366.800000" y2="88.000000"  transform="rotate(0.000000,366.800000,88.000000)" style="stroke: black; stroke-width:0.25;"/>
<line x1="363.800000" y1="89.000000" x2="366.800000" y2="88.000000"  transform="rotate(0.000000,366.800000,88.000000)" style="stroke: black; stroke-width:0.25;"/>
<line x1="363.800000" y1="95.000000" x2="366.800000" y2="96.000000"  transform="rotate(0.000000,366.800000,96.000000)" style="stroke: black; stroke-width:0.25;"/>
<line x1="363.800000" y1="97.000000" x2="366.800000" y2="96.000000"  transform="rotate(0.000000,366.800000,96.000000)" style="stroke: black; stroke-width:0.25;"/>
<line x1="10.000000" y1="92.000000" x2="20.000000" y2="92.000000"  style="stroke:black; stroke-linecap:round; stroke-width:0.25;"/>
<line x1="20.000000" y1="92.000000" x2="24.000000" y2="92.000000"  style="stroke:black; stroke-linecap:round; stroke-width:0.25;"/>
<line x1="24.000000" y1="92.000000" x2="28.000000" y2="92.000000"  style="stroke:black; stroke-linecap:round; stroke-width:0.25;"/>
<line x1="28.000000" y1="34.000000" x2="36.000000" y2="34.000000"  style="stroke:black; stroke-linecap:round; stroke-width:0.25;"/>
<line x1="28.000000" y1="92.000000" x2="28.000000" y2="34.000000"  style="stroke:black; stroke-linecap:round; stroke-width:0.25;"/>
<line x1="28.000000" y1="92.000000" x2="28.000000" y2="92.000000"  style="stroke:black; stroke-linecap:round; stroke-width:0.25;"/>
<line x1="36.000000" y1="34.000000" x2="101.400000" y2="34.000000"  style="stroke:black; stroke-linecap:round; stroke-width:0.25;"/>
<line x1="101.400000" y1="34.000000" x2="111.400000" y2="34.000000"  style="stroke:black; stroke-linecap:round; stroke-width:0.25;"/>
<line x1="111.400000" y1="34.000000" x2="127.400000" y2="34.000000"  style="stroke:black; stroke-linecap:round; stroke-width:0.25;"/>
<line x1="127.400000" y1="34.000000" x2="143.400000" y2="34.000000"  style="stroke:black; stroke-linecap:round; stroke-width:0.25;"/>
<line x1="139.400000" y1="54.000000" x2="143.400000" y2="54.000000"  style="stroke:black; stroke-linecap:round; stroke-width:0.25;"/>
<line x1="139.400000" y1="138.000000" x2="143.400000" y2="138.000000"  style="stroke:black; stroke-linecap:round; stroke-width:0.25;"/>
<line x1="143.400000" y1="34.000000" x2="153.400000" y2="34.000000"  style="stroke:black; stroke-linecap:round; stroke-width:0.25;"/>
<line x1="143.400000" y1="54.000000" x2="153.400000" y2="54.000000"  style="stroke:black; stroke-linecap:round; stroke-width:0.25;"/>
<line x1="143.400000" y1="138.000000" x2="208.800000" y2="138.000000"  style="stroke:black; stroke-linecap:round; stroke-width:0.25;"/>
<line x1="153.400000" y1="34.000000" x2="218.800000" y2="34.000000"  style="stroke:black; stroke-linecap:round; stroke-width:0.25;"/>
<line x1="153.400000" y1="54.000000" x2="218.800000" y2="54.000000"  style="stroke:black; stroke-linecap:round; stroke-width:0.25;"/>
<line x1="204.800000" y1="106.000000" x2="208.800000" y2="106.000000"  style="stroke:black; stroke-linecap:round; stroke-width:0.25;"/>
<line x1="208.800000" y1="138.000000" x2="218.800000" y2="138.000000"  style="stroke:black; stroke-linecap:round; stroke-width:0.25;"/>
<line x1="208.800000" y1="106.000000" x2="218.800000" y2="106.000000"  style="stroke:black; stroke-linecap:round; stroke-width:0.25;"/>
<line x1="218.800000" y1="34.000000" x2="234.800000" y2="34.000000"  style="stroke:black; stroke-linecap:round; stroke-width:0.25;"/>
<line x1="218.800000" y1="54.000000" x2="226.800000" y2="54.000000"  style="stroke:black; stroke-linecap:round; stroke-width:0.25;"/>
<line x1="218.800000" y1="138.000000" x2="226.800000" y2="138.000000"  style="stroke:black; stroke-linecap:round; stroke-width:0.25;"/>
<line x1="218.800000" y1="96.000000" x2="234.800000" y2="96.000000"  style="stroke:black; stroke-linecap:round; stroke-width:0.25;"/>
<line x1="218.800000" y1="106.000000" x2="218.800000" y2="96.000000"  style="stroke:black; stroke-linecap:round; stroke-width:0.25;"/>
<line x1="218.800000" y1="106.000000" x2="218.800000" y2="106.000000"  style="stroke:black; stroke-linecap:round; stroke-width:0.25;"/>
<line x1="226.800000" y1="54.000000" x2="226.800000" y2="88.000000"  style="stroke:black; stroke-linecap:round; stroke-width:0.25;"/>
<line x1="226.800000" y1="88.000000" x2="234.800000" y2="88.000000"  style="stroke:black; stroke-linecap:round; stroke-width:0.25;"/>
<line x1="226.800000" y1="104.000000" x2="234.800000" y2="104.000000"  style="stroke:black; stroke-linecap:round; stroke-width:0.25;"/>
<line x1="226.800000" y1="138.000000" x2="226.800000" y2="104.000000"  style="stroke:black; stroke-linecap:round; stroke-width:0.25;"/>
<line x1="234.800000" y1="34.000000" x2="234.800000" y2="80.000000"  style="stroke:black; stroke-linecap:round; stroke-width:0.25;"/>
<line x1="234.800000" y1="80.000000" x2="234.800000" y2="80.000000"  style="stroke:black; stroke-linecap:round; stroke-width:0.25;"/>
<line x1="234.800000" y1="80.000000" x2="244.800000" y2="80.000000"  style="stroke:black; stroke-linecap:round; stroke-width:0.25;"/>
<line x1="234.800000" y1="88.000000" x2="244.800000" y2="88.000000"  style="stroke:black; stroke-linecap:round; stroke-width:0.25;"/>
<line x1="234.800000" y1="96.000000" x2="244.800000" y2="96.000000"  style="stroke:black; stroke-linecap:round; stroke-width:0.25;"/>
<line x1="234.800000" y1="104.000000" x2="244.800000" y2="104.000000"  style="stroke:black; stroke-linecap:round; stroke-width:0.25;"/>
<line x1="244.800000" y1="80.000000" x2="248.800000" y2="80.000000"  style="stroke:black; stroke-linecap:round; stroke-width:0.25;"/>
<line x1="244.800000" y1="88.000000" x2="248.800000" y2="88.000000"  style="stroke:black; stroke-linecap:round; stroke-width:0.25;"/>
<line x1="244.800000" y1="96.000000" x2="248.800000" y2="96.000000"  style="stroke:black; stroke-linecap:round; stroke-width:0.25;"/>
<line x1="244.800000" y1="104.000000" x2="248.800000" y2="104.000000"  style="stroke:black; stroke-linecap:round; stroke-width:0.25;"/>
<line x1="248.800000" y1="80.000000" x2="278.800000" y2="80.000000"  style="stroke:black; stroke-linecap:round; stroke-width:0.25;"/>
<line x1="248.800000" y1="88.000000" x2="278.800000" y2="96.000000"  style="stroke:black; stroke-linecap:round; stroke-width:0.25;"/>
<line x1="248.800000" y1="96.000000" x2="278.800000" y2="88.000000"  style="stroke:black; stroke-linecap:round; stroke-width:0.25;"/>
<line x1="248.800000" y1="104.000000" x2="278.800000" y2="104.000000"  style="stroke:black; stroke-linecap:round; stroke-width:0.25;"/>
<line x1="278.800000" y1="80.000000" x2="282.800000" y2="80.000000"  style="stroke:black; stroke-linecap:round; stroke-width:0.25;"/>
<line x1="278.800000" y1="88.000000" x2="282.800000" y2="88.000000"  style="stroke:black; stroke-linecap:round; stroke-width:0.25;"/>
<line x1="278.800000" y1="96.000000" x2="282.800000" y2="96.000000"  style="stroke:black; stroke-linecap:round; stroke-width:0.25;"/>
<line x1="278.800000" y1="104.000000" x2="282.800000" y2="104.000000"  style="stroke:black; stroke-linecap:round; stroke-width:0.25;"/>
<line x1="282.800000" y1="72.000000" x2="298.800000" y2="72.000000"  style="stroke:black; stroke-linecap:round; stroke-width:0.25;"/>
<line x1="282.800000" y1="80.000000" x2="282.800000" y2="72.000000"  style="stroke:black; stroke-linecap:round; stroke-width:0.25;"/>
<line x1="282.800000" y1="80.000000" x2="282.800000" y2="80.000000"  style="stroke:black; stroke-linecap:round; stroke-width:0.25;"/>
<line x1="282.800000" y1="88.000000" x2="290.800000" y2="88.000000"  style="stroke:black; stroke-linecap:round; stroke-width:0.25;"/>
<line x1="282.800000" y1="96.000000" x2="298.800000" y2="96.000000"  style="stroke:black; stroke-linecap:round; stroke-width:0.25;"/>
<line x1="282.800000" y1="104.000000" x2="290.800000" y2="104.000000"  style="stroke:black; stroke-linecap:round; stroke-width:0.25;"/>
<line x1="290.800000" y1="80.000000" x2="298.800000" y2="80.000000"  style="stroke:black; stroke-linecap:round; stroke-width:0.25;"/>
<line x1="290.800000" y1="88.000000" x2="290.800000" y2="80.000000"  style="stroke:black; stroke-linecap:round; stroke-width:0.25;"/>
<line x1="290.800000" y1="104.000000" x2="290.800000" y2="112.000000"  style="stroke:black; stroke-linecap:round; stroke-width:0.25;"/>
<line x1="290.800000" y1="112.000000" x2="298.800000" y2="112.000000"  style="stroke:black; stroke-linecap:round; stroke-width:0.25;"/>
<line x1="298.800000" y1="72.000000" x2="302.800000" y2="72.000000"  style="stroke:black; stroke-linecap:round; stroke-width:0.25;"/>
<line x1="298.800000" y1="80.000000" x2="302.800000" y2="80.000000"  style="stroke:black; stroke-linecap:round; stroke-width:0.25;"/>
<line x1="298.800000" y1="96.000000" x2="298.800000" y2="104.000000"  style="stroke:black; stroke-linecap:round; stroke-width:0.25;"/>
<line x1="298.800000" y1="104.000000" x2="298.800000" y2="104.000000"  style="stroke:black; stroke-linecap:round; stroke-width:0.25;"/>
<line x1="298.800000" y1="104.000000" x2="302.800000" y2="104.000000"  style="stroke:black; stroke-linecap:round; stroke-width:0.25;"/>
<line x1="298.800000" y1="112.000000" x2="302.800000" y2="112.000000"  style="stroke:black; stroke-linecap:round; stroke-width:0.25;"/>
<line x1="326.800000" y1="76.000000" x2="330.800000" y2="76.000000"  style="stroke:black; stroke-linecap:round; stroke-width:0.25;"/>
<line x1="326.800000" y1="108.000000" x2="330.800000" y2="108.000000"  style="stroke:black; stroke-linecap:round; stroke-width:0.25;"/>
<line x1="330.800000" y1="76.000000" x2="340.800000" y2="76.000000"  style="stroke:black; stroke-linecap:round; stroke-width:0.25;"/>
<line x1="330.800000" y1="108.000000" x2="340.800000" y2="108.000000"  style="stroke:black; stroke-linecap:round; stroke-width:0.25;"/>
<line x1="340.800000" y1="76.000000" x2="348.800000" y2="76.000000"  style="stroke:black; stroke-linecap:round; stroke-width:0.25;"/>
<line x1="340.800000" y1="96.000000" x2="348.800000" y2="96.000000"  style="stroke:black; stroke-linecap:round; stroke-width:0.25;"/>
<line x1="340.800000" y1="108.000000" x2="340.800000" y2="96.000000"  style="stroke:black; stroke-linecap:round; stroke-width:0.25;"/>
<line x1="340.800000" y1="108.000000" x2="340.800000" y2="108.000000"  style="stroke:black; stroke-linecap:round; stroke-width:0.25;"/>
<line x1="348.800000" y1="76.000000" x2="348.800000" y2="88.000000"  style="stroke:black; stroke-linecap:round; stroke-width:0.25;"/>
<line x1="348.800000" y1="88.000000" x2="348.800000" y2="88.000000"  style="stroke:black; stroke-linecap:round; stroke-width:0.25;"/>
<line x1="348.800000" y1="88.000000" x2="352.800000" y2="88.000000"  style="stroke:black; stroke-linecap:round; stroke-width:0.25;"/>
<line x1="348.800000" y1="96.000000" x2="352.800000" y2="96.000000"  style="stroke:black; stroke-linecap:round; stroke-width:0.25;"/>
<line x1="352.800000" y1="88.000000" x2="356.800000" y2="88.000000"  style="stroke:black; stroke-linecap:round; stroke-width:0.25;"/>
<line x1="352.800000" y1="96.000000" x2="356.800000" y2="96.000000"  style="stroke:black; stroke-linecap:round; stroke-width:0.25;"/>
<line x1="356.800000" y1="88.000000" x2="366.800000" y2="88.000000"  style="stroke:black; stroke-linecap:round; stroke-width:0.25;"/>
<line x1="356.800000" y1="96.000000" x2="366.800000" y2="96.000000"  style="stroke:black; stroke-linecap:round; stroke-width:0.25;"/>
</svg>
