<?xml version="1.0"?>
<svg xmlns="http://www.w3.org/2000/svg" xmlns:xlink="http://www.w3.org/1999/xlink" viewBox="0 0 486.300000 400.000000" width="243.150000mm" height="200.000000mm" version="1.1">
<rect x="1.000000" y="1.000000" width="485.300000" height="399.000000" rx="0" ry="0" style="stroke:none;fill:#cccccc;"/>
<rect x="0.000000" y="0.000000" width="485.300000" height="399.000000" rx="0" ry="0" style="stroke:none;fill:#ffffff;"/>
<text x="10.000000" y="7.000000" font-family="Arial" font-size="7"></text>
<rect x="268.150000" y="25.000000" width="24.000000" height="24.000000" rx="0" ry="0" style="stroke:none;fill:#cccccc;"/>
<rect x="267.150000" y="24.000000" width="24.000000" height="24.000000" rx="0" ry="0" style="stroke:none;fill:#4B71A1;"/>
<text x="279.150000" y="38.000000" font-family="Arial" font-size="7" text-anchor="middle" fill="#FFFFFF">abs</text>
<circle cx="269.150000" cy="26.000000" r="1"/>
<line x1="264.150000" y1="35.000000" x2="267.150000" y2="36.000000"  transform="rotate(0.000000,267.150000,36.000000)" style="stroke: black; stroke-width:0.25;"/>
<line x1="264.150000" y1="37.000000" x2="267.150000" y2="36.000000"  transform="rotate(0.000000,267.150000,36.000000)" style="stroke: black; stroke-width:0.25;"/>
<rect x="121.000000" y="131.000000" width="24.000000" height="24.000000" rx="0" ry="0" style="stroke:none;fill:#cccccc;"/>
<rect x="120.000000" y="130.000000" width="24.000000" height="24.000000" rx="0" ry="0" style="stroke:none;fill:#4B71A1;"/>
<text x="132.000000" y="144.000000" font-family="Arial" font-size="7" text-anchor="middle" fill="#FFFFFF">abs</text>
<circle cx="122.000000" cy="132.000000" r="1"/>
<line x1="117.000000" y1="141.000000" x2="120.000000" y2="142.000000"  transform="rotate(0.000000,120.000000,142.000000)" style="stroke: black; stroke-width:0.25;"/>
<line x1="117.000000" y1="143.000000" x2="120.000000" y2="142.000000"  transform="rotate(0.000000,120.000000,142.000000)" style="stroke: black; stroke-width:0.25;"/>
<rect x="171.000000" y="111.000000" width="25.800000" height="24.000000" rx="0" ry="0" style="stroke:none;fill:#cccccc;"/>
<rect x="170.000000" y="110.000000" width="25.800000" height="24.000000" rx="0" ry="0" style="stroke:none;fill:#47945E;"/>
<text x="182.900000" y="124.000000" font-family="Arial" font-size="7" text-anchor="middle" fill="#FFFFFF">[1] x</text>
<circle cx="172.000000" cy="112.000000" r="1"/>
<line x1="167.000000" y1="121.000000" x2="170.000000" y2="122.000000"  transform="rotate(0.000000,170.000000,122.000000)" style="stroke: black; stroke-width:0.25;"/>
<line x1="167.000000" y1="123.000000" x2="170.000000" y2="122.000000"  transform="rotate(0.000000,170.000000,122.000000)" style="stroke: black; stroke-width:0.25;"/>
<rect x="171.000000" y="143.000000" width="25.800000" height="24.000000" rx="0" ry="0" style="stroke:none;fill:#cccccc;"/>
<rect x="170.000000" y="142.000000" width="25.800000" height="24.000000" rx="0" ry="0" style="stroke:none;fill:#47945E;"/>
<text x="182.900000" y="156.000000" font-family="Arial" font-size="7" text-anchor="middle" fill="#FFFFFF">[2] y</text>
<circle cx="172.000000" cy="144.000000" r="1"/>
<line x1="167.000000" y1="153.000000" x2="170.000000" y2="154.000000"  transform="rotate(0.000000,170.000000,154.000000)" style="stroke: black; stroke-width:0.25;"/>
<line x1="167.000000" y1="155.000000" x2="170.000000" y2="154.000000"  transform="rotate(0.000000,170.000000,154.000000)" style="stroke: black; stroke-width:0.25;"/>
<rect x="264.150000" y="85.000000" width="25.800000" height="24.000000" rx="0" ry="0" style="stroke:none;fill:#cccccc;"/>
<rect x="263.150000" y="84.000000" width="25.800000" height="24.000000" rx="0" ry="0" style="stroke:none;fill:#47945E;"/>
<text x="276.050000" y="98.000000" font-family="Arial" font-size="7" text-anchor="middle" fill="#FFFFFF">[1] x</text>
<circle cx="265.150000" cy="86.000000" r="1"/>
<rect x="244.150000" y="117.000000" width="25.800000" height="24.000000" rx="0" ry="0" style="stroke:none;fill:#cccccc;"/>
<rect x="243.150000" y="116.000000" width="25.800000" height="24.000000" rx="0" ry="0" style="stroke:none;fill:#47945E;"/>
<text x="256.050000" y="130.000000" font-family="Arial" font-size="7" text-anchor="middle" fill="#FFFFFF">[2] y</text>
<circle cx="245.150000" cy="118.000000" r="1"/>
<rect x="224.800000" y="159.000000" width="64.500000" height="24.000000" rx="0" ry="0" style="stroke:none;fill:#cccccc;"/>
<rect x="223.800000" y="158.000000" width="64.500000" height="24.000000" rx="0" ry="0" style="stroke:none;fill:#f44800;"/>
<text x="256.050000" y="172.000000" font-family="Arial" font-size="7" text-anchor="middle" fill="#FFFFFF">1.1920929e-07f</text>
<circle cx="225.800000" cy="160.000000" r="1"/>
<line x1="214.800000" y1="149.000000" x2="214.800000" y2="191.000000"  style="stroke: black; stroke-linecap:round; stroke-width:0.25; stroke-dasharray:3,3;"/>
<line x1="214.800000" y1="191.000000" x2="297.300000" y2="191.000000"  style="stroke: black; stroke-linecap:round; stroke-width:0.25; stroke-dasharray:3,3;"/>
<line x1="297.300000" y1="191.000000" x2="297.300000" y2="149.000000"  style="stroke: black; stroke-linecap:round; stroke-width:0.25; stroke-dasharray:3,3;"/>
<line x1="214.800000" y1="149.000000" x2="219.800000" y2="149.000000"  style="stroke: black; stroke-linecap:round; stroke-width:0.25; stroke-dasharray:3,3;"/>
<line x1="248.825000" y1="149.000000" x2="297.300000" y2="149.000000"  style="stroke: black; stroke-linecap:round; stroke-width:0.25; stroke-dasharray:3,3;"/>
<text x="219.800000" y="151.000000" font-family="Arial" font-size="7">EPSILON</text>
<rect x="315.300000" y="143.000000" width="24.000000" height="24.000000" rx="0" ry="0" style="stroke:none;fill:#cccccc;"/>
<rect x="314.300000" y="142.000000" width="24.000000" height="24.000000" rx="0" ry="0" style="stroke:none;fill:#4B71A1;"/>
<text x="326.300000" y="156.000000" font-family="Arial" font-size="7" text-anchor="middle" fill="#FFFFFF">min</text>
<circle cx="316.300000" cy="144.000000" r="1"/>
<line x1="311.300000" y1="149.000000" x2="314.300000" y2="150.000000"  transform="rotate(0.000000,314.300000,150.000000)" style="stroke: black; stroke-width:0.25;"/>
<line x1="311.300000" y1="151.000000" x2="314.300000" y2="150.000000"  transform="rotate(0.000000,314.300000,150.000000)" style="stroke: black; stroke-width:0.25;"/>
<line x1="311.300000" y1="157.000000" x2="314.300000" y2="158.000000"  transform="rotate(0.000000,314.300000,158.000000)" style="stroke: black; stroke-width:0.25;"/>
<line x1="311.300000" y1="159.000000" x2="314.300000" y2="158.000000"  transform="rotate(0.000000,314.300000,158.000000)" style="stroke: black; stroke-width:0.25;"/>
<rect x="355.300000" y="127.000000" width="24.000000" height="24.000000" rx="0" ry="0" style="stroke:none;fill:#cccccc;"/>
<rect x="354.300000" y="126.000000" width="24.000000" height="24.000000" rx="0" ry="0" style="stroke:none;fill:#4B71A1;"/>
<text x="366.300000" y="140.000000" font-family="Arial" font-size="7" text-anchor="middle" fill="#FFFFFF">/</text>
<circle cx="356.300000" cy="128.000000" r="1"/>
<line x1="351.300000" y1="133.000000" x2="354.300000" y2="134.000000"  transform="rotate(0.000000,354.300000,134.000000)" style="stroke: black; stroke-width:0.25;"/>
<line x1="351.300000" y1="135.000000" x2="354.300000" y2="134.000000"  transform="rotate(0.000000,354.300000,134.000000)" style="stroke: black; stroke-width:0.25;"/>
<line x1="351.300000" y1="141.000000" x2="354.300000" y2="142.000000"  transform="rotate(0.000000,354.300000,142.000000)" style="stroke: black; stroke-width:0.25;"/>
<line x1="351.300000" y1="143.000000" x2="354.300000" y2="142.000000"  transform="rotate(0.000000,354.300000,142.000000)" style="stroke: black; stroke-width:0.25;"/>
<line x1="204.800000" y1="75.000000" x2="204.800000" y2="201.000000"  style="stroke: black; stroke-linecap:round; stroke-width:0.25; stroke-dasharray:3,3;"/>
<line x1="204.800000" y1="201.000000" x2="387.300000" y2="201.000000"  style="stroke: black; stroke-linecap:round; stroke-width:0.25; stroke-dasharray:3,3;"/>
<line x1="387.300000" y1="201.000000" x2="387.300000" y2="75.000000"  style="stroke: black; stroke-linecap:round; stroke-width:0.25; stroke-dasharray:3,3;"/>
<line x1="204.800000" y1="75.000000" x2="209.800000" y2="75.000000"  style="stroke: black; stroke-linecap:round; stroke-width:0.25; stroke-dasharray:3,3;"/>
<line x1="229.150000" y1="75.000000" x2="387.300000" y2="75.000000"  style="stroke: black; stroke-linecap:round; stroke-width:0.25; stroke-dasharray:3,3;"/>
<text x="209.800000" y="77.000000" font-family="Arial" font-size="7">divi</text>
<line x1="161.000000" y1="65.000000" x2="161.000000" y2="211.000000"  style="stroke: black; stroke-linecap:round; stroke-width:0.25; stroke-dasharray:3,3;"/>
<line x1="161.000000" y1="211.000000" x2="397.300000" y2="211.000000"  style="stroke: black; stroke-linecap:round; stroke-width:0.25; stroke-dasharray:3,3;"/>
<line x1="397.300000" y1="211.000000" x2="397.300000" y2="65.000000"  style="stroke: black; stroke-linecap:round; stroke-width:0.25; stroke-dasharray:3,3;"/>
<line x1="161.000000" y1="65.000000" x2="166.000000" y2="65.000000"  style="stroke: black; stroke-linecap:round; stroke-width:0.25; stroke-dasharray:3,3;"/>
<line x1="182.125000" y1="65.000000" x2="397.300000" y2="65.000000"  style="stroke: black; stroke-linecap:round; stroke-width:0.25; stroke-dasharray:3,3;"/>
<text x="166.000000" y="67.000000" font-family="Arial" font-size="7">div</text>
<rect x="415.300000" y="123.000000" width="24.000000" height="24.000000" rx="0" ry="0" style="stroke:none;fill:#cccccc;"/>
<rect x="414.300000" y="122.000000" width="24.000000" height="24.000000" rx="0" ry="0" style="stroke:none;fill:#4B71A1;"/>
<text x="426.300000" y="136.000000" font-family="Arial" font-size="7" text-anchor="middle" fill="#FFFFFF">*</text>
<circle cx="416.300000" cy="124.000000" r="1"/>
<line x1="411.300000" y1="129.000000" x2="414.300000" y2="130.000000"  transform="rotate(0.000000,414.300000,130.000000)" style="stroke: black; stroke-width:0.25;"/>
<line x1="411.300000" y1="131.000000" x2="414.300000" y2="130.000000"  transform="rotate(0.000000,414.300000,130.000000)" style="stroke: black; stroke-width:0.25;"/>
<line x1="411.300000" y1="137.000000" x2="414.300000" y2="138.000000"  transform="rotate(0.000000,414.300000,138.000000)" style="stroke: black; stroke-width:0.25;"/>
<line x1="411.300000" y1="139.000000" x2="414.300000" y2="138.000000"  transform="rotate(0.000000,414.300000,138.000000)" style="stroke: black; stroke-width:0.25;"/>
<rect x="121.000000" y="295.000000" width="24.000000" height="24.000000" rx="0" ry="0" style="stroke:none;fill:#cccccc;"/>
<rect x="120.000000" y="294.000000" width="24.000000" height="24.000000" rx="0" ry="0" style="stroke:none;fill:#4B71A1;"/>
<text x="132.000000" y="308.000000" font-family="Arial" font-size="7" text-anchor="middle" fill="#FFFFFF">abs</text>
<circle cx="122.000000" cy="296.000000" r="1"/>
<line x1="117.000000" y1="305.000000" x2="120.000000" y2="306.000000"  transform="rotate(0.000000,120.000000,306.000000)" style="stroke: black; stroke-width:0.25;"/>
<line x1="117.000000" y1="307.000000" x2="120.000000" y2="306.000000"  transform="rotate(0.000000,120.000000,306.000000)" style="stroke: black; stroke-width:0.25;"/>
<rect x="171.000000" y="275.000000" width="25.800000" height="24.000000" rx="0" ry="0" style="stroke:none;fill:#cccccc;"/>
<rect x="170.000000" y="274.000000" width="25.800000" height="24.000000" rx="0" ry="0" style="stroke:none;fill:#47945E;"/>
<text x="182.900000" y="288.000000" font-family="Arial" font-size="7" text-anchor="middle" fill="#FFFFFF">[1] x</text>
<circle cx="172.000000" cy="276.000000" r="1"/>
<line x1="167.000000" y1="285.000000" x2="170.000000" y2="286.000000"  transform="rotate(0.000000,170.000000,286.000000)" style="stroke: black; stroke-width:0.25;"/>
<line x1="167.000000" y1="287.000000" x2="170.000000" y2="286.000000"  transform="rotate(0.000000,170.000000,286.000000)" style="stroke: black; stroke-width:0.25;"/>
<rect x="171.000000" y="307.000000" width="25.800000" height="24.000000" rx="0" ry="0" style="stroke:none;fill:#cccccc;"/>
<rect x="170.000000" y="306.000000" width="25.800000" height="24.000000" rx="0" ry="0" style="stroke:none;fill:#47945E;"/>
<text x="182.900000" y="320.000000" font-family="Arial" font-size="7" text-anchor="middle" fill="#FFFFFF">[2] y</text>
<circle cx="172.000000" cy="308.000000" r="1"/>
<line x1="167.000000" y1="317.000000" x2="170.000000" y2="318.000000"  transform="rotate(0.000000,170.000000,318.000000)" style="stroke: black; stroke-width:0.25;"/>
<line x1="167.000000" y1="319.000000" x2="170.000000" y2="318.000000"  transform="rotate(0.000000,170.000000,318.000000)" style="stroke: black; stroke-width:0.25;"/>
<rect x="264.150000" y="249.000000" width="25.800000" height="24.000000" rx="0" ry="0" style="stroke:none;fill:#cccccc;"/>
<rect x="263.150000" y="248.000000" width="25.800000" height="24.000000" rx="0" ry="0" style="stroke:none;fill:#47945E;"/>
<text x="276.050000" y="262.000000" font-family="Arial" font-size="7" text-anchor="middle" fill="#FFFFFF">[1] x</text>
<circle cx="265.150000" cy="250.000000" r="1"/>
<rect x="244.150000" y="281.000000" width="25.800000" height="24.000000" rx="0" ry="0" style="stroke:none;fill:#cccccc;"/>
<rect x="243.150000" y="280.000000" width="25.800000" height="24.000000" rx="0" ry="0" style="stroke:none;fill:#47945E;"/>
<text x="256.050000" y="294.000000" font-family="Arial" font-size="7" text-anchor="middle" fill="#FFFFFF">[2] y</text>
<circle cx="245.150000" cy="282.000000" r="1"/>
<rect x="224.800000" y="323.000000" width="64.500000" height="24.000000" rx="0" ry="0" style="stroke:none;fill:#cccccc;"/>
<rect x="223.800000" y="322.000000" width="64.500000" height="24.000000" rx="0" ry="0" style="stroke:none;fill:#f44800;"/>
<text x="256.050000" y="336.000000" font-family="Arial" font-size="7" text-anchor="middle" fill="#FFFFFF">1.1920929e-07f</text>
<circle cx="225.800000" cy="324.000000" r="1"/>
<line x1="214.800000" y1="313.000000" x2="214.800000" y2="355.000000"  style="stroke: black; stroke-linecap:round; stroke-width:0.25; stroke-dasharray:3,3;"/>
<line x1="214.800000" y1="355.000000" x2="297.300000" y2="355.000000"  style="stroke: black; stroke-linecap:round; stroke-width:0.25; stroke-dasharray:3,3;"/>
<line x1="297.300000" y1="355.000000" x2="297.300000" y2="313.000000"  style="stroke: black; stroke-linecap:round; stroke-width:0.25; stroke-dasharray:3,3;"/>
<line x1="214.800000" y1="313.000000" x2="219.800000" y2="313.000000"  style="stroke: black; stroke-linecap:round; stroke-width:0.25; stroke-dasharray:3,3;"/>
<line x1="248.825000" y1="313.000000" x2="297.300000" y2="313.000000"  style="stroke: black; stroke-linecap:round; stroke-width:0.25; stroke-dasharray:3,3;"/>
<text x="219.800000" y="315.000000" font-family="Arial" font-size="7">EPSILON</text>
<rect x="315.300000" y="307.000000" width="24.000000" height="24.000000" rx="0" ry="0" style="stroke:none;fill:#cccccc;"/>
<rect x="314.300000" y="306.000000" width="24.000000" height="24.000000" rx="0" ry="0" style="stroke:none;fill:#4B71A1;"/>
<text x="326.300000" y="320.000000" font-family="Arial" font-size="7" text-anchor="middle" fill="#FFFFFF">min</text>
<circle cx="316.300000" cy="308.000000" r="1"/>
<line x1="311.300000" y1="313.000000" x2="314.300000" y2="314.000000"  transform="rotate(0.000000,314.300000,314.000000)" style="stroke: black; stroke-width:0.25;"/>
<line x1="311.300000" y1="315.000000" x2="314.300000" y2="314.000000"  transform="rotate(0.000000,314.300000,314.000000)" style="stroke: black; stroke-width:0.25;"/>
<line x1="311.300000" y1="321.000000" x2="314.300000" y2="322.000000"  transform="rotate(0.000000,314.300000,322.000000)" style="stroke: black; stroke-width:0.25;"/>
<line x1="311.300000" y1="323.000000" x2="314.300000" y2="322.000000"  transform="rotate(0.000000,314.300000,322.000000)" style="stroke: black; stroke-width:0.25;"/>
<rect x="355.300000" y="291.000000" width="24.000000" height="24.000000" rx="0" ry="0" style="stroke:none;fill:#cccccc;"/>
<rect x="354.300000" y="290.000000" width="24.000000" height="24.000000" rx="0" ry="0" style="stroke:none;fill:#4B71A1;"/>
<text x="366.300000" y="304.000000" font-family="Arial" font-size="7" text-anchor="middle" fill="#FFFFFF">/</text>
<circle cx="356.300000" cy="292.000000" r="1"/>
<line x1="351.300000" y1="297.000000" x2="354.300000" y2="298.000000"  transform="rotate(0.000000,354.300000,298.000000)" style="stroke: black; stroke-width:0.25;"/>
<line x1="351.300000" y1="299.000000" x2="354.300000" y2="298.000000"  transform="rotate(0.000000,354.300000,298.000000)" style="stroke: black; stroke-width:0.25;"/>
<line x1="351.300000" y1="305.000000" x2="354.300000" y2="306.000000"  transform="rotate(0.000000,354.300000,306.000000)" style="stroke: black; stroke-width:0.25;"/>
<line x1="351.300000" y1="307.000000" x2="354.300000" y2="306.000000"  transform="rotate(0.000000,354.300000,306.000000)" style="stroke: black; stroke-width:0.25;"/>
<line x1="204.800000" y1="239.000000" x2="204.800000" y2="365.000000"  style="stroke: black; stroke-linecap:round; stroke-width:0.25; stroke-dasharray:3,3;"/>
<line x1="204.800000" y1="365.000000" x2="387.300000" y2="365.000000"  style="stroke: black; stroke-linecap:round; stroke-width:0.25; stroke-dasharray:3,3;"/>
<line x1="387.300000" y1="365.000000" x2="387.300000" y2="239.000000"  style="stroke: black; stroke-linecap:round; stroke-width:0.25; stroke-dasharray:3,3;"/>
<line x1="204.800000" y1="239.000000" x2="209.800000" y2="239.000000"  style="stroke: black; stroke-linecap:round; stroke-width:0.25; stroke-dasharray:3,3;"/>
<line x1="229.150000" y1="239.000000" x2="387.300000" y2="239.000000"  style="stroke: black; stroke-linecap:round; stroke-width:0.25; stroke-dasharray:3,3;"/>
<text x="209.800000" y="241.000000" font-family="Arial" font-size="7">divi</text>
<line x1="161.000000" y1="229.000000" x2="161.000000" y2="375.000000"  style="stroke: black; stroke-linecap:round; stroke-width:0.25; stroke-dasharray:3,3;"/>
<line x1="161.000000" y1="375.000000" x2="397.300000" y2="375.000000"  style="stroke: black; stroke-linecap:round; stroke-width:0.25; stroke-dasharray:3,3;"/>
<line x1="397.300000" y1="375.000000" x2="397.300000" y2="229.000000"  style="stroke: black; stroke-linecap:round; stroke-width:0.25; stroke-dasharray:3,3;"/>
<line x1="161.000000" y1="229.000000" x2="166.000000" y2="229.000000"  style="stroke: black; stroke-linecap:round; stroke-width:0.25; stroke-dasharray:3,3;"/>
<line x1="182.125000" y1="229.000000" x2="397.300000" y2="229.000000"  style="stroke: black; stroke-linecap:round; stroke-width:0.25; stroke-dasharray:3,3;"/>
<text x="166.000000" y="231.000000" font-family="Arial" font-size="7">div</text>
<rect x="415.300000" y="287.000000" width="24.000000" height="24.000000" rx="0" ry="0" style="stroke:none;fill:#cccccc;"/>
<rect x="414.300000" y="286.000000" width="24.000000" height="24.000000" rx="0" ry="0" style="stroke:none;fill:#4B71A1;"/>
<text x="426.300000" y="300.000000" font-family="Arial" font-size="7" text-anchor="middle" fill="#FFFFFF">*</text>
<circle cx="416.300000" cy="288.000000" r="1"/>
<line x1="411.300000" y1="293.000000" x2="414.300000" y2="294.000000"  transform="rotate(0.000000,414.300000,294.000000)" style="stroke: black; stroke-width:0.25;"/>
<line x1="411.300000" y1="295.000000" x2="414.300000" y2="294.000000"  transform="rotate(0.000000,414.300000,294.000000)" style="stroke: black; stroke-width:0.25;"/>
<line x1="411.300000" y1="301.000000" x2="414.300000" y2="302.000000"  transform="rotate(0.000000,414.300000,302.000000)" style="stroke: black; stroke-width:0.25;"/>
<line x1="411.300000" y1="303.000000" x2="414.300000" y2="302.000000"  transform="rotate(0.000000,414.300000,302.000000)" style="stroke: black; stroke-width:0.25;"/>
<line x1="15.000000" y1="15.000000" x2="15.000000" y2="385.000000"  style="stroke: black; stroke-linecap:round; stroke-width:0.25; stroke-dasharray:3,3;"/>
<line x1="15.000000" y1="385.000000" x2="471.300000" y2="385.000000"  style="stroke: black; stroke-linecap:round; stroke-width:0.25; stroke-dasharray:3,3;"/>
<line x1="471.300000" y1="385.000000" x2="471.300000" y2="15.000000"  style="stroke: black; stroke-linecap:round; stroke-width:0.25; stroke-dasharray:3,3;"/>
<line x1="15.000000" y1="15.000000" x2="20.000000" y2="15.000000"  style="stroke: black; stroke-linecap:round; stroke-width:0.25; stroke-dasharray:3,3;"/>
<line x1="49.025000" y1="15.000000" x2="471.300000" y2="15.000000"  style="stroke: black; stroke-linecap:round; stroke-width:0.25; stroke-dasharray:3,3;"/>
<text x="20.000000" y="17.000000" font-family="Arial" font-size="7">process</text>
<line x1="473.300000" y1="191.000000" x2="476.300000" y2="192.000000"  transform="rotate(0.000000,476.300000,192.000000)" style="stroke: black; stroke-width:0.25;"/>
<line x1="473.300000" y1="193.000000" x2="476.300000" y2="192.000000"  transform="rotate(0.000000,476.300000,192.000000)" style="stroke: black; stroke-width:0.25;"/>
<line x1="473.300000" y1="199.000000" x2="476.300000" y2="200.000000"  transform="rotate(0.000000,476.300000,200.000000)" style="stroke: black; stroke-width:0.25;"/>
<line x1="473.300000" y1="201.000000" x2="476.300000" y2="200.000000"  transform="rotate(0.000000,476.300000,200.000000)" style="stroke: black; stroke-width:0.25;"/>
<line x1="473.300000" y1="207.000000" x2="476.300000" y2="208.000000"  transform="rotate(0.000000,476.300000,208.000000)" style="stroke: black; stroke-width:0.25;"/>
<line x1="473.300000" y1="209.000000" x2="476.300000" y2="208.000000"  transform="rotate(0.000000,476.300000,208.000000)" style="stroke: black; stroke-width:0.25;"/>
<line x1="10.000000" y1="192.000000" x2="20.000000" y2="192.000000"  style="stroke:black; stroke-linecap:round; stroke-width:0.25;"/>
<line x1="10.000000" y1="200.000000" x2="20.000000" y2="200.000000"  style="stroke:black; stroke-linecap:round; stroke-width:0.25;"/>
<line x1="10.000000" y1="208.000000" x2="20.000000" y2="208.000000"  style="stroke:black; stroke-linecap:round; stroke-width:0.25;"/>
<line x1="20.000000" y1="192.000000" x2="24.000000" y2="192.000000"  style="stroke:black; stroke-linecap:round; stroke-width:0.25;"/>
<line x1="20.000000" y1="200.000000" x2="24.000000" y2="200.000000"  style="stroke:black; stroke-linecap:round; stroke-width:0.25;"/>
<line x1="20.000000" y1="208.000000" x2="24.000000" y2="208.000000"  style="stroke:black; stroke-linecap:round; stroke-width:0.25;"/>
<line x1="24.000000" y1="192.000000" x2="28.000000" y2="192.000000"  style="stroke:black; stroke-linecap:round; stroke-width:0.25;"/>
<line x1="24.000000" y1="200.000000" x2="28.000000" y2="200.000000"  style="stroke:black; stroke-linecap:round; stroke-width:0.25;"/>
<line x1="24.000000" y1="208.000000" x2="28.000000" y2="208.000000"  style="stroke:black; stroke-linecap:round; stroke-width:0.25;"/>
<line x1="28.000000" y1="192.000000" x2="28.000000" y2="192.000000"  style="stroke:black; stroke-linecap:round; stroke-width:0.25;"/>
<line x1="28.000000" y1="192.000000" x2="32.000000" y2="192.000000"  style="stroke:black; stroke-linecap:round; stroke-width:0.25;"/>
<line x1="28.000000" y1="200.000000" x2="28.000000" y2="200.000000"  style="stroke:black; stroke-linecap:round; stroke-width:0.25;"/>
<line x1="28.000000" y1="200.000000" x2="32.000000" y2="200.000000"  style="stroke:black; stroke-linecap:round; stroke-width:0.25;"/>
<line x1="28.000000" y1="208.000000" x2="28.000000" y2="208.000000"  style="stroke:black; stroke-linecap:round; stroke-width:0.25;"/>
<line x1="28.000000" y1="208.000000" x2="32.000000" y2="208.000000"  style="stroke:black; stroke-linecap:round; stroke-width:0.25;"/>
<line x1="32.000000" y1="192.000000" x2="80.000000" y2="176.000000"  style="stroke:black; stroke-linecap:round; stroke-width:0.25;"/>
<line x1="32.000000" y1="192.000000" x2="80.000000" y2="192.000000"  style="stroke:black; stroke-linecap:round; stroke-width:0.25;"/>
<line x1="32.000000" y1="192.000000" x2="80.000000" y2="200.000000"  style="stroke:black; stroke-linecap:round; stroke-width:0.25;"/>
<line x1="32.000000" y1="192.000000" x2="80.000000" y2="216.000000"  style="stroke:black; stroke-linecap:round; stroke-width:0.25;"/>
<line x1="32.000000" y1="192.000000" x2="80.000000" y2="224.000000"  style="stroke:black; stroke-linecap:round; stroke-width:0.25;"/>
<line x1="32.000000" y1="200.000000" x2="80.000000" y2="184.000000"  style="stroke:black; stroke-linecap:round; stroke-width:0.25;"/>
<line x1="32.000000" y1="208.000000" x2="80.000000" y2="208.000000"  style="stroke:black; stroke-linecap:round; stroke-width:0.25;"/>
<line x1="80.000000" y1="176.000000" x2="84.000000" y2="176.000000"  style="stroke:black; stroke-linecap:round; stroke-width:0.25;"/>
<line x1="80.000000" y1="184.000000" x2="84.000000" y2="184.000000"  style="stroke:black; stroke-linecap:round; stroke-width:0.25;"/>
<line x1="80.000000" y1="192.000000" x2="84.000000" y2="192.000000"  style="stroke:black; stroke-linecap:round; stroke-width:0.25;"/>
<line x1="80.000000" y1="200.000000" x2="84.000000" y2="200.000000"  style="stroke:black; stroke-linecap:round; stroke-width:0.25;"/>
<line x1="80.000000" y1="208.000000" x2="84.000000" y2="208.000000"  style="stroke:black; stroke-linecap:round; stroke-width:0.25;"/>
<line x1="80.000000" y1="216.000000" x2="84.000000" y2="216.000000"  style="stroke:black; stroke-linecap:round; stroke-width:0.25;"/>
<line x1="80.000000" y1="224.000000" x2="84.000000" y2="224.000000"  style="stroke:black; stroke-linecap:round; stroke-width:0.25;"/>
<line x1="84.000000" y1="36.000000" x2="116.000000" y2="36.000000"  style="stroke:black; stroke-linecap:round; stroke-width:0.25;"/>
<line x1="84.000000" y1="176.000000" x2="84.000000" y2="36.000000"  style="stroke:black; stroke-linecap:round; stroke-width:0.25;"/>
<line x1="84.000000" y1="176.000000" x2="84.000000" y2="176.000000"  style="stroke:black; stroke-linecap:round; stroke-width:0.25;"/>
<line x1="84.000000" y1="184.000000" x2="92.000000" y2="184.000000"  style="stroke:black; stroke-linecap:round; stroke-width:0.25;"/>
<line x1="84.000000" y1="192.000000" x2="100.000000" y2="192.000000"  style="stroke:black; stroke-linecap:round; stroke-width:0.25;"/>
<line x1="84.000000" y1="200.000000" x2="108.000000" y2="200.000000"  style="stroke:black; stroke-linecap:round; stroke-width:0.25;"/>
<line x1="84.000000" y1="208.000000" x2="116.000000" y2="208.000000"  style="stroke:black; stroke-linecap:round; stroke-width:0.25;"/>
<line x1="84.000000" y1="216.000000" x2="108.000000" y2="216.000000"  style="stroke:black; stroke-linecap:round; stroke-width:0.25;"/>
<line x1="84.000000" y1="224.000000" x2="100.000000" y2="224.000000"  style="stroke:black; stroke-linecap:round; stroke-width:0.25;"/>
<line x1="92.000000" y1="56.000000" x2="116.000000" y2="56.000000"  style="stroke:black; stroke-linecap:round; stroke-width:0.25;"/>
<line x1="92.000000" y1="184.000000" x2="92.000000" y2="56.000000"  style="stroke:black; stroke-linecap:round; stroke-width:0.25;"/>
<line x1="100.000000" y1="122.000000" x2="116.000000" y2="122.000000"  style="stroke:black; stroke-linecap:round; stroke-width:0.25;"/>
<line x1="100.000000" y1="192.000000" x2="100.000000" y2="122.000000"  style="stroke:black; stroke-linecap:round; stroke-width:0.25;"/>
<line x1="100.000000" y1="224.000000" x2="100.000000" y2="306.000000"  style="stroke:black; stroke-linecap:round; stroke-width:0.25;"/>
<line x1="100.000000" y1="306.000000" x2="116.000000" y2="306.000000"  style="stroke:black; stroke-linecap:round; stroke-width:0.25;"/>
<line x1="108.000000" y1="142.000000" x2="116.000000" y2="142.000000"  style="stroke:black; stroke-linecap:round; stroke-width:0.25;"/>
<line x1="108.000000" y1="200.000000" x2="108.000000" y2="142.000000"  style="stroke:black; stroke-linecap:round; stroke-width:0.25;"/>
<line x1="108.000000" y1="216.000000" x2="108.000000" y2="286.000000"  style="stroke:black; stroke-linecap:round; stroke-width:0.25;"/>
<line x1="108.000000" y1="286.000000" x2="116.000000" y2="286.000000"  style="stroke:black; stroke-linecap:round; stroke-width:0.25;"/>
<line x1="116.000000" y1="36.000000" x2="263.150000" y2="36.000000"  style="stroke:black; stroke-linecap:round; stroke-width:0.25;"/>
<line x1="116.000000" y1="56.000000" x2="259.150000" y2="56.000000"  style="stroke:black; stroke-linecap:round; stroke-width:0.25;"/>
<line x1="116.000000" y1="220.000000" x2="259.150000" y2="220.000000"  style="stroke:black; stroke-linecap:round; stroke-width:0.25;"/>
<line x1="116.000000" y1="122.000000" x2="132.000000" y2="122.000000"  style="stroke:black; stroke-linecap:round; stroke-width:0.25;"/>
<line x1="116.000000" y1="142.000000" x2="116.000000" y2="142.000000"  style="stroke:black; stroke-linecap:round; stroke-width:0.25;"/>
<line x1="116.000000" y1="142.000000" x2="120.000000" y2="142.000000"  style="stroke:black; stroke-linecap:round; stroke-width:0.25;"/>
<line x1="116.000000" y1="208.000000" x2="116.000000" y2="220.000000"  style="stroke:black; stroke-linecap:round; stroke-width:0.25;"/>
<line x1="116.000000" y1="220.000000" x2="116.000000" y2="220.000000"  style="stroke:black; stroke-linecap:round; stroke-width:0.25;"/>
<line x1="116.000000" y1="286.000000" x2="132.000000" y2="286.000000"  style="stroke:black; stroke-linecap:round; stroke-width:0.25;"/>
<line x1="116.000000" y1="306.000000" x2="116.000000" y2="306.000000"  style="stroke:black; stroke-linecap:round; stroke-width:0.25;"/>
<line x1="116.000000" y1="306.000000" x2="120.000000" y2="306.000000"  style="stroke:black; stroke-linecap:round; stroke-width:0.25;"/>
<line x1="132.000000" y1="122.000000" x2="148.000000" y2="122.000000"  style="stroke:black; stroke-linecap:round; stroke-width:0.25;"/>
<line x1="132.000000" y1="286.000000" x2="148.000000" y2="286.000000"  style="stroke:black; stroke-linecap:round; stroke-width:0.25;"/>
<line x1="144.000000" y1="142.000000" x2="148.000000" y2="142.000000"  style="stroke:black; stroke-linecap:round; stroke-width:0.25;"/>
<line x1="144.000000" y1="306.000000" x2="148.000000" y2="306.000000"  style="stroke:black; stroke-linecap:round; stroke-width:0.25;"/>
<line x1="148.000000" y1="122.000000" x2="156.000000" y2="122.000000"  style="stroke:black; stroke-linecap:round; stroke-width:0.25;"/>
<line x1="148.000000" y1="142.000000" x2="156.000000" y2="142.000000"  style="stroke:black; stroke-linecap:round; stroke-width:0.25;"/>
<line x1="148.000000" y1="286.000000" x2="156.000000" y2="286.000000"  style="stroke:black; stroke-linecap:round; stroke-width:0.25;"/>
<line x1="148.000000" y1="306.000000" x2="156.000000" y2="306.000000"  style="stroke:black; stroke-linecap:round; stroke-width:0.25;"/>
<line x1="156.000000" y1="122.000000" x2="166.000000" y2="122.000000"  style="stroke:black; stroke-linecap:round; stroke-width:0.25;"/>
<line x1="156.000000" y1="142.000000" x2="156.000000" y2="154.000000"  style="stroke:black; stroke-linecap:round; stroke-width:0.25;"/>
<line x1="156.000000" y1="154.000000" x2="156.000000" y2="154.000000"  style="stroke:black; stroke-linecap:round; stroke-width:0.25;"/>
<line x1="156.000000" y1="154.000000" x2="166.000000" y2="154.000000"  style="stroke:black; stroke-linecap:round; stroke-width:0.25;"/>
<line x1="156.000000" y1="286.000000" x2="166.000000" y2="286.000000"  style="stroke:black; stroke-linecap:round; stroke-width:0.25;"/>
<line x1="156.000000" y1="306.000000" x2="156.000000" y2="318.000000"  style="stroke:black; stroke-linecap:round; stroke-width:0.25;"/>
<line x1="156.000000" y1="318.000000" x2="156.000000" y2="318.000000"  style="stroke:black; stroke-linecap:round; stroke-width:0.25;"/>
<line x1="156.000000" y1="318.000000" x2="166.000000" y2="318.000000"  style="stroke:black; stroke-linecap:round; stroke-width:0.25;"/>
<line x1="166.000000" y1="122.000000" x2="170.000000" y2="122.000000"  style="stroke:black; stroke-linecap:round; stroke-width:0.25;"/>
<line x1="166.000000" y1="154.000000" x2="170.000000" y2="154.000000"  style="stroke:black; stroke-linecap:round; stroke-width:0.25;"/>
<line x1="166.000000" y1="286.000000" x2="170.000000" y2="286.000000"  style="stroke:black; stroke-linecap:round; stroke-width:0.25;"/>
<line x1="166.000000" y1="318.000000" x2="170.000000" y2="318.000000"  style="stroke:black; stroke-linecap:round; stroke-width:0.25;"/>
<line x1="259.150000" y1="56.000000" x2="402.300000" y2="56.000000"  style="stroke:black; stroke-linecap:round; stroke-width:0.25;"/>
<line x1="259.150000" y1="220.000000" x2="402.300000" y2="220.000000"  style="stroke:black; stroke-linecap:round; stroke-width:0.25;"/>
<line x1="263.150000" y1="36.000000" x2="267.150000" y2="36.000000"  style="stroke:black; stroke-linecap:round; stroke-width:0.25;"/>
<line x1="268.950000" y1="128.000000" x2="272.950000" y2="128.000000"  style="stroke:black; stroke-linecap:round; stroke-width:0.25;"/>
<line x1="268.950000" y1="292.000000" x2="272.950000" y2="292.000000"  style="stroke:black; stroke-linecap:round; stroke-width:0.25;"/>
<line x1="272.950000" y1="128.000000" x2="302.300000" y2="128.000000"  style="stroke:black; stroke-linecap:round; stroke-width:0.25;"/>
<line x1="272.950000" y1="292.000000" x2="302.300000" y2="292.000000"  style="stroke:black; stroke-linecap:round; stroke-width:0.25;"/>
<line x1="288.300000" y1="170.000000" x2="292.300000" y2="170.000000"  style="stroke:black; stroke-linecap:round; stroke-width:0.25;"/>
<line x1="288.300000" y1="334.000000" x2="292.300000" y2="334.000000"  style="stroke:black; stroke-linecap:round; stroke-width:0.25;"/>
<line x1="288.950000" y1="96.000000" x2="292.950000" y2="96.000000"  style="stroke:black; stroke-linecap:round; stroke-width:0.25;"/>
<line x1="288.950000" y1="260.000000" x2="292.950000" y2="260.000000"  style="stroke:black; stroke-linecap:round; stroke-width:0.25;"/>
<line x1="291.150000" y1="36.000000" x2="295.150000" y2="36.000000"  style="stroke:black; stroke-linecap:round; stroke-width:0.25;"/>
<line x1="292.300000" y1="170.000000" x2="302.300000" y2="170.000000"  style="stroke:black; stroke-linecap:round; stroke-width:0.25;"/>
<line x1="292.300000" y1="334.000000" x2="302.300000" y2="334.000000"  style="stroke:black; stroke-linecap:round; stroke-width:0.25;"/>
<line x1="292.950000" y1="96.000000" x2="342.300000" y2="96.000000"  style="stroke:black; stroke-linecap:round; stroke-width:0.25;"/>
<line x1="292.950000" y1="260.000000" x2="342.300000" y2="260.000000"  style="stroke:black; stroke-linecap:round; stroke-width:0.25;"/>
<line x1="295.150000" y1="36.000000" x2="442.300000" y2="36.000000"  style="stroke:black; stroke-linecap:round; stroke-width:0.25;"/>
<line x1="302.300000" y1="128.000000" x2="310.300000" y2="128.000000"  style="stroke:black; stroke-linecap:round; stroke-width:0.25;"/>
<line x1="302.300000" y1="158.000000" x2="310.300000" y2="158.000000"  style="stroke:black; stroke-linecap:round; stroke-width:0.25;"/>
<line x1="302.300000" y1="170.000000" x2="302.300000" y2="158.000000"  style="stroke:black; stroke-linecap:round; stroke-width:0.25;"/>
<line x1="302.300000" y1="170.000000" x2="302.300000" y2="170.000000"  style="stroke:black; stroke-linecap:round; stroke-width:0.25;"/>
<line x1="302.300000" y1="292.000000" x2="310.300000" y2="292.000000"  style="stroke:black; stroke-linecap:round; stroke-width:0.25;"/>
<line x1="302.300000" y1="322.000000" x2="310.300000" y2="322.000000"  style="stroke:black; stroke-linecap:round; stroke-width:0.25;"/>
<line x1="302.300000" y1="334.000000" x2="302.300000" y2="322.000000"  style="stroke:black; stroke-linecap:round; stroke-width:0.25;"/>
<line x1="302.300000" y1="334.000000" x2="302.300000" y2="334.000000"  style="stroke:black; stroke-linecap:round; stroke-width:0.25;"/>
<line x1="310.300000" y1="128.000000" x2="310.300000" y2="150.000000"  style="stroke:black; stroke-linecap:round; stroke-width:0.25;"/>
<line x1="310.300000" y1="150.000000" x2="310.300000" y2="150.000000"  style="stroke:black; stroke-linecap:round; stroke-width:0.25;"/>
<line x1="310.300000" y1="150.000000" x2="314.300000" y2="150.000000"  style="stroke:black; stroke-linecap:round; stroke-width:0.25;"/>
<line x1="310.300000" y1="158.000000" x2="314.300000" y2="158.000000"  style="stroke:black; stroke-linecap:round; stroke-width:0.25;"/>
<line x1="310.300000" y1="292.000000" x2="310.300000" y2="314.000000"  style="stroke:black; stroke-linecap:round; stroke-width:0.25;"/>
<line x1="310.300000" y1="314.000000" x2="310.300000" y2="314.000000"  style="stroke:black; stroke-linecap:round; stroke-width:0.25;"/>
<line x1="310.300000" y1="314.000000" x2="314.300000" y2="314.000000"  style="stroke:black; stroke-linecap:round; stroke-width:0.25;"/>
<line x1="310.300000" y1="322.000000" x2="314.300000" y2="322.000000"  style="stroke:black; stroke-linecap:round; stroke-width:0.25;"/>
<line x1="338.300000" y1="154.000000" x2="342.300000" y2="154.000000"  style="stroke:black; stroke-linecap:round; stroke-width:0.25;"/>
<line x1="338.300000" y1="318.000000" x2="342.300000" y2="318.000000"  style="stroke:black; stroke-linecap:round; stroke-width:0.25;"/>
<line x1="342.300000" y1="142.000000" x2="350.300000" y2="142.000000"  style="stroke:black; stroke-linecap:round; stroke-width:0.25;"/>
<line x1="342.300000" y1="154.000000" x2="342.300000" y2="142.000000"  style="stroke:black; stroke-linecap:round; stroke-width:0.25;"/>
<line x1="342.300000" y1="154.000000" x2="342.300000" y2="154.000000"  style="stroke:black; stroke-linecap:round; stroke-width:0.25;"/>
<line x1="342.300000" y1="306.000000" x2="350.300000" y2="306.000000"  style="stroke:black; stroke-linecap:round; stroke-width:0.25;"/>
<line x1="342.300000" y1="318.000000" x2="342.300000" y2="306.000000"  style="stroke:black; stroke-linecap:round; stroke-width:0.25;"/>
<line x1="342.300000" y1="318.000000" x2="342.300000" y2="318.000000"  style="stroke:black; stroke-linecap:round; stroke-width:0.25;"/>
<line x1="342.300000" y1="96.000000" x2="350.300000" y2="96.000000"  style="stroke:black; stroke-linecap:round; stroke-width:0.25;"/>
<line x1="342.300000" y1="260.000000" x2="350.300000" y2="260.000000"  style="stroke:black; stroke-linecap:round; stroke-width:0.25;"/>
<line x1="350.300000" y1="134.000000" x2="354.300000" y2="134.000000"  style="stroke:black; stroke-linecap:round; stroke-width:0.25;"/>
<line x1="350.300000" y1="142.000000" x2="354.300000" y2="142.000000"  style="stroke:black; stroke-linecap:round; stroke-width:0.25;"/>
<line x1="350.300000" y1="298.000000" x2="354.300000" y2="298.000000"  style="stroke:black; stroke-linecap:round; stroke-width:0.25;"/>
<line x1="350.300000" y1="306.000000" x2="354.300000" y2="306.000000"  style="stroke:black; stroke-linecap:round; stroke-width:0.25;"/>
<line x1="350.300000" y1="96.000000" x2="350.300000" y2="134.000000"  style="stroke:black; stroke-linecap:round; stroke-width:0.25;"/>
<line x1="350.300000" y1="134.000000" x2="350.300000" y2="134.000000"  style="stroke:black; stroke-linecap:round; stroke-width:0.25;"/>
<line x1="350.300000" y1="260.000000" x2="350.300000" y2="298.000000"  style="stroke:black; stroke-linecap:round; stroke-width:0.25;"/>
<line x1="350.300000" y1="298.000000" x2="350.300000" y2="298.000000"  style="stroke:black; stroke-linecap:round; stroke-width:0.25;"/>
<line x1="378.300000" y1="138.000000" x2="382.300000" y2="138.000000"  style="stroke:black; stroke-linecap:round; stroke-width:0.25;"/>
<line x1="378.300000" y1="302.000000" x2="382.300000" y2="302.000000"  style="stroke:black; stroke-linecap:round; stroke-width:0.25;"/>
<line x1="382.300000" y1="138.000000" x2="392.300000" y2="138.000000"  style="stroke:black; stroke-linecap:round; stroke-width:0.25;"/>
<line x1="382.300000" y1="302.000000" x2="392.300000" y2="302.000000"  style="stroke:black; stroke-linecap:round; stroke-width:0.25;"/>
<line x1="392.300000" y1="138.000000" x2="402.300000" y2="138.000000"  style="stroke:black; stroke-linecap:round; stroke-width:0.25;"/>
<line x1="392.300000" y1="302.000000" x2="402.300000" y2="302.000000"  style="stroke:black; stroke-linecap:round; stroke-width:0.25;"/>
<line x1="402.300000" y1="56.000000" x2="410.300000" y2="56.000000"  style="stroke:black; stroke-linecap:round; stroke-width:0.25;"/>
<line x1="402.300000" y1="220.000000" x2="410.300000" y2="220.000000"  style="stroke:black; stroke-linecap:round; stroke-width:0.25;"/>
<line x1="402.300000" y1="138.000000" x2="410.300000" y2="138.000000"  style="stroke:black; stroke-linecap:round; stroke-width:0.25;"/>
<line x1="402.300000" y1="302.000000" x2="410.300000" y2="302.000000"  style="stroke:black; stroke-linecap:round; stroke-width:0.25;"/>
<line x1="410.300000" y1="56.000000" x2="410.300000" y2="130.000000"  style="stroke:black; stroke-linecap:round; stroke-width:0.25;"/>
<line x1="410.300000" y1="130.000000" x2="410.300000" y2="130.000000"  style="stroke:black; stroke-linecap:round; stroke-width:0.25;"/>
<line x1="410.300000" y1="220.000000" x2="410.300000" y2="294.000000"  style="stroke:black; stroke-linecap:round; stroke-width:0.25;"/>
<line x1="410.300000" y1="294.000000" x2="410.300000" y2="294.000000"  style="stroke:black; stroke-linecap:round; stroke-width:0.25;"/>
<line x1="410.300000" y1="130.000000" x2="414.300000" y2="130.000000"  style="stroke:black; stroke-linecap:round; stroke-width:0.25;"/>
<line x1="410.300000" y1="138.000000" x2="414.300000" y2="138.000000"  style="stroke:black; stroke-linecap:round; stroke-width:0.25;"/>
<line x1="410.300000" y1="294.000000" x2="414.300000" y2="294.000000"  style="stroke:black; stroke-linecap:round; stroke-width:0.25;"/>
<line x1="410.300000" y1="302.000000" x2="414.300000" y2="302.000000"  style="stroke:black; stroke-linecap:round; stroke-width:0.25;"/>
<line x1="438.300000" y1="134.000000" x2="442.300000" y2="134.000000"  style="stroke:black; stroke-linecap:round; stroke-width:0.25;"/>
<line x1="438.300000" y1="298.000000" x2="442.300000" y2="298.000000"  style="stroke:black; stroke-linecap:round; stroke-width:0.25;"/>
<line x1="442.300000" y1="36.000000" x2="458.300000" y2="36.000000"  style="stroke:black; stroke-linecap:round; stroke-width:0.25;"/>
<line x1="442.300000" y1="134.000000" x2="450.300000" y2="134.000000"  style="stroke:black; stroke-linecap:round; stroke-width:0.25;"/>
<line x1="442.300000" y1="208.000000" x2="458.300000" y2="208.000000"  style="stroke:black; stroke-linecap:round; stroke-width:0.25;"/>
<line x1="442.300000" y1="298.000000" x2="442.300000" y2="208.000000"  style="stroke:black; stroke-linecap:round; stroke-width:0.25;"/>
<line x1="442.300000" y1="298.000000" x2="442.300000" y2="298.000000"  style="stroke:black; stroke-linecap:round; stroke-width:0.25;"/>
<line x1="450.300000" y1="134.000000" x2="450.300000" y2="200.000000"  style="stroke:black; stroke-linecap:round; stroke-width:0.25;"/>
<line x1="450.300000" y1="200.000000" x2="458.300000" y2="200.000000"  style="stroke:black; stroke-linecap:round; stroke-width:0.25;"/>
<line x1="458.300000" y1="36.000000" x2="458.300000" y2="192.000000"  style="stroke:black; stroke-linecap:round; stroke-width:0.25;"/>
<line x1="458.300000" y1="192.000000" x2="458.300000" y2="192.000000"  style="stroke:black; stroke-linecap:round; stroke-width:0.25;"/>
<line x1="458.300000" y1="192.000000" x2="462.300000" y2="192.000000"  style="stroke:black; stroke-linecap:round; stroke-width:0.25;"/>
<line x1="458.300000" y1="200.000000" x2="462.300000" y2="200.000000"  style="stroke:black; stroke-linecap:round; stroke-width:0.25;"/>
<line x1="458.300000" y1="208.000000" x2="462.300000" y2="208.000000"  style="stroke:black; stroke-linecap:round; stroke-width:0.25;"/>
<line x1="462.300000" y1="192.000000" x2="466.300000" y2="192.000000"  style="stroke:black; stroke-linecap:round; stroke-width:0.25;"/>
<line x1="462.300000" y1="200.000000" x2="466.300000" y2="200.000000"  style="stroke:black; stroke-linecap:round; stroke-width:0.25;"/>
<line x1="462.300000" y1="208.000000" x2="466.300000" y2="208.000000"  style="stroke:black; stroke-linecap:round; stroke-width:0.25;"/>
<line x1="466.300000" y1="192.000000" x2="476.300000" y2="192.000000"  style="stroke:black; stroke-linecap:round; stroke-width:0.25;"/>
<line x1="466.300000" y1="200.000000" x2="476.300000" y2="200.000000"  style="stroke:black; stroke-linecap:round; stroke-width:0.25;"/>
<line x1="466.300000" y1="208.000000" x2="476.300000" y2="208.000000"  style="stroke:black; stroke-linecap:round; stroke-width:0.25;"/>
</svg>
