<?xml version="1.0"?>
<svg xmlns="http://www.w3.org/2000/svg" xmlns:xlink="http://www.w3.org/1999/xlink" viewBox="0 0 419.300000 120.080000" width="209.650000mm" height="60.040000mm" version="1.1">
<rect x="1.000000" y="1.000000" width="418.300000" height="119.080000" rx="0" ry="0" style="stroke:none;fill:#cccccc;"/>
<rect x="0.000000" y="0.000000" width="418.300000" height="119.080000" rx="0" ry="0" style="stroke:none;fill:#ffffff;"/>
<text x="10.000000" y="7.000000" font-family="Arial" font-size="7"></text>
<a xlink:href="fc-0x734d644891f0.svg">
<rect x="81.000000" y="49.080000" width="167.700000" height="48.000000" rx="0" ry="0" style="stroke:none;fill:#cccccc;"/>
<rect x="80.000000" y="48.080000" width="167.700000" height="48.000000" rx="0" ry="0" style="stroke:none;fill:#003366;"/>
</a>
<a xlink:href="fc-0x734d644891f0.svg">
<text x="163.850000" y="74.080000" font-family="Arial" font-size="7" text-anchor="middle" fill="#FFFFFF">fc(1)(2)(clos...ER13[nil]]}])(1e-07f)</text>
</a>
<circle cx="82.000000" cy="50.080000" r="1"/>
<line x1="77.000000" y1="55.080000" x2="80.000000" y2="56.080000"  transform="rotate(0.000000,80.000000,56.080000)" style="stroke: black; stroke-width:0.25;"/>
<line x1="77.000000" y1="57.080000" x2="80.000000" y2="56.080000"  transform="rotate(0.000000,80.000000,56.080000)" style="stroke: black; stroke-width:0.25;"/>
<line x1="77.000000" y1="63.080000" x2="80.000000" y2="64.080000"  transform="rotate(0.000000,80.000000,64.080000)" style="stroke: black; stroke-width:0.25;"/>
<line x1="77.000000" y1="65.080000" x2="80.000000" y2="64.080000"  transform="rotate(0.000000,80.000000,64.080000)" style="stroke: black; stroke-width:0.25;"/>
<line x1="77.000000" y1="71.080000" x2="80.000000" y2="72.080000"  transform="rotate(0.000000,80.000000,72.080000)" style="stroke: black; stroke-width:0.25;"/>
<line x1="77.000000" y1="73.080000" x2="80.000000" y2="72.080000"  transform="rotate(0.000000,80.000000,72.080000)" style="stroke: black; stroke-width:0.25;"/>
<line x1="77.000000" y1="79.080000" x2="80.000000" y2="80.080000"  transform="rotate(0.000000,80.000000,80.080000)" style="stroke: black; stroke-width:0.25;"/>
<line x1="77.000000" y1="81.080000" x2="80.000000" y2="80.080000"  transform="rotate(0.000000,80.000000,80.080000)" style="stroke: black; stroke-width:0.25;"/>
<line x1="77.000000" y1="87.080000" x2="80.000000" y2="88.080000"  transform="rotate(0.000000,80.000000,88.080000)" style="stroke: black; stroke-width:0.25;"/>
<line x1="77.000000" y1="89.080000" x2="80.000000" y2="88.080000"  transform="rotate(0.000000,80.000000,88.080000)" style="stroke: black; stroke-width:0.25;"/>
<a xlink:href="L1-0x734d647df080.svg">
<rect x="256.700000" y="49.080000" width="51.600000" height="48.000000" rx="0" ry="0" style="stroke:none;fill:#cccccc;"/>
<rect x="255.700000" y="48.080000" width="51.600000" height="48.000000" rx="0" ry="0" style="stroke:none;fill:#003366;"/>
</a>
<a xlink:href="L1-0x734d647df080.svg">
<text x="281.500000" y="74.080000" font-family="Arial" font-size="7" text-anchor="middle" fill="#FFFFFF">L1(8)(1)(2)</text>
</a>
<circle cx="257.700000" cy="50.080000" r="1"/>
<line x1="252.700000" y1="51.080000" x2="255.700000" y2="52.080000"  transform="rotate(0.000000,255.700000,52.080000)" style="stroke: black; stroke-width:0.25;"/>
<line x1="252.700000" y1="53.080000" x2="255.700000" y2="52.080000"  transform="rotate(0.000000,255.700000,52.080000)" style="stroke: black; stroke-width:0.25;"/>
<line x1="252.700000" y1="59.080000" x2="255.700000" y2="60.080000"  transform="rotate(0.000000,255.700000,60.080000)" style="stroke: black; stroke-width:0.25;"/>
<line x1="252.700000" y1="61.080000" x2="255.700000" y2="60.080000"  transform="rotate(0.000000,255.700000,60.080000)" style="stroke: black; stroke-width:0.25;"/>
<line x1="252.700000" y1="67.080000" x2="255.700000" y2="68.080000"  transform="rotate(0.000000,255.700000,68.080000)" style="stroke: black; stroke-width:0.25;"/>
<line x1="252.700000" y1="69.080000" x2="255.700000" y2="68.080000"  transform="rotate(0.000000,255.700000,68.080000)" style="stroke: black; stroke-width:0.25;"/>
<line x1="252.700000" y1="75.080000" x2="255.700000" y2="76.080000"  transform="rotate(0.000000,255.700000,76.080000)" style="stroke: black; stroke-width:0.25;"/>
<line x1="252.700000" y1="77.080000" x2="255.700000" y2="76.080000"  transform="rotate(0.000000,255.700000,76.080000)" style="stroke: black; stroke-width:0.25;"/>
<line x1="252.700000" y1="83.080000" x2="255.700000" y2="84.080000"  transform="rotate(0.000000,255.700000,84.080000)" style="stroke: black; stroke-width:0.25;"/>
<line x1="252.700000" y1="85.080000" x2="255.700000" y2="84.080000"  transform="rotate(0.000000,255.700000,84.080000)" style="stroke: black; stroke-width:0.25;"/>
<line x1="252.700000" y1="91.080000" x2="255.700000" y2="92.080000"  transform="rotate(0.000000,255.700000,92.080000)" style="stroke: black; stroke-width:0.25;"/>
<line x1="252.700000" y1="93.080000" x2="255.700000" y2="92.080000"  transform="rotate(0.000000,255.700000,92.080000)" style="stroke: black; stroke-width:0.25;"/>
<line x1="309.300000" y1="52.080000" x2="309.300000" y2="48.080000"  style="stroke:black; stroke-linecap:round; stroke-width:0.25;"/>
<line x1="309.300000" y1="48.080000" x2="313.300000" y2="48.080000"  style="stroke:black; stroke-linecap:round; stroke-width:0.25;"/>
<line x1="313.300000" y1="48.080000" x2="313.300000" y2="52.080000"  style="stroke:black; stroke-linecap:round; stroke-width:0.25;"/>
<line x1="317.300000" y1="60.080000" x2="317.300000" y2="56.080000"  style="stroke:black; stroke-linecap:round; stroke-width:0.25;"/>
<line x1="317.300000" y1="56.080000" x2="321.300000" y2="56.080000"  style="stroke:black; stroke-linecap:round; stroke-width:0.25;"/>
<line x1="321.300000" y1="56.080000" x2="321.300000" y2="60.080000"  style="stroke:black; stroke-linecap:round; stroke-width:0.25;"/>
<line x1="325.300000" y1="68.080000" x2="325.300000" y2="64.080000"  style="stroke:black; stroke-linecap:round; stroke-width:0.25;"/>
<line x1="325.300000" y1="64.080000" x2="329.300000" y2="64.080000"  style="stroke:black; stroke-linecap:round; stroke-width:0.25;"/>
<line x1="329.300000" y1="64.080000" x2="329.300000" y2="68.080000"  style="stroke:black; stroke-linecap:round; stroke-width:0.25;"/>
<line x1="333.300000" y1="76.080000" x2="333.300000" y2="72.080000"  style="stroke:black; stroke-linecap:round; stroke-width:0.25;"/>
<line x1="333.300000" y1="72.080000" x2="337.300000" y2="72.080000"  style="stroke:black; stroke-linecap:round; stroke-width:0.25;"/>
<line x1="337.300000" y1="72.080000" x2="337.300000" y2="76.080000"  style="stroke:black; stroke-linecap:round; stroke-width:0.25;"/>
<line x1="15.000000" y1="15.000000" x2="15.000000" y2="105.080000"  style="stroke: black; stroke-linecap:round; stroke-width:0.25; stroke-dasharray:3,3;"/>
<line x1="15.000000" y1="105.080000" x2="404.300000" y2="105.080000"  style="stroke: black; stroke-linecap:round; stroke-width:0.25; stroke-dasharray:3,3;"/>
<line x1="404.300000" y1="105.080000" x2="404.300000" y2="15.000000"  style="stroke: black; stroke-linecap:round; stroke-width:0.25; stroke-dasharray:3,3;"/>
<line x1="15.000000" y1="15.000000" x2="20.000000" y2="15.000000"  style="stroke: black; stroke-linecap:round; stroke-width:0.25; stroke-dasharray:3,3;"/>
<line x1="49.025000" y1="15.000000" x2="404.300000" y2="15.000000"  style="stroke: black; stroke-linecap:round; stroke-width:0.25; stroke-dasharray:3,3;"/>
<text x="20.000000" y="17.000000" font-family="Arial" font-size="7">process</text>
<line x1="406.300000" y1="39.040000" x2="409.300000" y2="40.040000"  transform="rotate(0.000000,409.300000,40.040000)" style="stroke: black; stroke-width:0.25;"/>
<line x1="406.300000" y1="41.040000" x2="409.300000" y2="40.040000"  transform="rotate(0.000000,409.300000,40.040000)" style="stroke: black; stroke-width:0.25;"/>
<line x1="406.300000" y1="47.040000" x2="409.300000" y2="48.040000"  transform="rotate(0.000000,409.300000,48.040000)" style="stroke: black; stroke-width:0.25;"/>
<line x1="406.300000" y1="49.040000" x2="409.300000" y2="48.040000"  transform="rotate(0.000000,409.300000,48.040000)" style="stroke: black; stroke-width:0.25;"/>
<line x1="406.300000" y1="55.040000" x2="409.300000" y2="56.040000"  transform="rotate(0.000000,409.300000,56.040000)" style="stroke: black; stroke-width:0.25;"/>
<line x1="406.300000" y1="57.040000" x2="409.300000" y2="56.040000"  transform="rotate(0.000000,409.300000,56.040000)" style="stroke: black; stroke-width:0.25;"/>
<line x1="406.300000" y1="63.040000" x2="409.300000" y2="64.040000"  transform="rotate(0.000000,409.300000,64.040000)" style="stroke: black; stroke-width:0.25;"/>
<line x1="406.300000" y1="65.040000" x2="409.300000" y2="64.040000"  transform="rotate(0.000000,409.300000,64.040000)" style="stroke: black; stroke-width:0.25;"/>
<line x1="406.300000" y1="71.040000" x2="409.300000" y2="72.040000"  transform="rotate(0.000000,409.300000,72.040000)" style="stroke: black; stroke-width:0.25;"/>
<line x1="406.300000" y1="73.040000" x2="409.300000" y2="72.040000"  transform="rotate(0.000000,409.300000,72.040000)" style="stroke: black; stroke-width:0.25;"/>
<line x1="406.300000" y1="79.040000" x2="409.300000" y2="80.040000"  transform="rotate(0.000000,409.300000,80.040000)" style="stroke: black; stroke-width:0.25;"/>
<line x1="406.300000" y1="81.040000" x2="409.300000" y2="80.040000"  transform="rotate(0.000000,409.300000,80.040000)" style="stroke: black; stroke-width:0.25;"/>
<line x1="10.000000" y1="56.040000" x2="20.000000" y2="56.040000"  style="stroke:black; stroke-linecap:round; stroke-width:0.25;"/>
<line x1="10.000000" y1="64.040000" x2="20.000000" y2="64.040000"  style="stroke:black; stroke-linecap:round; stroke-width:0.25;"/>
<line x1="20.000000" y1="56.040000" x2="24.000000" y2="56.040000"  style="stroke:black; stroke-linecap:round; stroke-width:0.25;"/>
<line x1="20.000000" y1="64.040000" x2="24.000000" y2="64.040000"  style="stroke:black; stroke-linecap:round; stroke-width:0.25;"/>
<line x1="24.000000" y1="56.040000" x2="28.000000" y2="56.040000"  style="stroke:black; stroke-linecap:round; stroke-width:0.25;"/>
<line x1="24.000000" y1="64.040000" x2="28.000000" y2="64.040000"  style="stroke:black; stroke-linecap:round; stroke-width:0.25;"/>
<line x1="28.000000" y1="56.040000" x2="28.000000" y2="56.040000"  style="stroke:black; stroke-linecap:round; stroke-width:0.25;"/>
<line x1="28.000000" y1="56.040000" x2="44.000000" y2="56.040000"  style="stroke:black; stroke-linecap:round; stroke-width:0.25;"/>
<line x1="28.000000" y1="64.040000" x2="28.000000" y2="64.040000"  style="stroke:black; stroke-linecap:round; stroke-width:0.25;"/>
<line x1="28.000000" y1="64.040000" x2="36.000000" y2="64.040000"  style="stroke:black; stroke-linecap:round; stroke-width:0.25;"/>
<line x1="36.000000" y1="64.040000" x2="36.000000" y2="88.080000"  style="stroke:black; stroke-linecap:round; stroke-width:0.25;"/>
<line x1="36.000000" y1="88.080000" x2="44.000000" y2="88.080000"  style="stroke:black; stroke-linecap:round; stroke-width:0.25;"/>
<line x1="44.000000" y1="56.040000" x2="44.000000" y2="80.080000"  style="stroke:black; stroke-linecap:round; stroke-width:0.25;"/>
<line x1="44.000000" y1="80.080000" x2="44.000000" y2="80.080000"  style="stroke:black; stroke-linecap:round; stroke-width:0.25;"/>
<line x1="44.000000" y1="80.080000" x2="76.000000" y2="80.080000"  style="stroke:black; stroke-linecap:round; stroke-width:0.25;"/>
<line x1="44.000000" y1="88.080000" x2="76.000000" y2="88.080000"  style="stroke:black; stroke-linecap:round; stroke-width:0.25;"/>
<line x1="60.000000" y1="24.000000" x2="60.000000" y2="72.080000"  style="stroke:black; stroke-linecap:round; stroke-width:0.25;"/>
<line x1="60.000000" y1="72.080000" x2="76.000000" y2="72.080000"  style="stroke:black; stroke-linecap:round; stroke-width:0.25;"/>
<line x1="68.000000" y1="32.000000" x2="68.000000" y2="64.080000"  style="stroke:black; stroke-linecap:round; stroke-width:0.25;"/>
<line x1="68.000000" y1="64.080000" x2="76.000000" y2="64.080000"  style="stroke:black; stroke-linecap:round; stroke-width:0.25;"/>
<line x1="76.000000" y1="24.000000" x2="60.000000" y2="24.000000"  style="stroke:black; stroke-linecap:round; stroke-width:0.25;"/>
<line x1="76.000000" y1="32.000000" x2="68.000000" y2="32.000000"  style="stroke:black; stroke-linecap:round; stroke-width:0.25;"/>
<line x1="76.000000" y1="40.000000" x2="76.000000" y2="40.000000"  style="stroke:black; stroke-linecap:round; stroke-width:0.25;"/>
<line x1="76.000000" y1="40.000000" x2="76.000000" y2="56.080000"  style="stroke:black; stroke-linecap:round; stroke-width:0.25;"/>
<line x1="76.000000" y1="56.080000" x2="76.000000" y2="56.080000"  style="stroke:black; stroke-linecap:round; stroke-width:0.25;"/>
<line x1="76.000000" y1="56.080000" x2="80.000000" y2="56.080000"  style="stroke:black; stroke-linecap:round; stroke-width:0.25;"/>
<line x1="76.000000" y1="64.080000" x2="80.000000" y2="64.080000"  style="stroke:black; stroke-linecap:round; stroke-width:0.25;"/>
<line x1="76.000000" y1="72.080000" x2="80.000000" y2="72.080000"  style="stroke:black; stroke-linecap:round; stroke-width:0.25;"/>
<line x1="76.000000" y1="80.080000" x2="80.000000" y2="80.080000"  style="stroke:black; stroke-linecap:round; stroke-width:0.25;"/>
<line x1="76.000000" y1="88.080000" x2="80.000000" y2="88.080000"  style="stroke:black; stroke-linecap:round; stroke-width:0.25;"/>
<line x1="193.650000" y1="24.000000" x2="76.000000" y2="24.000000"  style="stroke:black; stroke-linecap:round; stroke-width:0.25;"/>
<line x1="193.650000" y1="32.000000" x2="76.000000" y2="32.000000"  style="stroke:black; stroke-linecap:round; stroke-width:0.25;"/>
<line x1="193.650000" y1="40.000000" x2="76.000000" y2="40.000000"  style="stroke:black; stroke-linecap:round; stroke-width:0.25;"/>
<line x1="247.700000" y1="52.080000" x2="251.700000" y2="52.080000"  style="stroke:black; stroke-linecap:round; stroke-width:0.25;"/>
<line x1="247.700000" y1="60.080000" x2="251.700000" y2="60.080000"  style="stroke:black; stroke-linecap:round; stroke-width:0.25;"/>
<line x1="247.700000" y1="68.080000" x2="251.700000" y2="68.080000"  style="stroke:black; stroke-linecap:round; stroke-width:0.25;"/>
<line x1="247.700000" y1="76.080000" x2="251.700000" y2="76.080000"  style="stroke:black; stroke-linecap:round; stroke-width:0.25;"/>
<line x1="247.700000" y1="84.080000" x2="251.700000" y2="84.080000"  style="stroke:black; stroke-linecap:round; stroke-width:0.25;"/>
<line x1="247.700000" y1="92.080000" x2="251.700000" y2="92.080000"  style="stroke:black; stroke-linecap:round; stroke-width:0.25;"/>
<line x1="251.700000" y1="52.080000" x2="251.700000" y2="52.080000"  style="stroke:black; stroke-linecap:round; stroke-width:0.25;"/>
<line x1="251.700000" y1="52.080000" x2="255.700000" y2="52.080000"  style="stroke:black; stroke-linecap:round; stroke-width:0.25;"/>
<line x1="251.700000" y1="60.080000" x2="251.700000" y2="60.080000"  style="stroke:black; stroke-linecap:round; stroke-width:0.25;"/>
<line x1="251.700000" y1="60.080000" x2="255.700000" y2="60.080000"  style="stroke:black; stroke-linecap:round; stroke-width:0.25;"/>
<line x1="251.700000" y1="68.080000" x2="251.700000" y2="68.080000"  style="stroke:black; stroke-linecap:round; stroke-width:0.25;"/>
<line x1="251.700000" y1="68.080000" x2="255.700000" y2="68.080000"  style="stroke:black; stroke-linecap:round; stroke-width:0.25;"/>
<line x1="251.700000" y1="76.080000" x2="251.700000" y2="76.080000"  style="stroke:black; stroke-linecap:round; stroke-width:0.25;"/>
<line x1="251.700000" y1="76.080000" x2="255.700000" y2="76.080000"  style="stroke:black; stroke-linecap:round; stroke-width:0.25;"/>
<line x1="251.700000" y1="84.080000" x2="251.700000" y2="84.080000"  style="stroke:black; stroke-linecap:round; stroke-width:0.25;"/>
<line x1="251.700000" y1="84.080000" x2="255.700000" y2="84.080000"  style="stroke:black; stroke-linecap:round; stroke-width:0.25;"/>
<line x1="251.700000" y1="92.080000" x2="251.700000" y2="92.080000"  style="stroke:black; stroke-linecap:round; stroke-width:0.25;"/>
<line x1="251.700000" y1="92.080000" x2="255.700000" y2="92.080000"  style="stroke:black; stroke-linecap:round; stroke-width:0.25;"/>
<line x1="307.300000" y1="52.080000" x2="311.300000" y2="52.080000"  style="stroke:black; stroke-linecap:round; stroke-width:0.25;"/>
<line x1="307.300000" y1="60.080000" x2="311.300000" y2="60.080000"  style="stroke:black; stroke-linecap:round; stroke-width:0.25;"/>
<line x1="307.300000" y1="68.080000" x2="311.300000" y2="68.080000"  style="stroke:black; stroke-linecap:round; stroke-width:0.25;"/>
<line x1="307.300000" y1="76.080000" x2="311.300000" y2="76.080000"  style="stroke:black; stroke-linecap:round; stroke-width:0.25;"/>
<line x1="307.300000" y1="84.080000" x2="311.300000" y2="84.080000"  style="stroke:black; stroke-linecap:round; stroke-width:0.25;"/>
<line x1="307.300000" y1="92.080000" x2="311.300000" y2="92.080000"  style="stroke:black; stroke-linecap:round; stroke-width:0.25;"/>
<line x1="311.300000" y1="24.000000" x2="193.650000" y2="24.000000"  style="stroke:black; stroke-linecap:round; stroke-width:0.25;"/>
<line x1="311.300000" y1="32.000000" x2="193.650000" y2="32.000000"  style="stroke:black; stroke-linecap:round; stroke-width:0.25;"/>
<line x1="311.300000" y1="40.000000" x2="193.650000" y2="40.000000"  style="stroke:black; stroke-linecap:round; stroke-width:0.25;"/>
<line x1="311.300000" y1="52.080000" x2="313.300000" y2="52.080000"  style="stroke:black; stroke-linecap:round; stroke-width:0.25;"/>
<line x1="311.300000" y1="60.080000" x2="321.300000" y2="60.080000"  style="stroke:black; stroke-linecap:round; stroke-width:0.25;"/>
<line x1="311.300000" y1="68.080000" x2="329.300000" y2="68.080000"  style="stroke:black; stroke-linecap:round; stroke-width:0.25;"/>
<line x1="311.300000" y1="76.080000" x2="337.300000" y2="76.080000"  style="stroke:black; stroke-linecap:round; stroke-width:0.25;"/>
<line x1="311.300000" y1="84.080000" x2="343.300000" y2="84.080000"  style="stroke:black; stroke-linecap:round; stroke-width:0.25;"/>
<line x1="311.300000" y1="92.080000" x2="343.300000" y2="92.080000"  style="stroke:black; stroke-linecap:round; stroke-width:0.25;"/>
<line x1="313.300000" y1="52.080000" x2="343.300000" y2="52.080000"  style="stroke:black; stroke-linecap:round; stroke-width:0.25;"/>
<line x1="319.300000" y1="40.000000" x2="311.300000" y2="40.000000"  style="stroke:black; stroke-linecap:round; stroke-width:0.25;"/>
<line x1="319.300000" y1="56.080000" x2="319.300000" y2="40.000000"  style="stroke:black; stroke-linecap:round; stroke-width:0.25;"/>
<line x1="321.300000" y1="60.080000" x2="343.300000" y2="60.080000"  style="stroke:black; stroke-linecap:round; stroke-width:0.25;"/>
<line x1="327.300000" y1="32.000000" x2="311.300000" y2="32.000000"  style="stroke:black; stroke-linecap:round; stroke-width:0.25;"/>
<line x1="327.300000" y1="64.080000" x2="327.300000" y2="32.000000"  style="stroke:black; stroke-linecap:round; stroke-width:0.25;"/>
<line x1="329.300000" y1="68.080000" x2="343.300000" y2="68.080000"  style="stroke:black; stroke-linecap:round; stroke-width:0.25;"/>
<line x1="335.300000" y1="24.000000" x2="311.300000" y2="24.000000"  style="stroke:black; stroke-linecap:round; stroke-width:0.25;"/>
<line x1="335.300000" y1="72.080000" x2="335.300000" y2="24.000000"  style="stroke:black; stroke-linecap:round; stroke-width:0.25;"/>
<line x1="337.300000" y1="76.080000" x2="343.300000" y2="76.080000"  style="stroke:black; stroke-linecap:round; stroke-width:0.25;"/>
<line x1="343.300000" y1="40.040000" x2="391.300000" y2="40.040000"  style="stroke:black; stroke-linecap:round; stroke-width:0.25;"/>
<line x1="343.300000" y1="52.080000" x2="343.300000" y2="40.040000"  style="stroke:black; stroke-linecap:round; stroke-width:0.25;"/>
<line x1="343.300000" y1="52.080000" x2="343.300000" y2="52.080000"  style="stroke:black; stroke-linecap:round; stroke-width:0.25;"/>
<line x1="343.300000" y1="60.080000" x2="351.300000" y2="60.080000"  style="stroke:black; stroke-linecap:round; stroke-width:0.25;"/>
<line x1="343.300000" y1="68.080000" x2="359.300000" y2="68.080000"  style="stroke:black; stroke-linecap:round; stroke-width:0.25;"/>
<line x1="343.300000" y1="76.080000" x2="367.300000" y2="76.080000"  style="stroke:black; stroke-linecap:round; stroke-width:0.25;"/>
<line x1="343.300000" y1="84.080000" x2="375.300000" y2="84.080000"  style="stroke:black; stroke-linecap:round; stroke-width:0.25;"/>
<line x1="343.300000" y1="92.080000" x2="383.300000" y2="92.080000"  style="stroke:black; stroke-linecap:round; stroke-width:0.25;"/>
<line x1="351.300000" y1="48.040000" x2="391.300000" y2="48.040000"  style="stroke:black; stroke-linecap:round; stroke-width:0.25;"/>
<line x1="351.300000" y1="60.080000" x2="351.300000" y2="48.040000"  style="stroke:black; stroke-linecap:round; stroke-width:0.25;"/>
<line x1="359.300000" y1="56.040000" x2="391.300000" y2="56.040000"  style="stroke:black; stroke-linecap:round; stroke-width:0.25;"/>
<line x1="359.300000" y1="68.080000" x2="359.300000" y2="56.040000"  style="stroke:black; stroke-linecap:round; stroke-width:0.25;"/>
<line x1="367.300000" y1="64.040000" x2="391.300000" y2="64.040000"  style="stroke:black; stroke-linecap:round; stroke-width:0.25;"/>
<line x1="367.300000" y1="76.080000" x2="367.300000" y2="64.040000"  style="stroke:black; stroke-linecap:round; stroke-width:0.25;"/>
<line x1="375.300000" y1="72.040000" x2="391.300000" y2="72.040000"  style="stroke:black; stroke-linecap:round; stroke-width:0.25;"/>
<line x1="375.300000" y1="84.080000" x2="375.300000" y2="72.040000"  style="stroke:black; stroke-linecap:round; stroke-width:0.25;"/>
<line x1="383.300000" y1="80.040000" x2="391.300000" y2="80.040000"  style="stroke:black; stroke-linecap:round; stroke-width:0.25;"/>
<line x1="383.300000" y1="92.080000" x2="383.300000" y2="80.040000"  style="stroke:black; stroke-linecap:round; stroke-width:0.25;"/>
<line x1="391.300000" y1="40.040000" x2="395.300000" y2="40.040000"  style="stroke:black; stroke-linecap:round; stroke-width:0.25;"/>
<line x1="391.300000" y1="48.040000" x2="395.300000" y2="48.040000"  style="stroke:black; stroke-linecap:round; stroke-width:0.25;"/>
<line x1="391.300000" y1="56.040000" x2="395.300000" y2="56.040000"  style="stroke:black; stroke-linecap:round; stroke-width:0.25;"/>
<line x1="391.300000" y1="64.040000" x2="395.300000" y2="64.040000"  style="stroke:black; stroke-linecap:round; stroke-width:0.25;"/>
<line x1="391.300000" y1="72.040000" x2="395.300000" y2="72.040000"  style="stroke:black; stroke-linecap:round; stroke-width:0.25;"/>
<line x1="391.300000" y1="80.040000" x2="395.300000" y2="80.040000"  style="stroke:black; stroke-linecap:round; stroke-width:0.25;"/>
<line x1="395.300000" y1="40.040000" x2="399.300000" y2="40.040000"  style="stroke:black; stroke-linecap:round; stroke-width:0.25;"/>
<line x1="395.300000" y1="48.040000" x2="399.300000" y2="48.040000"  style="stroke:black; stroke-linecap:round; stroke-width:0.25;"/>
<line x1="395.300000" y1="56.040000" x2="399.300000" y2="56.040000"  style="stroke:black; stroke-linecap:round; stroke-width:0.25;"/>
<line x1="395.300000" y1="64.040000" x2="399.300000" y2="64.040000"  style="stroke:black; stroke-linecap:round; stroke-width:0.25;"/>
<line x1="395.300000" y1="72.040000" x2="399.300000" y2="72.040000"  style="stroke:black; stroke-linecap:round; stroke-width:0.25;"/>
<line x1="395.300000" y1="80.040000" x2="399.300000" y2="80.040000"  style="stroke:black; stroke-linecap:round; stroke-width:0.25;"/>
<line x1="399.300000" y1="40.040000" x2="409.300000" y2="40.040000"  style="stroke:black; stroke-linecap:round; stroke-width:0.25;"/>
<line x1="399.300000" y1="48.040000" x2="409.300000" y2="48.040000"  style="stroke:black; stroke-linecap:round; stroke-width:0.25;"/>
<line x1="399.300000" y1="56.040000" x2="409.300000" y2="56.040000"  style="stroke:black; stroke-linecap:round; stroke-width:0.25;"/>
<line x1="399.300000" y1="64.040000" x2="409.300000" y2="64.040000"  style="stroke:black; stroke-linecap:round; stroke-width:0.25;"/>
<line x1="399.300000" y1="72.040000" x2="409.300000" y2="72.040000"  style="stroke:black; stroke-linecap:round; stroke-width:0.25;"/>
<line x1="399.300000" y1="80.040000" x2="409.300000" y2="80.040000"  style="stroke:black; stroke-linecap:round; stroke-width:0.25;"/>
</svg>
