<?xml version="1.0"?>
<svg xmlns="http://www.w3.org/2000/svg" xmlns:xlink="http://www.w3.org/1999/xlink" viewBox="0 0 381.800000 264.000000" width="190.900000mm" height="132.000000mm" version="1.1">
<rect x="1.000000" y="1.000000" width="380.800000" height="263.000000" rx="0" ry="0" style="stroke:none;fill:#cccccc;"/>
<rect x="0.000000" y="0.000000" width="380.800000" height="263.000000" rx="0" ry="0" style="stroke:none;fill:#ffffff;"/>
<text x="10.000000" y="7.000000" font-family="Arial" font-size="7"></text>
<rect x="250.900000" y="25.000000" width="24.000000" height="24.000000" rx="0" ry="0" style="stroke:none;fill:#cccccc;"/>
<rect x="249.900000" y="24.000000" width="24.000000" height="24.000000" rx="0" ry="0" style="stroke:none;fill:#4B71A1;"/>
<text x="261.900000" y="38.000000" font-family="Arial" font-size="7" text-anchor="middle" fill="#FFFFFF">/</text>
<circle cx="251.900000" cy="26.000000" r="1"/>
<line x1="246.900000" y1="31.000000" x2="249.900000" y2="32.000000"  transform="rotate(0.000000,249.900000,32.000000)" style="stroke: black; stroke-width:0.25;"/>
<line x1="246.900000" y1="33.000000" x2="249.900000" y2="32.000000"  transform="rotate(0.000000,249.900000,32.000000)" style="stroke: black; stroke-width:0.25;"/>
<line x1="246.900000" y1="39.000000" x2="249.900000" y2="40.000000"  transform="rotate(0.000000,249.900000,40.000000)" style="stroke: black; stroke-width:0.25;"/>
<line x1="246.900000" y1="41.000000" x2="249.900000" y2="40.000000"  transform="rotate(0.000000,249.900000,40.000000)" style="stroke: black; stroke-width:0.25;"/>
<rect x="183.900000" y="57.000000" width="24.000000" height="24.000000" rx="0" ry="0" style="stroke:none;fill:#cccccc;"/>
<rect x="182.900000" y="56.000000" width="24.000000" height="24.000000" rx="0" ry="0" style="stroke:none;fill:#4B71A1;"/>
<text x="194.900000" y="70.000000" font-family="Arial" font-size="7" text-anchor="middle" fill="#FFFFFF">*</text>
<circle cx="184.900000" cy="58.000000" r="1"/>
<line x1="179.900000" y1="63.000000" x2="182.900000" y2="64.000000"  transform="rotate(0.000000,182.900000,64.000000)" style="stroke: black; stroke-width:0.25;"/>
<line x1="179.900000" y1="65.000000" x2="182.900000" y2="64.000000"  transform="rotate(0.000000,182.900000,64.000000)" style="stroke: black; stroke-width:0.25;"/>
<line x1="179.900000" y1="71.000000" x2="182.900000" y2="72.000000"  transform="rotate(0.000000,182.900000,72.000000)" style="stroke: black; stroke-width:0.25;"/>
<line x1="179.900000" y1="73.000000" x2="182.900000" y2="72.000000"  transform="rotate(0.000000,182.900000,72.000000)" style="stroke: black; stroke-width:0.25;"/>
<rect x="183.900000" y="89.000000" width="24.000000" height="24.000000" rx="0" ry="0" style="stroke:none;fill:#cccccc;"/>
<rect x="182.900000" y="88.000000" width="24.000000" height="24.000000" rx="0" ry="0" style="stroke:none;fill:#4B71A1;"/>
<text x="194.900000" y="102.000000" font-family="Arial" font-size="7" text-anchor="middle" fill="#FFFFFF">*</text>
<circle cx="184.900000" cy="90.000000" r="1"/>
<line x1="179.900000" y1="95.000000" x2="182.900000" y2="96.000000"  transform="rotate(0.000000,182.900000,96.000000)" style="stroke: black; stroke-width:0.25;"/>
<line x1="179.900000" y1="97.000000" x2="182.900000" y2="96.000000"  transform="rotate(0.000000,182.900000,96.000000)" style="stroke: black; stroke-width:0.25;"/>
<line x1="179.900000" y1="103.000000" x2="182.900000" y2="104.000000"  transform="rotate(0.000000,182.900000,104.000000)" style="stroke: black; stroke-width:0.25;"/>
<line x1="179.900000" y1="105.000000" x2="182.900000" y2="104.000000"  transform="rotate(0.000000,182.900000,104.000000)" style="stroke: black; stroke-width:0.25;"/>
<rect x="223.900000" y="73.000000" width="24.000000" height="24.000000" rx="0" ry="0" style="stroke:none;fill:#cccccc;"/>
<rect x="222.900000" y="72.000000" width="24.000000" height="24.000000" rx="0" ry="0" style="stroke:none;fill:#4B71A1;"/>
<text x="234.900000" y="86.000000" font-family="Arial" font-size="7" text-anchor="middle" fill="#FFFFFF">-</text>
<circle cx="224.900000" cy="74.000000" r="1"/>
<line x1="219.900000" y1="79.000000" x2="222.900000" y2="80.000000"  transform="rotate(0.000000,222.900000,80.000000)" style="stroke: black; stroke-width:0.25;"/>
<line x1="219.900000" y1="81.000000" x2="222.900000" y2="80.000000"  transform="rotate(0.000000,222.900000,80.000000)" style="stroke: black; stroke-width:0.25;"/>
<line x1="219.900000" y1="87.000000" x2="222.900000" y2="88.000000"  transform="rotate(0.000000,222.900000,88.000000)" style="stroke: black; stroke-width:0.25;"/>
<line x1="219.900000" y1="89.000000" x2="222.900000" y2="88.000000"  transform="rotate(0.000000,222.900000,88.000000)" style="stroke: black; stroke-width:0.25;"/>
<rect x="183.900000" y="121.000000" width="24.000000" height="24.000000" rx="0" ry="0" style="stroke:none;fill:#cccccc;"/>
<rect x="182.900000" y="120.000000" width="24.000000" height="24.000000" rx="0" ry="0" style="stroke:none;fill:#4B71A1;"/>
<text x="194.900000" y="134.000000" font-family="Arial" font-size="7" text-anchor="middle" fill="#FFFFFF">*</text>
<circle cx="184.900000" cy="122.000000" r="1"/>
<line x1="179.900000" y1="127.000000" x2="182.900000" y2="128.000000"  transform="rotate(0.000000,182.900000,128.000000)" style="stroke: black; stroke-width:0.25;"/>
<line x1="179.900000" y1="129.000000" x2="182.900000" y2="128.000000"  transform="rotate(0.000000,182.900000,128.000000)" style="stroke: black; stroke-width:0.25;"/>
<line x1="179.900000" y1="135.000000" x2="182.900000" y2="136.000000"  transform="rotate(0.000000,182.900000,136.000000)" style="stroke: black; stroke-width:0.25;"/>
<line x1="179.900000" y1="137.000000" x2="182.900000" y2="136.000000"  transform="rotate(0.000000,182.900000,136.000000)" style="stroke: black; stroke-width:0.25;"/>
<rect x="183.900000" y="153.000000" width="24.000000" height="24.000000" rx="0" ry="0" style="stroke:none;fill:#cccccc;"/>
<rect x="182.900000" y="152.000000" width="24.000000" height="24.000000" rx="0" ry="0" style="stroke:none;fill:#4B71A1;"/>
<text x="194.900000" y="166.000000" font-family="Arial" font-size="7" text-anchor="middle" fill="#FFFFFF">*</text>
<circle cx="184.900000" cy="154.000000" r="1"/>
<line x1="179.900000" y1="159.000000" x2="182.900000" y2="160.000000"  transform="rotate(0.000000,182.900000,160.000000)" style="stroke: black; stroke-width:0.25;"/>
<line x1="179.900000" y1="161.000000" x2="182.900000" y2="160.000000"  transform="rotate(0.000000,182.900000,160.000000)" style="stroke: black; stroke-width:0.25;"/>
<line x1="179.900000" y1="167.000000" x2="182.900000" y2="168.000000"  transform="rotate(0.000000,182.900000,168.000000)" style="stroke: black; stroke-width:0.25;"/>
<line x1="179.900000" y1="169.000000" x2="182.900000" y2="168.000000"  transform="rotate(0.000000,182.900000,168.000000)" style="stroke: black; stroke-width:0.25;"/>
<rect x="223.900000" y="137.000000" width="24.000000" height="24.000000" rx="0" ry="0" style="stroke:none;fill:#cccccc;"/>
<rect x="222.900000" y="136.000000" width="24.000000" height="24.000000" rx="0" ry="0" style="stroke:none;fill:#4B71A1;"/>
<text x="234.900000" y="150.000000" font-family="Arial" font-size="7" text-anchor="middle" fill="#FFFFFF">-</text>
<circle cx="224.900000" cy="138.000000" r="1"/>
<line x1="219.900000" y1="143.000000" x2="222.900000" y2="144.000000"  transform="rotate(0.000000,222.900000,144.000000)" style="stroke: black; stroke-width:0.25;"/>
<line x1="219.900000" y1="145.000000" x2="222.900000" y2="144.000000"  transform="rotate(0.000000,222.900000,144.000000)" style="stroke: black; stroke-width:0.25;"/>
<line x1="219.900000" y1="151.000000" x2="222.900000" y2="152.000000"  transform="rotate(0.000000,222.900000,152.000000)" style="stroke: black; stroke-width:0.25;"/>
<line x1="219.900000" y1="153.000000" x2="222.900000" y2="152.000000"  transform="rotate(0.000000,222.900000,152.000000)" style="stroke: black; stroke-width:0.25;"/>
<rect x="183.900000" y="185.000000" width="24.000000" height="24.000000" rx="0" ry="0" style="stroke:none;fill:#cccccc;"/>
<rect x="182.900000" y="184.000000" width="24.000000" height="24.000000" rx="0" ry="0" style="stroke:none;fill:#4B71A1;"/>
<text x="194.900000" y="198.000000" font-family="Arial" font-size="7" text-anchor="middle" fill="#FFFFFF">*</text>
<circle cx="184.900000" cy="186.000000" r="1"/>
<line x1="179.900000" y1="191.000000" x2="182.900000" y2="192.000000"  transform="rotate(0.000000,182.900000,192.000000)" style="stroke: black; stroke-width:0.25;"/>
<line x1="179.900000" y1="193.000000" x2="182.900000" y2="192.000000"  transform="rotate(0.000000,182.900000,192.000000)" style="stroke: black; stroke-width:0.25;"/>
<line x1="179.900000" y1="199.000000" x2="182.900000" y2="200.000000"  transform="rotate(0.000000,182.900000,200.000000)" style="stroke: black; stroke-width:0.25;"/>
<line x1="179.900000" y1="201.000000" x2="182.900000" y2="200.000000"  transform="rotate(0.000000,182.900000,200.000000)" style="stroke: black; stroke-width:0.25;"/>
<rect x="183.000000" y="217.000000" width="25.800000" height="24.000000" rx="0" ry="0" style="stroke:none;fill:#cccccc;"/>
<rect x="182.000000" y="216.000000" width="25.800000" height="24.000000" rx="0" ry="0" style="stroke:none;fill:#f44800;"/>
<text x="194.900000" y="230.000000" font-family="Arial" font-size="7" text-anchor="middle" fill="#FFFFFF">1e-10f</text>
<circle cx="184.000000" cy="218.000000" r="1"/>
<rect x="224.800000" y="201.000000" width="24.000000" height="24.000000" rx="0" ry="0" style="stroke:none;fill:#cccccc;"/>
<rect x="223.800000" y="200.000000" width="24.000000" height="24.000000" rx="0" ry="0" style="stroke:none;fill:#4B71A1;"/>
<text x="235.800000" y="214.000000" font-family="Arial" font-size="7" text-anchor="middle" fill="#FFFFFF">max</text>
<circle cx="225.800000" cy="202.000000" r="1"/>
<line x1="220.800000" y1="207.000000" x2="223.800000" y2="208.000000"  transform="rotate(0.000000,223.800000,208.000000)" style="stroke: black; stroke-width:0.25;"/>
<line x1="220.800000" y1="209.000000" x2="223.800000" y2="208.000000"  transform="rotate(0.000000,223.800000,208.000000)" style="stroke: black; stroke-width:0.25;"/>
<line x1="220.800000" y1="215.000000" x2="223.800000" y2="216.000000"  transform="rotate(0.000000,223.800000,216.000000)" style="stroke: black; stroke-width:0.25;"/>
<line x1="220.800000" y1="217.000000" x2="223.800000" y2="216.000000"  transform="rotate(0.000000,223.800000,216.000000)" style="stroke: black; stroke-width:0.25;"/>
<rect x="318.800000" y="121.000000" width="24.000000" height="24.000000" rx="0" ry="0" style="stroke:none;fill:#cccccc;"/>
<rect x="317.800000" y="120.000000" width="24.000000" height="24.000000" rx="0" ry="0" style="stroke:none;fill:#4B71A1;"/>
<text x="329.800000" y="134.000000" font-family="Arial" font-size="7" text-anchor="middle" fill="#FFFFFF">/</text>
<circle cx="319.800000" cy="122.000000" r="1"/>
<line x1="314.800000" y1="127.000000" x2="317.800000" y2="128.000000"  transform="rotate(0.000000,317.800000,128.000000)" style="stroke: black; stroke-width:0.25;"/>
<line x1="314.800000" y1="129.000000" x2="317.800000" y2="128.000000"  transform="rotate(0.000000,317.800000,128.000000)" style="stroke: black; stroke-width:0.25;"/>
<line x1="314.800000" y1="135.000000" x2="317.800000" y2="136.000000"  transform="rotate(0.000000,317.800000,136.000000)" style="stroke: black; stroke-width:0.25;"/>
<line x1="314.800000" y1="137.000000" x2="317.800000" y2="136.000000"  transform="rotate(0.000000,317.800000,136.000000)" style="stroke: black; stroke-width:0.25;"/>
<rect x="318.800000" y="153.000000" width="24.000000" height="24.000000" rx="0" ry="0" style="stroke:none;fill:#cccccc;"/>
<rect x="317.800000" y="152.000000" width="24.000000" height="24.000000" rx="0" ry="0" style="stroke:none;fill:#4B71A1;"/>
<text x="329.800000" y="166.000000" font-family="Arial" font-size="7" text-anchor="middle" fill="#FFFFFF">/</text>
<circle cx="319.800000" cy="154.000000" r="1"/>
<line x1="314.800000" y1="159.000000" x2="317.800000" y2="160.000000"  transform="rotate(0.000000,317.800000,160.000000)" style="stroke: black; stroke-width:0.25;"/>
<line x1="314.800000" y1="161.000000" x2="317.800000" y2="160.000000"  transform="rotate(0.000000,317.800000,160.000000)" style="stroke: black; stroke-width:0.25;"/>
<line x1="314.800000" y1="167.000000" x2="317.800000" y2="168.000000"  transform="rotate(0.000000,317.800000,168.000000)" style="stroke: black; stroke-width:0.25;"/>
<line x1="314.800000" y1="169.000000" x2="317.800000" y2="168.000000"  transform="rotate(0.000000,317.800000,168.000000)" style="stroke: black; stroke-width:0.25;"/>
<line x1="15.000000" y1="15.000000" x2="15.000000" y2="249.000000"  style="stroke: black; stroke-linecap:round; stroke-width:0.25; stroke-dasharray:3,3;"/>
<line x1="15.000000" y1="249.000000" x2="366.800000" y2="249.000000"  style="stroke: black; stroke-linecap:round; stroke-width:0.25; stroke-dasharray:3,3;"/>
<line x1="366.800000" y1="249.000000" x2="366.800000" y2="15.000000"  style="stroke: black; stroke-linecap:round; stroke-width:0.25; stroke-dasharray:3,3;"/>
<line x1="15.000000" y1="15.000000" x2="20.000000" y2="15.000000"  style="stroke: black; stroke-linecap:round; stroke-width:0.25; stroke-dasharray:3,3;"/>
<line x1="49.025000" y1="15.000000" x2="366.800000" y2="15.000000"  style="stroke: black; stroke-linecap:round; stroke-width:0.25; stroke-dasharray:3,3;"/>
<text x="20.000000" y="17.000000" font-family="Arial" font-size="7">process</text>
<line x1="368.800000" y1="123.000000" x2="371.800000" y2="124.000000"  transform="rotate(0.000000,371.800000,124.000000)" style="stroke: black; stroke-width:0.25;"/>
<line x1="368.800000" y1="125.000000" x2="371.800000" y2="124.000000"  transform="rotate(0.000000,371.800000,124.000000)" style="stroke: black; stroke-width:0.25;"/>
<line x1="368.800000" y1="131.000000" x2="371.800000" y2="132.000000"  transform="rotate(0.000000,371.800000,132.000000)" style="stroke: black; stroke-width:0.25;"/>
<line x1="368.800000" y1="133.000000" x2="371.800000" y2="132.000000"  transform="rotate(0.000000,371.800000,132.000000)" style="stroke: black; stroke-width:0.25;"/>
<line x1="368.800000" y1="139.000000" x2="371.800000" y2="140.000000"  transform="rotate(0.000000,371.800000,140.000000)" style="stroke: black; stroke-width:0.25;"/>
<line x1="368.800000" y1="141.000000" x2="371.800000" y2="140.000000"  transform="rotate(0.000000,371.800000,140.000000)" style="stroke: black; stroke-width:0.25;"/>
<line x1="10.000000" y1="112.000000" x2="20.000000" y2="112.000000"  style="stroke:black; stroke-linecap:round; stroke-width:0.25;"/>
<line x1="10.000000" y1="120.000000" x2="20.000000" y2="120.000000"  style="stroke:black; stroke-linecap:round; stroke-width:0.25;"/>
<line x1="10.000000" y1="128.000000" x2="20.000000" y2="128.000000"  style="stroke:black; stroke-linecap:round; stroke-width:0.25;"/>
<line x1="10.000000" y1="136.000000" x2="20.000000" y2="136.000000"  style="stroke:black; stroke-linecap:round; stroke-width:0.25;"/>
<line x1="10.000000" y1="144.000000" x2="20.000000" y2="144.000000"  style="stroke:black; stroke-linecap:round; stroke-width:0.25;"/>
<line x1="10.000000" y1="152.000000" x2="20.000000" y2="152.000000"  style="stroke:black; stroke-linecap:round; stroke-width:0.25;"/>
<line x1="20.000000" y1="112.000000" x2="24.000000" y2="112.000000"  style="stroke:black; stroke-linecap:round; stroke-width:0.25;"/>
<line x1="20.000000" y1="120.000000" x2="24.000000" y2="120.000000"  style="stroke:black; stroke-linecap:round; stroke-width:0.25;"/>
<line x1="20.000000" y1="128.000000" x2="24.000000" y2="128.000000"  style="stroke:black; stroke-linecap:round; stroke-width:0.25;"/>
<line x1="20.000000" y1="136.000000" x2="24.000000" y2="136.000000"  style="stroke:black; stroke-linecap:round; stroke-width:0.25;"/>
<line x1="20.000000" y1="144.000000" x2="24.000000" y2="144.000000"  style="stroke:black; stroke-linecap:round; stroke-width:0.25;"/>
<line x1="20.000000" y1="152.000000" x2="24.000000" y2="152.000000"  style="stroke:black; stroke-linecap:round; stroke-width:0.25;"/>
<line x1="24.000000" y1="112.000000" x2="28.000000" y2="112.000000"  style="stroke:black; stroke-linecap:round; stroke-width:0.25;"/>
<line x1="24.000000" y1="120.000000" x2="28.000000" y2="120.000000"  style="stroke:black; stroke-linecap:round; stroke-width:0.25;"/>
<line x1="24.000000" y1="128.000000" x2="28.000000" y2="128.000000"  style="stroke:black; stroke-linecap:round; stroke-width:0.25;"/>
<line x1="24.000000" y1="136.000000" x2="28.000000" y2="136.000000"  style="stroke:black; stroke-linecap:round; stroke-width:0.25;"/>
<line x1="24.000000" y1="144.000000" x2="28.000000" y2="144.000000"  style="stroke:black; stroke-linecap:round; stroke-width:0.25;"/>
<line x1="24.000000" y1="152.000000" x2="28.000000" y2="152.000000"  style="stroke:black; stroke-linecap:round; stroke-width:0.25;"/>
<line x1="28.000000" y1="112.000000" x2="28.000000" y2="112.000000"  style="stroke:black; stroke-linecap:round; stroke-width:0.25;"/>
<line x1="28.000000" y1="112.000000" x2="32.000000" y2="112.000000"  style="stroke:black; stroke-linecap:round; stroke-width:0.25;"/>
<line x1="28.000000" y1="120.000000" x2="28.000000" y2="120.000000"  style="stroke:black; stroke-linecap:round; stroke-width:0.25;"/>
<line x1="28.000000" y1="120.000000" x2="32.000000" y2="120.000000"  style="stroke:black; stroke-linecap:round; stroke-width:0.25;"/>
<line x1="28.000000" y1="128.000000" x2="28.000000" y2="128.000000"  style="stroke:black; stroke-linecap:round; stroke-width:0.25;"/>
<line x1="28.000000" y1="128.000000" x2="32.000000" y2="128.000000"  style="stroke:black; stroke-linecap:round; stroke-width:0.25;"/>
<line x1="28.000000" y1="136.000000" x2="28.000000" y2="136.000000"  style="stroke:black; stroke-linecap:round; stroke-width:0.25;"/>
<line x1="28.000000" y1="136.000000" x2="32.000000" y2="136.000000"  style="stroke:black; stroke-linecap:round; stroke-width:0.25;"/>
<line x1="28.000000" y1="144.000000" x2="28.000000" y2="144.000000"  style="stroke:black; stroke-linecap:round; stroke-width:0.25;"/>
<line x1="28.000000" y1="144.000000" x2="32.000000" y2="144.000000"  style="stroke:black; stroke-linecap:round; stroke-width:0.25;"/>
<line x1="28.000000" y1="152.000000" x2="28.000000" y2="152.000000"  style="stroke:black; stroke-linecap:round; stroke-width:0.25;"/>
<line x1="28.000000" y1="152.000000" x2="32.000000" y2="152.000000"  style="stroke:black; stroke-linecap:round; stroke-width:0.25;"/>
<line x1="32.000000" y1="112.000000" x2="110.000000" y2="88.000000"  style="stroke:black; stroke-linecap:round; stroke-width:0.25;"/>
<line x1="32.000000" y1="112.000000" x2="110.000000" y2="120.000000"  style="stroke:black; stroke-linecap:round; stroke-width:0.25;"/>
<line x1="32.000000" y1="112.000000" x2="110.000000" y2="152.000000"  style="stroke:black; stroke-linecap:round; stroke-width:0.25;"/>
<line x1="32.000000" y1="120.000000" x2="110.000000" y2="104.000000"  style="stroke:black; stroke-linecap:round; stroke-width:0.25;"/>
<line x1="32.000000" y1="128.000000" x2="110.000000" y2="136.000000"  style="stroke:black; stroke-linecap:round; stroke-width:0.25;"/>
<line x1="32.000000" y1="136.000000" x2="110.000000" y2="96.000000"  style="stroke:black; stroke-linecap:round; stroke-width:0.25;"/>
<line x1="32.000000" y1="136.000000" x2="110.000000" y2="112.000000"  style="stroke:black; stroke-linecap:round; stroke-width:0.25;"/>
<line x1="32.000000" y1="136.000000" x2="110.000000" y2="144.000000"  style="stroke:black; stroke-linecap:round; stroke-width:0.25;"/>
<line x1="32.000000" y1="136.000000" x2="110.000000" y2="168.000000"  style="stroke:black; stroke-linecap:round; stroke-width:0.25;"/>
<line x1="32.000000" y1="136.000000" x2="110.000000" y2="176.000000"  style="stroke:black; stroke-linecap:round; stroke-width:0.25;"/>
<line x1="32.000000" y1="144.000000" x2="110.000000" y2="128.000000"  style="stroke:black; stroke-linecap:round; stroke-width:0.25;"/>
<line x1="32.000000" y1="152.000000" x2="110.000000" y2="160.000000"  style="stroke:black; stroke-linecap:round; stroke-width:0.25;"/>
<line x1="110.000000" y1="88.000000" x2="114.000000" y2="88.000000"  style="stroke:black; stroke-linecap:round; stroke-width:0.25;"/>
<line x1="110.000000" y1="96.000000" x2="114.000000" y2="96.000000"  style="stroke:black; stroke-linecap:round; stroke-width:0.25;"/>
<line x1="110.000000" y1="104.000000" x2="114.000000" y2="104.000000"  style="stroke:black; stroke-linecap:round; stroke-width:0.25;"/>
<line x1="110.000000" y1="112.000000" x2="114.000000" y2="112.000000"  style="stroke:black; stroke-linecap:round; stroke-width:0.25;"/>
<line x1="110.000000" y1="120.000000" x2="114.000000" y2="120.000000"  style="stroke:black; stroke-linecap:round; stroke-width:0.25;"/>
<line x1="110.000000" y1="128.000000" x2="114.000000" y2="128.000000"  style="stroke:black; stroke-linecap:round; stroke-width:0.25;"/>
<line x1="110.000000" y1="136.000000" x2="114.000000" y2="136.000000"  style="stroke:black; stroke-linecap:round; stroke-width:0.25;"/>
<line x1="110.000000" y1="144.000000" x2="114.000000" y2="144.000000"  style="stroke:black; stroke-linecap:round; stroke-width:0.25;"/>
<line x1="110.000000" y1="152.000000" x2="114.000000" y2="152.000000"  style="stroke:black; stroke-linecap:round; stroke-width:0.25;"/>
<line x1="110.000000" y1="160.000000" x2="114.000000" y2="160.000000"  style="stroke:black; stroke-linecap:round; stroke-width:0.25;"/>
<line x1="110.000000" y1="168.000000" x2="114.000000" y2="168.000000"  style="stroke:black; stroke-linecap:round; stroke-width:0.25;"/>
<line x1="110.000000" y1="176.000000" x2="114.000000" y2="176.000000"  style="stroke:black; stroke-linecap:round; stroke-width:0.25;"/>
<line x1="114.000000" y1="32.000000" x2="178.000000" y2="32.000000"  style="stroke:black; stroke-linecap:round; stroke-width:0.25;"/>
<line x1="114.000000" y1="88.000000" x2="114.000000" y2="32.000000"  style="stroke:black; stroke-linecap:round; stroke-width:0.25;"/>
<line x1="114.000000" y1="88.000000" x2="114.000000" y2="88.000000"  style="stroke:black; stroke-linecap:round; stroke-width:0.25;"/>
<line x1="114.000000" y1="96.000000" x2="122.000000" y2="96.000000"  style="stroke:black; stroke-linecap:round; stroke-width:0.25;"/>
<line x1="114.000000" y1="104.000000" x2="130.000000" y2="104.000000"  style="stroke:black; stroke-linecap:round; stroke-width:0.25;"/>
<line x1="114.000000" y1="112.000000" x2="138.000000" y2="112.000000"  style="stroke:black; stroke-linecap:round; stroke-width:0.25;"/>
<line x1="114.000000" y1="120.000000" x2="146.000000" y2="120.000000"  style="stroke:black; stroke-linecap:round; stroke-width:0.25;"/>
<line x1="114.000000" y1="128.000000" x2="154.000000" y2="128.000000"  style="stroke:black; stroke-linecap:round; stroke-width:0.25;"/>
<line x1="114.000000" y1="136.000000" x2="162.000000" y2="136.000000"  style="stroke:black; stroke-linecap:round; stroke-width:0.25;"/>
<line x1="114.000000" y1="144.000000" x2="170.000000" y2="144.000000"  style="stroke:black; stroke-linecap:round; stroke-width:0.25;"/>
<line x1="114.000000" y1="152.000000" x2="178.000000" y2="152.000000"  style="stroke:black; stroke-linecap:round; stroke-width:0.25;"/>
<line x1="114.000000" y1="160.000000" x2="170.000000" y2="160.000000"  style="stroke:black; stroke-linecap:round; stroke-width:0.25;"/>
<line x1="114.000000" y1="168.000000" x2="162.000000" y2="168.000000"  style="stroke:black; stroke-linecap:round; stroke-width:0.25;"/>
<line x1="114.000000" y1="176.000000" x2="154.000000" y2="176.000000"  style="stroke:black; stroke-linecap:round; stroke-width:0.25;"/>
<line x1="122.000000" y1="40.000000" x2="178.000000" y2="40.000000"  style="stroke:black; stroke-linecap:round; stroke-width:0.25;"/>
<line x1="122.000000" y1="96.000000" x2="122.000000" y2="40.000000"  style="stroke:black; stroke-linecap:round; stroke-width:0.25;"/>
<line x1="130.000000" y1="64.000000" x2="178.000000" y2="64.000000"  style="stroke:black; stroke-linecap:round; stroke-width:0.25;"/>
<line x1="130.000000" y1="104.000000" x2="130.000000" y2="64.000000"  style="stroke:black; stroke-linecap:round; stroke-width:0.25;"/>
<line x1="138.000000" y1="72.000000" x2="178.000000" y2="72.000000"  style="stroke:black; stroke-linecap:round; stroke-width:0.25;"/>
<line x1="138.000000" y1="112.000000" x2="138.000000" y2="72.000000"  style="stroke:black; stroke-linecap:round; stroke-width:0.25;"/>
<line x1="146.000000" y1="96.000000" x2="178.000000" y2="96.000000"  style="stroke:black; stroke-linecap:round; stroke-width:0.25;"/>
<line x1="146.000000" y1="120.000000" x2="146.000000" y2="96.000000"  style="stroke:black; stroke-linecap:round; stroke-width:0.25;"/>
<line x1="154.000000" y1="104.000000" x2="178.000000" y2="104.000000"  style="stroke:black; stroke-linecap:round; stroke-width:0.25;"/>
<line x1="154.000000" y1="128.000000" x2="154.000000" y2="104.000000"  style="stroke:black; stroke-linecap:round; stroke-width:0.25;"/>
<line x1="154.000000" y1="176.000000" x2="154.000000" y2="200.000000"  style="stroke:black; stroke-linecap:round; stroke-width:0.25;"/>
<line x1="154.000000" y1="200.000000" x2="178.000000" y2="200.000000"  style="stroke:black; stroke-linecap:round; stroke-width:0.25;"/>
<line x1="162.000000" y1="128.000000" x2="178.000000" y2="128.000000"  style="stroke:black; stroke-linecap:round; stroke-width:0.25;"/>
<line x1="162.000000" y1="136.000000" x2="162.000000" y2="128.000000"  style="stroke:black; stroke-linecap:round; stroke-width:0.25;"/>
<line x1="162.000000" y1="168.000000" x2="162.000000" y2="192.000000"  style="stroke:black; stroke-linecap:round; stroke-width:0.25;"/>
<line x1="162.000000" y1="192.000000" x2="178.000000" y2="192.000000"  style="stroke:black; stroke-linecap:round; stroke-width:0.25;"/>
<line x1="170.000000" y1="136.000000" x2="178.000000" y2="136.000000"  style="stroke:black; stroke-linecap:round; stroke-width:0.25;"/>
<line x1="170.000000" y1="144.000000" x2="170.000000" y2="136.000000"  style="stroke:black; stroke-linecap:round; stroke-width:0.25;"/>
<line x1="170.000000" y1="160.000000" x2="170.000000" y2="168.000000"  style="stroke:black; stroke-linecap:round; stroke-width:0.25;"/>
<line x1="170.000000" y1="168.000000" x2="178.000000" y2="168.000000"  style="stroke:black; stroke-linecap:round; stroke-width:0.25;"/>
<line x1="178.000000" y1="32.000000" x2="245.900000" y2="32.000000"  style="stroke:black; stroke-linecap:round; stroke-width:0.25;"/>
<line x1="178.000000" y1="40.000000" x2="245.900000" y2="40.000000"  style="stroke:black; stroke-linecap:round; stroke-width:0.25;"/>
<line x1="178.000000" y1="64.000000" x2="178.900000" y2="64.000000"  style="stroke:black; stroke-linecap:round; stroke-width:0.25;"/>
<line x1="178.000000" y1="72.000000" x2="178.900000" y2="72.000000"  style="stroke:black; stroke-linecap:round; stroke-width:0.25;"/>
<line x1="178.000000" y1="96.000000" x2="178.900000" y2="96.000000"  style="stroke:black; stroke-linecap:round; stroke-width:0.25;"/>
<line x1="178.000000" y1="104.000000" x2="178.900000" y2="104.000000"  style="stroke:black; stroke-linecap:round; stroke-width:0.25;"/>
<line x1="178.000000" y1="128.000000" x2="178.900000" y2="128.000000"  style="stroke:black; stroke-linecap:round; stroke-width:0.25;"/>
<line x1="178.000000" y1="136.000000" x2="178.900000" y2="136.000000"  style="stroke:black; stroke-linecap:round; stroke-width:0.25;"/>
<line x1="178.000000" y1="152.000000" x2="178.000000" y2="160.000000"  style="stroke:black; stroke-linecap:round; stroke-width:0.25;"/>
<line x1="178.000000" y1="160.000000" x2="178.000000" y2="160.000000"  style="stroke:black; stroke-linecap:round; stroke-width:0.25;"/>
<line x1="178.000000" y1="160.000000" x2="178.900000" y2="160.000000"  style="stroke:black; stroke-linecap:round; stroke-width:0.25;"/>
<line x1="178.000000" y1="168.000000" x2="178.900000" y2="168.000000"  style="stroke:black; stroke-linecap:round; stroke-width:0.25;"/>
<line x1="178.000000" y1="192.000000" x2="178.900000" y2="192.000000"  style="stroke:black; stroke-linecap:round; stroke-width:0.25;"/>
<line x1="178.000000" y1="200.000000" x2="178.900000" y2="200.000000"  style="stroke:black; stroke-linecap:round; stroke-width:0.25;"/>
<line x1="178.900000" y1="64.000000" x2="182.900000" y2="64.000000"  style="stroke:black; stroke-linecap:round; stroke-width:0.25;"/>
<line x1="178.900000" y1="72.000000" x2="182.900000" y2="72.000000"  style="stroke:black; stroke-linecap:round; stroke-width:0.25;"/>
<line x1="178.900000" y1="96.000000" x2="182.900000" y2="96.000000"  style="stroke:black; stroke-linecap:round; stroke-width:0.25;"/>
<line x1="178.900000" y1="104.000000" x2="182.900000" y2="104.000000"  style="stroke:black; stroke-linecap:round; stroke-width:0.25;"/>
<line x1="178.900000" y1="128.000000" x2="182.900000" y2="128.000000"  style="stroke:black; stroke-linecap:round; stroke-width:0.25;"/>
<line x1="178.900000" y1="136.000000" x2="182.900000" y2="136.000000"  style="stroke:black; stroke-linecap:round; stroke-width:0.25;"/>
<line x1="178.900000" y1="160.000000" x2="182.900000" y2="160.000000"  style="stroke:black; stroke-linecap:round; stroke-width:0.25;"/>
<line x1="178.900000" y1="168.000000" x2="182.900000" y2="168.000000"  style="stroke:black; stroke-linecap:round; stroke-width:0.25;"/>
<line x1="178.900000" y1="192.000000" x2="182.900000" y2="192.000000"  style="stroke:black; stroke-linecap:round; stroke-width:0.25;"/>
<line x1="178.900000" y1="200.000000" x2="182.900000" y2="200.000000"  style="stroke:black; stroke-linecap:round; stroke-width:0.25;"/>
<line x1="206.900000" y1="68.000000" x2="210.900000" y2="68.000000"  style="stroke:black; stroke-linecap:round; stroke-width:0.25;"/>
<line x1="206.900000" y1="100.000000" x2="210.900000" y2="100.000000"  style="stroke:black; stroke-linecap:round; stroke-width:0.25;"/>
<line x1="206.900000" y1="132.000000" x2="210.900000" y2="132.000000"  style="stroke:black; stroke-linecap:round; stroke-width:0.25;"/>
<line x1="206.900000" y1="164.000000" x2="210.900000" y2="164.000000"  style="stroke:black; stroke-linecap:round; stroke-width:0.25;"/>
<line x1="206.900000" y1="196.000000" x2="210.900000" y2="196.000000"  style="stroke:black; stroke-linecap:round; stroke-width:0.25;"/>
<line x1="207.800000" y1="228.000000" x2="211.800000" y2="228.000000"  style="stroke:black; stroke-linecap:round; stroke-width:0.25;"/>
<line x1="210.900000" y1="68.000000" x2="218.900000" y2="68.000000"  style="stroke:black; stroke-linecap:round; stroke-width:0.25;"/>
<line x1="210.900000" y1="88.000000" x2="218.900000" y2="88.000000"  style="stroke:black; stroke-linecap:round; stroke-width:0.25;"/>
<line x1="210.900000" y1="100.000000" x2="210.900000" y2="88.000000"  style="stroke:black; stroke-linecap:round; stroke-width:0.25;"/>
<line x1="210.900000" y1="100.000000" x2="210.900000" y2="100.000000"  style="stroke:black; stroke-linecap:round; stroke-width:0.25;"/>
<line x1="210.900000" y1="132.000000" x2="218.900000" y2="132.000000"  style="stroke:black; stroke-linecap:round; stroke-width:0.25;"/>
<line x1="210.900000" y1="152.000000" x2="218.900000" y2="152.000000"  style="stroke:black; stroke-linecap:round; stroke-width:0.25;"/>
<line x1="210.900000" y1="164.000000" x2="210.900000" y2="152.000000"  style="stroke:black; stroke-linecap:round; stroke-width:0.25;"/>
<line x1="210.900000" y1="164.000000" x2="210.900000" y2="164.000000"  style="stroke:black; stroke-linecap:round; stroke-width:0.25;"/>
<line x1="210.900000" y1="196.000000" x2="211.800000" y2="196.000000"  style="stroke:black; stroke-linecap:round; stroke-width:0.25;"/>
<line x1="211.800000" y1="196.000000" x2="219.800000" y2="196.000000"  style="stroke:black; stroke-linecap:round; stroke-width:0.25;"/>
<line x1="211.800000" y1="216.000000" x2="219.800000" y2="216.000000"  style="stroke:black; stroke-linecap:round; stroke-width:0.25;"/>
<line x1="211.800000" y1="228.000000" x2="211.800000" y2="216.000000"  style="stroke:black; stroke-linecap:round; stroke-width:0.25;"/>
<line x1="211.800000" y1="228.000000" x2="211.800000" y2="228.000000"  style="stroke:black; stroke-linecap:round; stroke-width:0.25;"/>
<line x1="218.900000" y1="68.000000" x2="218.900000" y2="80.000000"  style="stroke:black; stroke-linecap:round; stroke-width:0.25;"/>
<line x1="218.900000" y1="80.000000" x2="218.900000" y2="80.000000"  style="stroke:black; stroke-linecap:round; stroke-width:0.25;"/>
<line x1="218.900000" y1="80.000000" x2="222.900000" y2="80.000000"  style="stroke:black; stroke-linecap:round; stroke-width:0.25;"/>
<line x1="218.900000" y1="88.000000" x2="222.900000" y2="88.000000"  style="stroke:black; stroke-linecap:round; stroke-width:0.25;"/>
<line x1="218.900000" y1="132.000000" x2="218.900000" y2="144.000000"  style="stroke:black; stroke-linecap:round; stroke-width:0.25;"/>
<line x1="218.900000" y1="144.000000" x2="218.900000" y2="144.000000"  style="stroke:black; stroke-linecap:round; stroke-width:0.25;"/>
<line x1="218.900000" y1="144.000000" x2="222.900000" y2="144.000000"  style="stroke:black; stroke-linecap:round; stroke-width:0.25;"/>
<line x1="218.900000" y1="152.000000" x2="222.900000" y2="152.000000"  style="stroke:black; stroke-linecap:round; stroke-width:0.25;"/>
<line x1="219.800000" y1="196.000000" x2="219.800000" y2="208.000000"  style="stroke:black; stroke-linecap:round; stroke-width:0.25;"/>
<line x1="219.800000" y1="208.000000" x2="219.800000" y2="208.000000"  style="stroke:black; stroke-linecap:round; stroke-width:0.25;"/>
<line x1="219.800000" y1="208.000000" x2="223.800000" y2="208.000000"  style="stroke:black; stroke-linecap:round; stroke-width:0.25;"/>
<line x1="219.800000" y1="216.000000" x2="223.800000" y2="216.000000"  style="stroke:black; stroke-linecap:round; stroke-width:0.25;"/>
<line x1="245.900000" y1="32.000000" x2="249.900000" y2="32.000000"  style="stroke:black; stroke-linecap:round; stroke-width:0.25;"/>
<line x1="245.900000" y1="40.000000" x2="249.900000" y2="40.000000"  style="stroke:black; stroke-linecap:round; stroke-width:0.25;"/>
<line x1="246.900000" y1="84.000000" x2="250.900000" y2="84.000000"  style="stroke:black; stroke-linecap:round; stroke-width:0.25;"/>
<line x1="246.900000" y1="148.000000" x2="250.900000" y2="148.000000"  style="stroke:black; stroke-linecap:round; stroke-width:0.25;"/>
<line x1="247.800000" y1="212.000000" x2="251.800000" y2="212.000000"  style="stroke:black; stroke-linecap:round; stroke-width:0.25;"/>
<line x1="250.900000" y1="84.000000" x2="251.800000" y2="84.000000"  style="stroke:black; stroke-linecap:round; stroke-width:0.25;"/>
<line x1="250.900000" y1="148.000000" x2="251.800000" y2="148.000000"  style="stroke:black; stroke-linecap:round; stroke-width:0.25;"/>
<line x1="251.800000" y1="84.000000" x2="259.800000" y2="84.000000"  style="stroke:black; stroke-linecap:round; stroke-width:0.25;"/>
<line x1="251.800000" y1="148.000000" x2="259.800000" y2="148.000000"  style="stroke:black; stroke-linecap:round; stroke-width:0.25;"/>
<line x1="251.800000" y1="156.000000" x2="259.800000" y2="156.000000"  style="stroke:black; stroke-linecap:round; stroke-width:0.25;"/>
<line x1="251.800000" y1="212.000000" x2="251.800000" y2="156.000000"  style="stroke:black; stroke-linecap:round; stroke-width:0.25;"/>
<line x1="251.800000" y1="212.000000" x2="251.800000" y2="212.000000"  style="stroke:black; stroke-linecap:round; stroke-width:0.25;"/>
<line x1="259.800000" y1="84.000000" x2="259.800000" y2="140.000000"  style="stroke:black; stroke-linecap:round; stroke-width:0.25;"/>
<line x1="259.800000" y1="140.000000" x2="259.800000" y2="140.000000"  style="stroke:black; stroke-linecap:round; stroke-width:0.25;"/>
<line x1="259.800000" y1="140.000000" x2="263.800000" y2="140.000000"  style="stroke:black; stroke-linecap:round; stroke-width:0.25;"/>
<line x1="259.800000" y1="148.000000" x2="263.800000" y2="148.000000"  style="stroke:black; stroke-linecap:round; stroke-width:0.25;"/>
<line x1="259.800000" y1="156.000000" x2="263.800000" y2="156.000000"  style="stroke:black; stroke-linecap:round; stroke-width:0.25;"/>
<line x1="263.800000" y1="140.000000" x2="293.800000" y2="136.000000"  style="stroke:black; stroke-linecap:round; stroke-width:0.25;"/>
<line x1="263.800000" y1="148.000000" x2="293.800000" y2="152.000000"  style="stroke:black; stroke-linecap:round; stroke-width:0.25;"/>
<line x1="263.800000" y1="156.000000" x2="293.800000" y2="144.000000"  style="stroke:black; stroke-linecap:round; stroke-width:0.25;"/>
<line x1="263.800000" y1="156.000000" x2="293.800000" y2="160.000000"  style="stroke:black; stroke-linecap:round; stroke-width:0.25;"/>
<line x1="273.900000" y1="36.000000" x2="277.900000" y2="36.000000"  style="stroke:black; stroke-linecap:round; stroke-width:0.25;"/>
<line x1="277.900000" y1="36.000000" x2="345.800000" y2="36.000000"  style="stroke:black; stroke-linecap:round; stroke-width:0.25;"/>
<line x1="293.800000" y1="136.000000" x2="297.800000" y2="136.000000"  style="stroke:black; stroke-linecap:round; stroke-width:0.25;"/>
<line x1="293.800000" y1="144.000000" x2="297.800000" y2="144.000000"  style="stroke:black; stroke-linecap:round; stroke-width:0.25;"/>
<line x1="293.800000" y1="152.000000" x2="297.800000" y2="152.000000"  style="stroke:black; stroke-linecap:round; stroke-width:0.25;"/>
<line x1="293.800000" y1="160.000000" x2="297.800000" y2="160.000000"  style="stroke:black; stroke-linecap:round; stroke-width:0.25;"/>
<line x1="297.800000" y1="128.000000" x2="313.800000" y2="128.000000"  style="stroke:black; stroke-linecap:round; stroke-width:0.25;"/>
<line x1="297.800000" y1="136.000000" x2="297.800000" y2="128.000000"  style="stroke:black; stroke-linecap:round; stroke-width:0.25;"/>
<line x1="297.800000" y1="136.000000" x2="297.800000" y2="136.000000"  style="stroke:black; stroke-linecap:round; stroke-width:0.25;"/>
<line x1="297.800000" y1="144.000000" x2="305.800000" y2="144.000000"  style="stroke:black; stroke-linecap:round; stroke-width:0.25;"/>
<line x1="297.800000" y1="152.000000" x2="313.800000" y2="152.000000"  style="stroke:black; stroke-linecap:round; stroke-width:0.25;"/>
<line x1="297.800000" y1="160.000000" x2="305.800000" y2="160.000000"  style="stroke:black; stroke-linecap:round; stroke-width:0.25;"/>
<line x1="305.800000" y1="136.000000" x2="313.800000" y2="136.000000"  style="stroke:black; stroke-linecap:round; stroke-width:0.25;"/>
<line x1="305.800000" y1="144.000000" x2="305.800000" y2="136.000000"  style="stroke:black; stroke-linecap:round; stroke-width:0.25;"/>
<line x1="305.800000" y1="160.000000" x2="305.800000" y2="168.000000"  style="stroke:black; stroke-linecap:round; stroke-width:0.25;"/>
<line x1="305.800000" y1="168.000000" x2="313.800000" y2="168.000000"  style="stroke:black; stroke-linecap:round; stroke-width:0.25;"/>
<line x1="313.800000" y1="128.000000" x2="317.800000" y2="128.000000"  style="stroke:black; stroke-linecap:round; stroke-width:0.25;"/>
<line x1="313.800000" y1="136.000000" x2="317.800000" y2="136.000000"  style="stroke:black; stroke-linecap:round; stroke-width:0.25;"/>
<line x1="313.800000" y1="152.000000" x2="313.800000" y2="160.000000"  style="stroke:black; stroke-linecap:round; stroke-width:0.25;"/>
<line x1="313.800000" y1="160.000000" x2="313.800000" y2="160.000000"  style="stroke:black; stroke-linecap:round; stroke-width:0.25;"/>
<line x1="313.800000" y1="160.000000" x2="317.800000" y2="160.000000"  style="stroke:black; stroke-linecap:round; stroke-width:0.25;"/>
<line x1="313.800000" y1="168.000000" x2="317.800000" y2="168.000000"  style="stroke:black; stroke-linecap:round; stroke-width:0.25;"/>
<line x1="341.800000" y1="132.000000" x2="345.800000" y2="132.000000"  style="stroke:black; stroke-linecap:round; stroke-width:0.25;"/>
<line x1="341.800000" y1="164.000000" x2="345.800000" y2="164.000000"  style="stroke:black; stroke-linecap:round; stroke-width:0.25;"/>
<line x1="345.800000" y1="36.000000" x2="353.800000" y2="36.000000"  style="stroke:black; stroke-linecap:round; stroke-width:0.25;"/>
<line x1="345.800000" y1="132.000000" x2="353.800000" y2="132.000000"  style="stroke:black; stroke-linecap:round; stroke-width:0.25;"/>
<line x1="345.800000" y1="140.000000" x2="353.800000" y2="140.000000"  style="stroke:black; stroke-linecap:round; stroke-width:0.25;"/>
<line x1="345.800000" y1="164.000000" x2="345.800000" y2="140.000000"  style="stroke:black; stroke-linecap:round; stroke-width:0.25;"/>
<line x1="345.800000" y1="164.000000" x2="345.800000" y2="164.000000"  style="stroke:black; stroke-linecap:round; stroke-width:0.25;"/>
<line x1="353.800000" y1="36.000000" x2="353.800000" y2="124.000000"  style="stroke:black; stroke-linecap:round; stroke-width:0.25;"/>
<line x1="353.800000" y1="124.000000" x2="353.800000" y2="124.000000"  style="stroke:black; stroke-linecap:round; stroke-width:0.25;"/>
<line x1="353.800000" y1="124.000000" x2="357.800000" y2="124.000000"  style="stroke:black; stroke-linecap:round; stroke-width:0.25;"/>
<line x1="353.800000" y1="132.000000" x2="357.800000" y2="132.000000"  style="stroke:black; stroke-linecap:round; stroke-width:0.25;"/>
<line x1="353.800000" y1="140.000000" x2="357.800000" y2="140.000000"  style="stroke:black; stroke-linecap:round; stroke-width:0.25;"/>
<line x1="357.800000" y1="124.000000" x2="361.800000" y2="124.000000"  style="stroke:black; stroke-linecap:round; stroke-width:0.25;"/>
<line x1="357.800000" y1="132.000000" x2="361.800000" y2="132.000000"  style="stroke:black; stroke-linecap:round; stroke-width:0.25;"/>
<line x1="357.800000" y1="140.000000" x2="361.800000" y2="140.000000"  style="stroke:black; stroke-linecap:round; stroke-width:0.25;"/>
<line x1="361.800000" y1="124.000000" x2="371.800000" y2="124.000000"  style="stroke:black; stroke-linecap:round; stroke-width:0.25;"/>
<line x1="361.800000" y1="132.000000" x2="371.800000" y2="132.000000"  style="stroke:black; stroke-linecap:round; stroke-width:0.25;"/>
<line x1="361.800000" y1="140.000000" x2="371.800000" y2="140.000000"  style="stroke:black; stroke-linecap:round; stroke-width:0.25;"/>
</svg>
