<?xml version="1.0"?>
<svg xmlns="http://www.w3.org/2000/svg" xmlns:xlink="http://www.w3.org/1999/xlink" viewBox="0 0 320.700000 328.000000" width="160.350000mm" height="164.000000mm" version="1.1">
<rect x="1.000000" y="1.000000" width="319.700000" height="327.000000" rx="0" ry="0" style="stroke:none;fill:#cccccc;"/>
<rect x="0.000000" y="0.000000" width="319.700000" height="327.000000" rx="0" ry="0" style="stroke:none;fill:#ffffff;"/>
<text x="10.000000" y="7.000000" font-family="Arial" font-size="7"></text>
<rect x="149.350000" y="25.000000" width="24.000000" height="24.000000" rx="0" ry="0" style="stroke:none;fill:#cccccc;"/>
<rect x="148.350000" y="24.000000" width="24.000000" height="24.000000" rx="0" ry="0" style="stroke:none;fill:#4B71A1;"/>
<text x="160.350000" y="38.000000" font-family="Arial" font-size="7" text-anchor="middle" fill="#FFFFFF">int</text>
<circle cx="150.350000" cy="26.000000" r="1"/>
<line x1="145.350000" y1="35.000000" x2="148.350000" y2="36.000000"  transform="rotate(0.000000,148.350000,36.000000)" style="stroke: black; stroke-width:0.25;"/>
<line x1="145.350000" y1="37.000000" x2="148.350000" y2="36.000000"  transform="rotate(0.000000,148.350000,36.000000)" style="stroke: black; stroke-width:0.25;"/>
<rect x="91.000000" y="81.000000" width="24.000000" height="24.000000" rx="0" ry="0" style="stroke:none;fill:#cccccc;"/>
<rect x="90.000000" y="80.000000" width="24.000000" height="24.000000" rx="0" ry="0" style="stroke:none;fill:#4B71A1;"/>
<text x="102.000000" y="94.000000" font-family="Arial" font-size="7" text-anchor="middle" fill="#FFFFFF">int</text>
<circle cx="92.000000" cy="82.000000" r="1"/>
<line x1="87.000000" y1="91.000000" x2="90.000000" y2="92.000000"  transform="rotate(0.000000,90.000000,92.000000)" style="stroke: black; stroke-width:0.25;"/>
<line x1="87.000000" y1="93.000000" x2="90.000000" y2="92.000000"  transform="rotate(0.000000,90.000000,92.000000)" style="stroke: black; stroke-width:0.25;"/>
<rect x="91.000000" y="129.000000" width="24.000000" height="24.000000" rx="0" ry="0" style="stroke:none;fill:#cccccc;"/>
<rect x="90.000000" y="128.000000" width="24.000000" height="24.000000" rx="0" ry="0" style="stroke:none;fill:#4B71A1;"/>
<text x="102.000000" y="142.000000" font-family="Arial" font-size="7" text-anchor="middle" fill="#FFFFFF">mem</text>
<circle cx="92.000000" cy="130.000000" r="1"/>
<line x1="87.000000" y1="139.000000" x2="90.000000" y2="140.000000"  transform="rotate(0.000000,90.000000,140.000000)" style="stroke: black; stroke-width:0.25;"/>
<line x1="87.000000" y1="141.000000" x2="90.000000" y2="140.000000"  transform="rotate(0.000000,90.000000,140.000000)" style="stroke: black; stroke-width:0.25;"/>
<rect x="182.350000" y="57.000000" width="24.000000" height="24.000000" rx="0" ry="0" style="stroke:none;fill:#cccccc;"/>
<rect x="181.350000" y="56.000000" width="24.000000" height="24.000000" rx="0" ry="0" style="stroke:none;fill:#4B71A1;"/>
<text x="193.350000" y="70.000000" font-family="Arial" font-size="7" text-anchor="middle" fill="#FFFFFF">==</text>
<circle cx="183.350000" cy="58.000000" r="1"/>
<line x1="178.350000" y1="63.000000" x2="181.350000" y2="64.000000"  transform="rotate(0.000000,181.350000,64.000000)" style="stroke: black; stroke-width:0.25;"/>
<line x1="178.350000" y1="65.000000" x2="181.350000" y2="64.000000"  transform="rotate(0.000000,181.350000,64.000000)" style="stroke: black; stroke-width:0.25;"/>
<line x1="178.350000" y1="71.000000" x2="181.350000" y2="72.000000"  transform="rotate(0.000000,181.350000,72.000000)" style="stroke: black; stroke-width:0.25;"/>
<line x1="178.350000" y1="73.000000" x2="181.350000" y2="72.000000"  transform="rotate(0.000000,181.350000,72.000000)" style="stroke: black; stroke-width:0.25;"/>
<rect x="155.000000" y="89.000000" width="24.000000" height="24.000000" rx="0" ry="0" style="stroke:none;fill:#cccccc;"/>
<rect x="154.000000" y="88.000000" width="24.000000" height="24.000000" rx="0" ry="0" style="stroke:none;fill:#4B71A1;"/>
<text x="166.000000" y="102.000000" font-family="Arial" font-size="7" text-anchor="middle" fill="#FFFFFF">&lt;</text>
<circle cx="156.000000" cy="90.000000" r="1"/>
<line x1="151.000000" y1="95.000000" x2="154.000000" y2="96.000000"  transform="rotate(0.000000,154.000000,96.000000)" style="stroke: black; stroke-width:0.25;"/>
<line x1="151.000000" y1="97.000000" x2="154.000000" y2="96.000000"  transform="rotate(0.000000,154.000000,96.000000)" style="stroke: black; stroke-width:0.25;"/>
<line x1="151.000000" y1="103.000000" x2="154.000000" y2="104.000000"  transform="rotate(0.000000,154.000000,104.000000)" style="stroke: black; stroke-width:0.25;"/>
<line x1="151.000000" y1="105.000000" x2="154.000000" y2="104.000000"  transform="rotate(0.000000,154.000000,104.000000)" style="stroke: black; stroke-width:0.25;"/>
<rect x="155.000000" y="121.000000" width="24.000000" height="24.000000" rx="0" ry="0" style="stroke:none;fill:#cccccc;"/>
<rect x="154.000000" y="120.000000" width="24.000000" height="24.000000" rx="0" ry="0" style="stroke:none;fill:#f44800;"/>
<text x="166.000000" y="134.000000" font-family="Arial" font-size="7" text-anchor="middle" fill="#FFFFFF">1</text>
<circle cx="156.000000" cy="122.000000" r="1"/>
<rect x="155.000000" y="153.000000" width="24.000000" height="24.000000" rx="0" ry="0" style="stroke:none;fill:#cccccc;"/>
<rect x="154.000000" y="152.000000" width="24.000000" height="24.000000" rx="0" ry="0" style="stroke:none;fill:#f44800;"/>
<text x="166.000000" y="166.000000" font-family="Arial" font-size="7" text-anchor="middle" fill="#FFFFFF">-1</text>
<circle cx="156.000000" cy="154.000000" r="1"/>
<rect x="195.000000" y="121.000000" width="38.700000" height="24.000000" rx="0" ry="0" style="stroke:none;fill:#cccccc;"/>
<rect x="194.000000" y="120.000000" width="38.700000" height="24.000000" rx="0" ry="0" style="stroke:none;fill:#4B71A1;"/>
<text x="213.350000" y="134.000000" font-family="Arial" font-size="7" text-anchor="middle" fill="#FFFFFF">select2</text>
<circle cx="196.000000" cy="122.000000" r="1"/>
<line x1="191.000000" y1="123.000000" x2="194.000000" y2="124.000000"  transform="rotate(0.000000,194.000000,124.000000)" style="stroke: black; stroke-width:0.25;"/>
<line x1="191.000000" y1="125.000000" x2="194.000000" y2="124.000000"  transform="rotate(0.000000,194.000000,124.000000)" style="stroke: black; stroke-width:0.25;"/>
<line x1="191.000000" y1="131.000000" x2="194.000000" y2="132.000000"  transform="rotate(0.000000,194.000000,132.000000)" style="stroke: black; stroke-width:0.25;"/>
<line x1="191.000000" y1="133.000000" x2="194.000000" y2="132.000000"  transform="rotate(0.000000,194.000000,132.000000)" style="stroke: black; stroke-width:0.25;"/>
<line x1="191.000000" y1="139.000000" x2="194.000000" y2="140.000000"  transform="rotate(0.000000,194.000000,140.000000)" style="stroke: black; stroke-width:0.25;"/>
<line x1="191.000000" y1="141.000000" x2="194.000000" y2="140.000000"  transform="rotate(0.000000,194.000000,140.000000)" style="stroke: black; stroke-width:0.25;"/>
<rect x="249.700000" y="105.000000" width="24.000000" height="24.000000" rx="0" ry="0" style="stroke:none;fill:#cccccc;"/>
<rect x="248.700000" y="104.000000" width="24.000000" height="24.000000" rx="0" ry="0" style="stroke:none;fill:#4B71A1;"/>
<text x="260.700000" y="118.000000" font-family="Arial" font-size="7" text-anchor="middle" fill="#FFFFFF">*</text>
<circle cx="250.700000" cy="106.000000" r="1"/>
<line x1="245.700000" y1="111.000000" x2="248.700000" y2="112.000000"  transform="rotate(0.000000,248.700000,112.000000)" style="stroke: black; stroke-width:0.25;"/>
<line x1="245.700000" y1="113.000000" x2="248.700000" y2="112.000000"  transform="rotate(0.000000,248.700000,112.000000)" style="stroke: black; stroke-width:0.25;"/>
<line x1="245.700000" y1="119.000000" x2="248.700000" y2="120.000000"  transform="rotate(0.000000,248.700000,120.000000)" style="stroke: black; stroke-width:0.25;"/>
<line x1="245.700000" y1="121.000000" x2="248.700000" y2="120.000000"  transform="rotate(0.000000,248.700000,120.000000)" style="stroke: black; stroke-width:0.25;"/>
<rect x="91.000000" y="209.000000" width="24.000000" height="24.000000" rx="0" ry="0" style="stroke:none;fill:#cccccc;"/>
<rect x="90.000000" y="208.000000" width="24.000000" height="24.000000" rx="0" ry="0" style="stroke:none;fill:#4B71A1;"/>
<text x="102.000000" y="222.000000" font-family="Arial" font-size="7" text-anchor="middle" fill="#FFFFFF">int</text>
<circle cx="92.000000" cy="210.000000" r="1"/>
<line x1="87.000000" y1="219.000000" x2="90.000000" y2="220.000000"  transform="rotate(0.000000,90.000000,220.000000)" style="stroke: black; stroke-width:0.25;"/>
<line x1="87.000000" y1="221.000000" x2="90.000000" y2="220.000000"  transform="rotate(0.000000,90.000000,220.000000)" style="stroke: black; stroke-width:0.25;"/>
<rect x="91.000000" y="257.000000" width="24.000000" height="24.000000" rx="0" ry="0" style="stroke:none;fill:#cccccc;"/>
<rect x="90.000000" y="256.000000" width="24.000000" height="24.000000" rx="0" ry="0" style="stroke:none;fill:#4B71A1;"/>
<text x="102.000000" y="270.000000" font-family="Arial" font-size="7" text-anchor="middle" fill="#FFFFFF">mem</text>
<circle cx="92.000000" cy="258.000000" r="1"/>
<line x1="87.000000" y1="267.000000" x2="90.000000" y2="268.000000"  transform="rotate(0.000000,90.000000,268.000000)" style="stroke: black; stroke-width:0.25;"/>
<line x1="87.000000" y1="269.000000" x2="90.000000" y2="268.000000"  transform="rotate(0.000000,90.000000,268.000000)" style="stroke: black; stroke-width:0.25;"/>
<rect x="182.350000" y="185.000000" width="24.000000" height="24.000000" rx="0" ry="0" style="stroke:none;fill:#cccccc;"/>
<rect x="181.350000" y="184.000000" width="24.000000" height="24.000000" rx="0" ry="0" style="stroke:none;fill:#4B71A1;"/>
<text x="193.350000" y="198.000000" font-family="Arial" font-size="7" text-anchor="middle" fill="#FFFFFF">==</text>
<circle cx="183.350000" cy="186.000000" r="1"/>
<line x1="178.350000" y1="191.000000" x2="181.350000" y2="192.000000"  transform="rotate(0.000000,181.350000,192.000000)" style="stroke: black; stroke-width:0.25;"/>
<line x1="178.350000" y1="193.000000" x2="181.350000" y2="192.000000"  transform="rotate(0.000000,181.350000,192.000000)" style="stroke: black; stroke-width:0.25;"/>
<line x1="178.350000" y1="199.000000" x2="181.350000" y2="200.000000"  transform="rotate(0.000000,181.350000,200.000000)" style="stroke: black; stroke-width:0.25;"/>
<line x1="178.350000" y1="201.000000" x2="181.350000" y2="200.000000"  transform="rotate(0.000000,181.350000,200.000000)" style="stroke: black; stroke-width:0.25;"/>
<rect x="155.000000" y="217.000000" width="24.000000" height="24.000000" rx="0" ry="0" style="stroke:none;fill:#cccccc;"/>
<rect x="154.000000" y="216.000000" width="24.000000" height="24.000000" rx="0" ry="0" style="stroke:none;fill:#4B71A1;"/>
<text x="166.000000" y="230.000000" font-family="Arial" font-size="7" text-anchor="middle" fill="#FFFFFF">&lt;</text>
<circle cx="156.000000" cy="218.000000" r="1"/>
<line x1="151.000000" y1="223.000000" x2="154.000000" y2="224.000000"  transform="rotate(0.000000,154.000000,224.000000)" style="stroke: black; stroke-width:0.25;"/>
<line x1="151.000000" y1="225.000000" x2="154.000000" y2="224.000000"  transform="rotate(0.000000,154.000000,224.000000)" style="stroke: black; stroke-width:0.25;"/>
<line x1="151.000000" y1="231.000000" x2="154.000000" y2="232.000000"  transform="rotate(0.000000,154.000000,232.000000)" style="stroke: black; stroke-width:0.25;"/>
<line x1="151.000000" y1="233.000000" x2="154.000000" y2="232.000000"  transform="rotate(0.000000,154.000000,232.000000)" style="stroke: black; stroke-width:0.25;"/>
<rect x="155.000000" y="249.000000" width="24.000000" height="24.000000" rx="0" ry="0" style="stroke:none;fill:#cccccc;"/>
<rect x="154.000000" y="248.000000" width="24.000000" height="24.000000" rx="0" ry="0" style="stroke:none;fill:#f44800;"/>
<text x="166.000000" y="262.000000" font-family="Arial" font-size="7" text-anchor="middle" fill="#FFFFFF">1</text>
<circle cx="156.000000" cy="250.000000" r="1"/>
<rect x="155.000000" y="281.000000" width="24.000000" height="24.000000" rx="0" ry="0" style="stroke:none;fill:#cccccc;"/>
<rect x="154.000000" y="280.000000" width="24.000000" height="24.000000" rx="0" ry="0" style="stroke:none;fill:#f44800;"/>
<text x="166.000000" y="294.000000" font-family="Arial" font-size="7" text-anchor="middle" fill="#FFFFFF">-1</text>
<circle cx="156.000000" cy="282.000000" r="1"/>
<rect x="195.000000" y="249.000000" width="38.700000" height="24.000000" rx="0" ry="0" style="stroke:none;fill:#cccccc;"/>
<rect x="194.000000" y="248.000000" width="38.700000" height="24.000000" rx="0" ry="0" style="stroke:none;fill:#4B71A1;"/>
<text x="213.350000" y="262.000000" font-family="Arial" font-size="7" text-anchor="middle" fill="#FFFFFF">select2</text>
<circle cx="196.000000" cy="250.000000" r="1"/>
<line x1="191.000000" y1="251.000000" x2="194.000000" y2="252.000000"  transform="rotate(0.000000,194.000000,252.000000)" style="stroke: black; stroke-width:0.25;"/>
<line x1="191.000000" y1="253.000000" x2="194.000000" y2="252.000000"  transform="rotate(0.000000,194.000000,252.000000)" style="stroke: black; stroke-width:0.25;"/>
<line x1="191.000000" y1="259.000000" x2="194.000000" y2="260.000000"  transform="rotate(0.000000,194.000000,260.000000)" style="stroke: black; stroke-width:0.25;"/>
<line x1="191.000000" y1="261.000000" x2="194.000000" y2="260.000000"  transform="rotate(0.000000,194.000000,260.000000)" style="stroke: black; stroke-width:0.25;"/>
<line x1="191.000000" y1="267.000000" x2="194.000000" y2="268.000000"  transform="rotate(0.000000,194.000000,268.000000)" style="stroke: black; stroke-width:0.25;"/>
<line x1="191.000000" y1="269.000000" x2="194.000000" y2="268.000000"  transform="rotate(0.000000,194.000000,268.000000)" style="stroke: black; stroke-width:0.25;"/>
<rect x="249.700000" y="233.000000" width="24.000000" height="24.000000" rx="0" ry="0" style="stroke:none;fill:#cccccc;"/>
<rect x="248.700000" y="232.000000" width="24.000000" height="24.000000" rx="0" ry="0" style="stroke:none;fill:#4B71A1;"/>
<text x="260.700000" y="246.000000" font-family="Arial" font-size="7" text-anchor="middle" fill="#FFFFFF">*</text>
<circle cx="250.700000" cy="234.000000" r="1"/>
<line x1="245.700000" y1="239.000000" x2="248.700000" y2="240.000000"  transform="rotate(0.000000,248.700000,240.000000)" style="stroke: black; stroke-width:0.25;"/>
<line x1="245.700000" y1="241.000000" x2="248.700000" y2="240.000000"  transform="rotate(0.000000,248.700000,240.000000)" style="stroke: black; stroke-width:0.25;"/>
<line x1="245.700000" y1="247.000000" x2="248.700000" y2="248.000000"  transform="rotate(0.000000,248.700000,248.000000)" style="stroke: black; stroke-width:0.25;"/>
<line x1="245.700000" y1="249.000000" x2="248.700000" y2="248.000000"  transform="rotate(0.000000,248.700000,248.000000)" style="stroke: black; stroke-width:0.25;"/>
<line x1="15.000000" y1="15.000000" x2="15.000000" y2="313.000000"  style="stroke: black; stroke-linecap:round; stroke-width:0.25; stroke-dasharray:3,3;"/>
<line x1="15.000000" y1="313.000000" x2="305.700000" y2="313.000000"  style="stroke: black; stroke-linecap:round; stroke-width:0.25; stroke-dasharray:3,3;"/>
<line x1="305.700000" y1="313.000000" x2="305.700000" y2="15.000000"  style="stroke: black; stroke-linecap:round; stroke-width:0.25; stroke-dasharray:3,3;"/>
<line x1="15.000000" y1="15.000000" x2="20.000000" y2="15.000000"  style="stroke: black; stroke-linecap:round; stroke-width:0.25; stroke-dasharray:3,3;"/>
<line x1="49.025000" y1="15.000000" x2="305.700000" y2="15.000000"  style="stroke: black; stroke-linecap:round; stroke-width:0.25; stroke-dasharray:3,3;"/>
<text x="20.000000" y="17.000000" font-family="Arial" font-size="7">process</text>
<line x1="307.700000" y1="155.000000" x2="310.700000" y2="156.000000"  transform="rotate(0.000000,310.700000,156.000000)" style="stroke: black; stroke-width:0.25;"/>
<line x1="307.700000" y1="157.000000" x2="310.700000" y2="156.000000"  transform="rotate(0.000000,310.700000,156.000000)" style="stroke: black; stroke-width:0.25;"/>
<line x1="307.700000" y1="163.000000" x2="310.700000" y2="164.000000"  transform="rotate(0.000000,310.700000,164.000000)" style="stroke: black; stroke-width:0.25;"/>
<line x1="307.700000" y1="165.000000" x2="310.700000" y2="164.000000"  transform="rotate(0.000000,310.700000,164.000000)" style="stroke: black; stroke-width:0.25;"/>
<line x1="307.700000" y1="171.000000" x2="310.700000" y2="172.000000"  transform="rotate(0.000000,310.700000,172.000000)" style="stroke: black; stroke-width:0.25;"/>
<line x1="307.700000" y1="173.000000" x2="310.700000" y2="172.000000"  transform="rotate(0.000000,310.700000,172.000000)" style="stroke: black; stroke-width:0.25;"/>
<line x1="10.000000" y1="156.000000" x2="20.000000" y2="156.000000"  style="stroke:black; stroke-linecap:round; stroke-width:0.25;"/>
<line x1="10.000000" y1="164.000000" x2="20.000000" y2="164.000000"  style="stroke:black; stroke-linecap:round; stroke-width:0.25;"/>
<line x1="10.000000" y1="172.000000" x2="20.000000" y2="172.000000"  style="stroke:black; stroke-linecap:round; stroke-width:0.25;"/>
<line x1="20.000000" y1="156.000000" x2="24.000000" y2="156.000000"  style="stroke:black; stroke-linecap:round; stroke-width:0.25;"/>
<line x1="20.000000" y1="164.000000" x2="24.000000" y2="164.000000"  style="stroke:black; stroke-linecap:round; stroke-width:0.25;"/>
<line x1="20.000000" y1="172.000000" x2="24.000000" y2="172.000000"  style="stroke:black; stroke-linecap:round; stroke-width:0.25;"/>
<line x1="24.000000" y1="156.000000" x2="28.000000" y2="156.000000"  style="stroke:black; stroke-linecap:round; stroke-width:0.25;"/>
<line x1="24.000000" y1="164.000000" x2="28.000000" y2="164.000000"  style="stroke:black; stroke-linecap:round; stroke-width:0.25;"/>
<line x1="24.000000" y1="172.000000" x2="28.000000" y2="172.000000"  style="stroke:black; stroke-linecap:round; stroke-width:0.25;"/>
<line x1="28.000000" y1="36.000000" x2="44.000000" y2="36.000000"  style="stroke:black; stroke-linecap:round; stroke-width:0.25;"/>
<line x1="28.000000" y1="156.000000" x2="28.000000" y2="36.000000"  style="stroke:black; stroke-linecap:round; stroke-width:0.25;"/>
<line x1="28.000000" y1="156.000000" x2="28.000000" y2="156.000000"  style="stroke:black; stroke-linecap:round; stroke-width:0.25;"/>
<line x1="28.000000" y1="164.000000" x2="36.000000" y2="164.000000"  style="stroke:black; stroke-linecap:round; stroke-width:0.25;"/>
<line x1="28.000000" y1="172.000000" x2="44.000000" y2="172.000000"  style="stroke:black; stroke-linecap:round; stroke-width:0.25;"/>
<line x1="36.000000" y1="116.000000" x2="44.000000" y2="116.000000"  style="stroke:black; stroke-linecap:round; stroke-width:0.25;"/>
<line x1="36.000000" y1="164.000000" x2="36.000000" y2="116.000000"  style="stroke:black; stroke-linecap:round; stroke-width:0.25;"/>
<line x1="44.000000" y1="36.000000" x2="144.350000" y2="36.000000"  style="stroke:black; stroke-linecap:round; stroke-width:0.25;"/>
<line x1="44.000000" y1="116.000000" x2="48.000000" y2="116.000000"  style="stroke:black; stroke-linecap:round; stroke-width:0.25;"/>
<line x1="44.000000" y1="172.000000" x2="44.000000" y2="244.000000"  style="stroke:black; stroke-linecap:round; stroke-width:0.25;"/>
<line x1="44.000000" y1="244.000000" x2="44.000000" y2="244.000000"  style="stroke:black; stroke-linecap:round; stroke-width:0.25;"/>
<line x1="44.000000" y1="244.000000" x2="48.000000" y2="244.000000"  style="stroke:black; stroke-linecap:round; stroke-width:0.25;"/>
<line x1="48.000000" y1="116.000000" x2="52.000000" y2="116.000000"  style="stroke:black; stroke-linecap:round; stroke-width:0.25;"/>
<line x1="48.000000" y1="244.000000" x2="52.000000" y2="244.000000"  style="stroke:black; stroke-linecap:round; stroke-width:0.25;"/>
<line x1="52.000000" y1="116.000000" x2="86.000000" y2="92.000000"  style="stroke:black; stroke-linecap:round; stroke-width:0.25;"/>
<line x1="52.000000" y1="116.000000" x2="86.000000" y2="116.000000"  style="stroke:black; stroke-linecap:round; stroke-width:0.25;"/>
<line x1="52.000000" y1="116.000000" x2="86.000000" y2="140.000000"  style="stroke:black; stroke-linecap:round; stroke-width:0.25;"/>
<line x1="52.000000" y1="244.000000" x2="86.000000" y2="220.000000"  style="stroke:black; stroke-linecap:round; stroke-width:0.25;"/>
<line x1="52.000000" y1="244.000000" x2="86.000000" y2="244.000000"  style="stroke:black; stroke-linecap:round; stroke-width:0.25;"/>
<line x1="52.000000" y1="244.000000" x2="86.000000" y2="268.000000"  style="stroke:black; stroke-linecap:round; stroke-width:0.25;"/>
<line x1="86.000000" y1="92.000000" x2="90.000000" y2="92.000000"  style="stroke:black; stroke-linecap:round; stroke-width:0.25;"/>
<line x1="86.000000" y1="116.000000" x2="91.000000" y2="116.000000"  style="stroke:black; stroke-linecap:round; stroke-width:0.25;"/>
<line x1="86.000000" y1="140.000000" x2="86.000000" y2="140.000000"  style="stroke:black; stroke-linecap:round; stroke-width:0.25;"/>
<line x1="86.000000" y1="140.000000" x2="90.000000" y2="140.000000"  style="stroke:black; stroke-linecap:round; stroke-width:0.25;"/>
<line x1="86.000000" y1="220.000000" x2="90.000000" y2="220.000000"  style="stroke:black; stroke-linecap:round; stroke-width:0.25;"/>
<line x1="86.000000" y1="244.000000" x2="91.000000" y2="244.000000"  style="stroke:black; stroke-linecap:round; stroke-width:0.25;"/>
<line x1="86.000000" y1="268.000000" x2="86.000000" y2="268.000000"  style="stroke:black; stroke-linecap:round; stroke-width:0.25;"/>
<line x1="86.000000" y1="268.000000" x2="90.000000" y2="268.000000"  style="stroke:black; stroke-linecap:round; stroke-width:0.25;"/>
<line x1="91.000000" y1="116.000000" x2="95.000000" y2="116.000000"  style="stroke:black; stroke-linecap:round; stroke-width:0.25;"/>
<line x1="91.000000" y1="244.000000" x2="95.000000" y2="244.000000"  style="stroke:black; stroke-linecap:round; stroke-width:0.25;"/>
<line x1="95.000000" y1="116.000000" x2="99.000000" y2="116.000000"  style="stroke:black; stroke-linecap:round; stroke-width:0.25;"/>
<line x1="95.000000" y1="244.000000" x2="99.000000" y2="244.000000"  style="stroke:black; stroke-linecap:round; stroke-width:0.25;"/>
<line x1="99.000000" y1="116.000000" x2="105.000000" y2="112.000000"  style="stroke:black; stroke-linecap:round; stroke-width:0.25;"/>
<line x1="99.000000" y1="116.000000" x2="105.000000" y2="120.000000"  style="stroke:black; stroke-linecap:round; stroke-width:0.25;"/>
<line x1="99.000000" y1="244.000000" x2="105.000000" y2="240.000000"  style="stroke:black; stroke-linecap:round; stroke-width:0.25;"/>
<line x1="99.000000" y1="244.000000" x2="105.000000" y2="248.000000"  style="stroke:black; stroke-linecap:round; stroke-width:0.25;"/>
<line x1="105.000000" y1="112.000000" x2="109.000000" y2="112.000000"  style="stroke:black; stroke-linecap:round; stroke-width:0.25;"/>
<line x1="105.000000" y1="120.000000" x2="109.000000" y2="120.000000"  style="stroke:black; stroke-linecap:round; stroke-width:0.25;"/>
<line x1="105.000000" y1="240.000000" x2="109.000000" y2="240.000000"  style="stroke:black; stroke-linecap:round; stroke-width:0.25;"/>
<line x1="105.000000" y1="248.000000" x2="109.000000" y2="248.000000"  style="stroke:black; stroke-linecap:round; stroke-width:0.25;"/>
<line x1="109.000000" y1="112.000000" x2="113.000000" y2="112.000000"  style="stroke:black; stroke-linecap:round; stroke-width:0.25;"/>
<line x1="109.000000" y1="120.000000" x2="113.000000" y2="120.000000"  style="stroke:black; stroke-linecap:round; stroke-width:0.25;"/>
<line x1="109.000000" y1="240.000000" x2="113.000000" y2="240.000000"  style="stroke:black; stroke-linecap:round; stroke-width:0.25;"/>
<line x1="109.000000" y1="248.000000" x2="113.000000" y2="248.000000"  style="stroke:black; stroke-linecap:round; stroke-width:0.25;"/>
<line x1="113.000000" y1="112.000000" x2="118.000000" y2="112.000000"  style="stroke:black; stroke-linecap:round; stroke-width:0.25;"/>
<line x1="113.000000" y1="120.000000" x2="118.000000" y2="120.000000"  style="stroke:black; stroke-linecap:round; stroke-width:0.25;"/>
<line x1="113.000000" y1="240.000000" x2="118.000000" y2="240.000000"  style="stroke:black; stroke-linecap:round; stroke-width:0.25;"/>
<line x1="113.000000" y1="248.000000" x2="118.000000" y2="248.000000"  style="stroke:black; stroke-linecap:round; stroke-width:0.25;"/>
<line x1="114.000000" y1="92.000000" x2="118.000000" y2="92.000000"  style="stroke:black; stroke-linecap:round; stroke-width:0.25;"/>
<line x1="114.000000" y1="140.000000" x2="118.000000" y2="140.000000"  style="stroke:black; stroke-linecap:round; stroke-width:0.25;"/>
<line x1="114.000000" y1="220.000000" x2="118.000000" y2="220.000000"  style="stroke:black; stroke-linecap:round; stroke-width:0.25;"/>
<line x1="114.000000" y1="268.000000" x2="118.000000" y2="268.000000"  style="stroke:black; stroke-linecap:round; stroke-width:0.25;"/>
<line x1="118.000000" y1="64.000000" x2="150.000000" y2="64.000000"  style="stroke:black; stroke-linecap:round; stroke-width:0.25;"/>
<line x1="118.000000" y1="92.000000" x2="118.000000" y2="64.000000"  style="stroke:black; stroke-linecap:round; stroke-width:0.25;"/>
<line x1="118.000000" y1="92.000000" x2="118.000000" y2="92.000000"  style="stroke:black; stroke-linecap:round; stroke-width:0.25;"/>
<line x1="118.000000" y1="112.000000" x2="126.000000" y2="112.000000"  style="stroke:black; stroke-linecap:round; stroke-width:0.25;"/>
<line x1="118.000000" y1="120.000000" x2="134.000000" y2="120.000000"  style="stroke:black; stroke-linecap:round; stroke-width:0.25;"/>
<line x1="118.000000" y1="140.000000" x2="142.000000" y2="140.000000"  style="stroke:black; stroke-linecap:round; stroke-width:0.25;"/>
<line x1="118.000000" y1="192.000000" x2="150.000000" y2="192.000000"  style="stroke:black; stroke-linecap:round; stroke-width:0.25;"/>
<line x1="118.000000" y1="220.000000" x2="118.000000" y2="192.000000"  style="stroke:black; stroke-linecap:round; stroke-width:0.25;"/>
<line x1="118.000000" y1="220.000000" x2="118.000000" y2="220.000000"  style="stroke:black; stroke-linecap:round; stroke-width:0.25;"/>
<line x1="118.000000" y1="240.000000" x2="126.000000" y2="240.000000"  style="stroke:black; stroke-linecap:round; stroke-width:0.25;"/>
<line x1="118.000000" y1="248.000000" x2="134.000000" y2="248.000000"  style="stroke:black; stroke-linecap:round; stroke-width:0.25;"/>
<line x1="118.000000" y1="268.000000" x2="142.000000" y2="268.000000"  style="stroke:black; stroke-linecap:round; stroke-width:0.25;"/>
<line x1="126.000000" y1="72.000000" x2="150.000000" y2="72.000000"  style="stroke:black; stroke-linecap:round; stroke-width:0.25;"/>
<line x1="126.000000" y1="112.000000" x2="126.000000" y2="72.000000"  style="stroke:black; stroke-linecap:round; stroke-width:0.25;"/>
<line x1="126.000000" y1="200.000000" x2="150.000000" y2="200.000000"  style="stroke:black; stroke-linecap:round; stroke-width:0.25;"/>
<line x1="126.000000" y1="240.000000" x2="126.000000" y2="200.000000"  style="stroke:black; stroke-linecap:round; stroke-width:0.25;"/>
<line x1="134.000000" y1="96.000000" x2="150.000000" y2="96.000000"  style="stroke:black; stroke-linecap:round; stroke-width:0.25;"/>
<line x1="134.000000" y1="120.000000" x2="134.000000" y2="96.000000"  style="stroke:black; stroke-linecap:round; stroke-width:0.25;"/>
<line x1="134.000000" y1="224.000000" x2="150.000000" y2="224.000000"  style="stroke:black; stroke-linecap:round; stroke-width:0.25;"/>
<line x1="134.000000" y1="248.000000" x2="134.000000" y2="224.000000"  style="stroke:black; stroke-linecap:round; stroke-width:0.25;"/>
<line x1="142.000000" y1="104.000000" x2="150.000000" y2="104.000000"  style="stroke:black; stroke-linecap:round; stroke-width:0.25;"/>
<line x1="142.000000" y1="140.000000" x2="142.000000" y2="104.000000"  style="stroke:black; stroke-linecap:round; stroke-width:0.25;"/>
<line x1="142.000000" y1="232.000000" x2="150.000000" y2="232.000000"  style="stroke:black; stroke-linecap:round; stroke-width:0.25;"/>
<line x1="142.000000" y1="268.000000" x2="142.000000" y2="232.000000"  style="stroke:black; stroke-linecap:round; stroke-width:0.25;"/>
<line x1="144.350000" y1="36.000000" x2="148.350000" y2="36.000000"  style="stroke:black; stroke-linecap:round; stroke-width:0.25;"/>
<line x1="150.000000" y1="64.000000" x2="177.350000" y2="64.000000"  style="stroke:black; stroke-linecap:round; stroke-width:0.25;"/>
<line x1="150.000000" y1="72.000000" x2="177.350000" y2="72.000000"  style="stroke:black; stroke-linecap:round; stroke-width:0.25;"/>
<line x1="150.000000" y1="96.000000" x2="154.000000" y2="96.000000"  style="stroke:black; stroke-linecap:round; stroke-width:0.25;"/>
<line x1="150.000000" y1="104.000000" x2="154.000000" y2="104.000000"  style="stroke:black; stroke-linecap:round; stroke-width:0.25;"/>
<line x1="150.000000" y1="192.000000" x2="177.350000" y2="192.000000"  style="stroke:black; stroke-linecap:round; stroke-width:0.25;"/>
<line x1="150.000000" y1="200.000000" x2="177.350000" y2="200.000000"  style="stroke:black; stroke-linecap:round; stroke-width:0.25;"/>
<line x1="150.000000" y1="224.000000" x2="154.000000" y2="224.000000"  style="stroke:black; stroke-linecap:round; stroke-width:0.25;"/>
<line x1="150.000000" y1="232.000000" x2="154.000000" y2="232.000000"  style="stroke:black; stroke-linecap:round; stroke-width:0.25;"/>
<line x1="172.350000" y1="36.000000" x2="176.350000" y2="36.000000"  style="stroke:black; stroke-linecap:round; stroke-width:0.25;"/>
<line x1="176.350000" y1="36.000000" x2="276.700000" y2="36.000000"  style="stroke:black; stroke-linecap:round; stroke-width:0.25;"/>
<line x1="177.350000" y1="64.000000" x2="181.350000" y2="64.000000"  style="stroke:black; stroke-linecap:round; stroke-width:0.25;"/>
<line x1="177.350000" y1="72.000000" x2="181.350000" y2="72.000000"  style="stroke:black; stroke-linecap:round; stroke-width:0.25;"/>
<line x1="177.350000" y1="192.000000" x2="181.350000" y2="192.000000"  style="stroke:black; stroke-linecap:round; stroke-width:0.25;"/>
<line x1="177.350000" y1="200.000000" x2="181.350000" y2="200.000000"  style="stroke:black; stroke-linecap:round; stroke-width:0.25;"/>
<line x1="178.000000" y1="100.000000" x2="182.000000" y2="100.000000"  style="stroke:black; stroke-linecap:round; stroke-width:0.25;"/>
<line x1="178.000000" y1="132.000000" x2="182.000000" y2="132.000000"  style="stroke:black; stroke-linecap:round; stroke-width:0.25;"/>
<line x1="178.000000" y1="164.000000" x2="182.000000" y2="164.000000"  style="stroke:black; stroke-linecap:round; stroke-width:0.25;"/>
<line x1="178.000000" y1="228.000000" x2="182.000000" y2="228.000000"  style="stroke:black; stroke-linecap:round; stroke-width:0.25;"/>
<line x1="178.000000" y1="260.000000" x2="182.000000" y2="260.000000"  style="stroke:black; stroke-linecap:round; stroke-width:0.25;"/>
<line x1="178.000000" y1="292.000000" x2="182.000000" y2="292.000000"  style="stroke:black; stroke-linecap:round; stroke-width:0.25;"/>
<line x1="182.000000" y1="100.000000" x2="190.000000" y2="100.000000"  style="stroke:black; stroke-linecap:round; stroke-width:0.25;"/>
<line x1="182.000000" y1="132.000000" x2="190.000000" y2="132.000000"  style="stroke:black; stroke-linecap:round; stroke-width:0.25;"/>
<line x1="182.000000" y1="140.000000" x2="190.000000" y2="140.000000"  style="stroke:black; stroke-linecap:round; stroke-width:0.25;"/>
<line x1="182.000000" y1="164.000000" x2="182.000000" y2="140.000000"  style="stroke:black; stroke-linecap:round; stroke-width:0.25;"/>
<line x1="182.000000" y1="164.000000" x2="182.000000" y2="164.000000"  style="stroke:black; stroke-linecap:round; stroke-width:0.25;"/>
<line x1="182.000000" y1="228.000000" x2="190.000000" y2="228.000000"  style="stroke:black; stroke-linecap:round; stroke-width:0.25;"/>
<line x1="182.000000" y1="260.000000" x2="190.000000" y2="260.000000"  style="stroke:black; stroke-linecap:round; stroke-width:0.25;"/>
<line x1="182.000000" y1="268.000000" x2="190.000000" y2="268.000000"  style="stroke:black; stroke-linecap:round; stroke-width:0.25;"/>
<line x1="182.000000" y1="292.000000" x2="182.000000" y2="268.000000"  style="stroke:black; stroke-linecap:round; stroke-width:0.25;"/>
<line x1="182.000000" y1="292.000000" x2="182.000000" y2="292.000000"  style="stroke:black; stroke-linecap:round; stroke-width:0.25;"/>
<line x1="190.000000" y1="100.000000" x2="190.000000" y2="124.000000"  style="stroke:black; stroke-linecap:round; stroke-width:0.25;"/>
<line x1="190.000000" y1="124.000000" x2="190.000000" y2="124.000000"  style="stroke:black; stroke-linecap:round; stroke-width:0.25;"/>
<line x1="190.000000" y1="124.000000" x2="194.000000" y2="124.000000"  style="stroke:black; stroke-linecap:round; stroke-width:0.25;"/>
<line x1="190.000000" y1="132.000000" x2="194.000000" y2="132.000000"  style="stroke:black; stroke-linecap:round; stroke-width:0.25;"/>
<line x1="190.000000" y1="140.000000" x2="194.000000" y2="140.000000"  style="stroke:black; stroke-linecap:round; stroke-width:0.25;"/>
<line x1="190.000000" y1="228.000000" x2="190.000000" y2="252.000000"  style="stroke:black; stroke-linecap:round; stroke-width:0.25;"/>
<line x1="190.000000" y1="252.000000" x2="190.000000" y2="252.000000"  style="stroke:black; stroke-linecap:round; stroke-width:0.25;"/>
<line x1="190.000000" y1="252.000000" x2="194.000000" y2="252.000000"  style="stroke:black; stroke-linecap:round; stroke-width:0.25;"/>
<line x1="190.000000" y1="260.000000" x2="194.000000" y2="260.000000"  style="stroke:black; stroke-linecap:round; stroke-width:0.25;"/>
<line x1="190.000000" y1="268.000000" x2="194.000000" y2="268.000000"  style="stroke:black; stroke-linecap:round; stroke-width:0.25;"/>
<line x1="205.350000" y1="68.000000" x2="209.350000" y2="68.000000"  style="stroke:black; stroke-linecap:round; stroke-width:0.25;"/>
<line x1="205.350000" y1="196.000000" x2="209.350000" y2="196.000000"  style="stroke:black; stroke-linecap:round; stroke-width:0.25;"/>
<line x1="209.350000" y1="68.000000" x2="236.700000" y2="68.000000"  style="stroke:black; stroke-linecap:round; stroke-width:0.25;"/>
<line x1="209.350000" y1="196.000000" x2="236.700000" y2="196.000000"  style="stroke:black; stroke-linecap:round; stroke-width:0.25;"/>
<line x1="232.700000" y1="132.000000" x2="236.700000" y2="132.000000"  style="stroke:black; stroke-linecap:round; stroke-width:0.25;"/>
<line x1="232.700000" y1="260.000000" x2="236.700000" y2="260.000000"  style="stroke:black; stroke-linecap:round; stroke-width:0.25;"/>
<line x1="236.700000" y1="68.000000" x2="244.700000" y2="68.000000"  style="stroke:black; stroke-linecap:round; stroke-width:0.25;"/>
<line x1="236.700000" y1="120.000000" x2="244.700000" y2="120.000000"  style="stroke:black; stroke-linecap:round; stroke-width:0.25;"/>
<line x1="236.700000" y1="132.000000" x2="236.700000" y2="120.000000"  style="stroke:black; stroke-linecap:round; stroke-width:0.25;"/>
<line x1="236.700000" y1="132.000000" x2="236.700000" y2="132.000000"  style="stroke:black; stroke-linecap:round; stroke-width:0.25;"/>
<line x1="236.700000" y1="196.000000" x2="244.700000" y2="196.000000"  style="stroke:black; stroke-linecap:round; stroke-width:0.25;"/>
<line x1="236.700000" y1="248.000000" x2="244.700000" y2="248.000000"  style="stroke:black; stroke-linecap:round; stroke-width:0.25;"/>
<line x1="236.700000" y1="260.000000" x2="236.700000" y2="248.000000"  style="stroke:black; stroke-linecap:round; stroke-width:0.25;"/>
<line x1="236.700000" y1="260.000000" x2="236.700000" y2="260.000000"  style="stroke:black; stroke-linecap:round; stroke-width:0.25;"/>
<line x1="244.700000" y1="68.000000" x2="244.700000" y2="112.000000"  style="stroke:black; stroke-linecap:round; stroke-width:0.25;"/>
<line x1="244.700000" y1="112.000000" x2="244.700000" y2="112.000000"  style="stroke:black; stroke-linecap:round; stroke-width:0.25;"/>
<line x1="244.700000" y1="112.000000" x2="248.700000" y2="112.000000"  style="stroke:black; stroke-linecap:round; stroke-width:0.25;"/>
<line x1="244.700000" y1="120.000000" x2="248.700000" y2="120.000000"  style="stroke:black; stroke-linecap:round; stroke-width:0.25;"/>
<line x1="244.700000" y1="196.000000" x2="244.700000" y2="240.000000"  style="stroke:black; stroke-linecap:round; stroke-width:0.25;"/>
<line x1="244.700000" y1="240.000000" x2="244.700000" y2="240.000000"  style="stroke:black; stroke-linecap:round; stroke-width:0.25;"/>
<line x1="244.700000" y1="240.000000" x2="248.700000" y2="240.000000"  style="stroke:black; stroke-linecap:round; stroke-width:0.25;"/>
<line x1="244.700000" y1="248.000000" x2="248.700000" y2="248.000000"  style="stroke:black; stroke-linecap:round; stroke-width:0.25;"/>
<line x1="272.700000" y1="116.000000" x2="276.700000" y2="116.000000"  style="stroke:black; stroke-linecap:round; stroke-width:0.25;"/>
<line x1="272.700000" y1="244.000000" x2="276.700000" y2="244.000000"  style="stroke:black; stroke-linecap:round; stroke-width:0.25;"/>
<line x1="276.700000" y1="36.000000" x2="292.700000" y2="36.000000"  style="stroke:black; stroke-linecap:round; stroke-width:0.25;"/>
<line x1="276.700000" y1="116.000000" x2="284.700000" y2="116.000000"  style="stroke:black; stroke-linecap:round; stroke-width:0.25;"/>
<line x1="276.700000" y1="172.000000" x2="292.700000" y2="172.000000"  style="stroke:black; stroke-linecap:round; stroke-width:0.25;"/>
<line x1="276.700000" y1="244.000000" x2="276.700000" y2="172.000000"  style="stroke:black; stroke-linecap:round; stroke-width:0.25;"/>
<line x1="276.700000" y1="244.000000" x2="276.700000" y2="244.000000"  style="stroke:black; stroke-linecap:round; stroke-width:0.25;"/>
<line x1="284.700000" y1="116.000000" x2="284.700000" y2="164.000000"  style="stroke:black; stroke-linecap:round; stroke-width:0.25;"/>
<line x1="284.700000" y1="164.000000" x2="292.700000" y2="164.000000"  style="stroke:black; stroke-linecap:round; stroke-width:0.25;"/>
<line x1="292.700000" y1="36.000000" x2="292.700000" y2="156.000000"  style="stroke:black; stroke-linecap:round; stroke-width:0.25;"/>
<line x1="292.700000" y1="156.000000" x2="292.700000" y2="156.000000"  style="stroke:black; stroke-linecap:round; stroke-width:0.25;"/>
<line x1="292.700000" y1="156.000000" x2="296.700000" y2="156.000000"  style="stroke:black; stroke-linecap:round; stroke-width:0.25;"/>
<line x1="292.700000" y1="164.000000" x2="296.700000" y2="164.000000"  style="stroke:black; stroke-linecap:round; stroke-width:0.25;"/>
<line x1="292.700000" y1="172.000000" x2="296.700000" y2="172.000000"  style="stroke:black; stroke-linecap:round; stroke-width:0.25;"/>
<line x1="296.700000" y1="156.000000" x2="300.700000" y2="156.000000"  style="stroke:black; stroke-linecap:round; stroke-width:0.25;"/>
<line x1="296.700000" y1="164.000000" x2="300.700000" y2="164.000000"  style="stroke:black; stroke-linecap:round; stroke-width:0.25;"/>
<line x1="296.700000" y1="172.000000" x2="300.700000" y2="172.000000"  style="stroke:black; stroke-linecap:round; stroke-width:0.25;"/>
<line x1="300.700000" y1="156.000000" x2="310.700000" y2="156.000000"  style="stroke:black; stroke-linecap:round; stroke-width:0.25;"/>
<line x1="300.700000" y1="164.000000" x2="310.700000" y2="164.000000"  style="stroke:black; stroke-linecap:round; stroke-width:0.25;"/>
<line x1="300.700000" y1="172.000000" x2="310.700000" y2="172.000000"  style="stroke:black; stroke-linecap:round; stroke-width:0.25;"/>
</svg>
