<?xml version="1.0"?>
<svg xmlns="http://www.w3.org/2000/svg" xmlns:xlink="http://www.w3.org/1999/xlink" viewBox="0 0 363.800000 280.000000" width="181.900000mm" height="140.000000mm" version="1.1">
<rect x="1.000000" y="1.000000" width="362.800000" height="279.000000" rx="0" ry="0" style="stroke:none;fill:#cccccc;"/>
<rect x="0.000000" y="0.000000" width="362.800000" height="279.000000" rx="0" ry="0" style="stroke:none;fill:#ffffff;"/>
<text x="10.000000" y="7.000000" font-family="Arial" font-size="7"></text>
<rect x="196.000000" y="25.000000" width="25.800000" height="24.000000" rx="0" ry="0" style="stroke:none;fill:#cccccc;"/>
<rect x="195.000000" y="24.000000" width="25.800000" height="24.000000" rx="0" ry="0" style="stroke:none;fill:#4B71A1;"/>
<text x="207.900000" y="38.000000" font-family="Arial" font-size="7" text-anchor="middle" fill="#FFFFFF">acos</text>
<circle cx="197.000000" cy="26.000000" r="1"/>
<line x1="192.000000" y1="35.000000" x2="195.000000" y2="36.000000"  transform="rotate(0.000000,195.000000,36.000000)" style="stroke: black; stroke-width:0.25;"/>
<line x1="192.000000" y1="37.000000" x2="195.000000" y2="36.000000"  transform="rotate(0.000000,195.000000,36.000000)" style="stroke: black; stroke-width:0.25;"/>
<rect x="110.000000" y="65.000000" width="24.000000" height="24.000000" rx="0" ry="0" style="stroke:none;fill:#cccccc;"/>
<rect x="109.000000" y="64.000000" width="24.000000" height="24.000000" rx="0" ry="0" style="stroke:none;fill:#f44800;"/>
<text x="121.000000" y="78.000000" font-family="Arial" font-size="7" text-anchor="middle" fill="#FFFFFF">1</text>
<circle cx="111.000000" cy="66.000000" r="1"/>
<rect x="119.000000" y="97.000000" width="24.000000" height="24.000000" rx="0" ry="0" style="stroke:none;fill:#cccccc;"/>
<rect x="118.000000" y="96.000000" width="24.000000" height="24.000000" rx="0" ry="0" style="stroke:none;fill:#4B71A1;"/>
<text x="130.000000" y="110.000000" font-family="Arial" font-size="7" text-anchor="middle" fill="#FFFFFF">*</text>
<circle cx="120.000000" cy="98.000000" r="1"/>
<line x1="115.000000" y1="103.000000" x2="118.000000" y2="104.000000"  transform="rotate(0.000000,118.000000,104.000000)" style="stroke: black; stroke-width:0.25;"/>
<line x1="115.000000" y1="105.000000" x2="118.000000" y2="104.000000"  transform="rotate(0.000000,118.000000,104.000000)" style="stroke: black; stroke-width:0.25;"/>
<line x1="115.000000" y1="111.000000" x2="118.000000" y2="112.000000"  transform="rotate(0.000000,118.000000,112.000000)" style="stroke: black; stroke-width:0.25;"/>
<line x1="115.000000" y1="113.000000" x2="118.000000" y2="112.000000"  transform="rotate(0.000000,118.000000,112.000000)" style="stroke: black; stroke-width:0.25;"/>
<rect x="159.000000" y="81.000000" width="24.000000" height="24.000000" rx="0" ry="0" style="stroke:none;fill:#cccccc;"/>
<rect x="158.000000" y="80.000000" width="24.000000" height="24.000000" rx="0" ry="0" style="stroke:none;fill:#4B71A1;"/>
<text x="170.000000" y="94.000000" font-family="Arial" font-size="7" text-anchor="middle" fill="#FFFFFF">-</text>
<circle cx="160.000000" cy="82.000000" r="1"/>
<line x1="155.000000" y1="87.000000" x2="158.000000" y2="88.000000"  transform="rotate(0.000000,158.000000,88.000000)" style="stroke: black; stroke-width:0.25;"/>
<line x1="155.000000" y1="89.000000" x2="158.000000" y2="88.000000"  transform="rotate(0.000000,158.000000,88.000000)" style="stroke: black; stroke-width:0.25;"/>
<line x1="155.000000" y1="95.000000" x2="158.000000" y2="96.000000"  transform="rotate(0.000000,158.000000,96.000000)" style="stroke: black; stroke-width:0.25;"/>
<line x1="155.000000" y1="97.000000" x2="158.000000" y2="96.000000"  transform="rotate(0.000000,158.000000,96.000000)" style="stroke: black; stroke-width:0.25;"/>
<rect x="191.000000" y="81.000000" width="25.800000" height="24.000000" rx="0" ry="0" style="stroke:none;fill:#cccccc;"/>
<rect x="190.000000" y="80.000000" width="25.800000" height="24.000000" rx="0" ry="0" style="stroke:none;fill:#4B71A1;"/>
<text x="202.900000" y="94.000000" font-family="Arial" font-size="7" text-anchor="middle" fill="#FFFFFF">sqrt</text>
<circle cx="192.000000" cy="82.000000" r="1"/>
<line x1="187.000000" y1="91.000000" x2="190.000000" y2="92.000000"  transform="rotate(0.000000,190.000000,92.000000)" style="stroke: black; stroke-width:0.25;"/>
<line x1="187.000000" y1="93.000000" x2="190.000000" y2="92.000000"  transform="rotate(0.000000,190.000000,92.000000)" style="stroke: black; stroke-width:0.25;"/>
<rect x="146.000000" y="129.000000" width="25.800000" height="24.000000" rx="0" ry="0" style="stroke:none;fill:#cccccc;"/>
<rect x="145.000000" y="128.000000" width="25.800000" height="24.000000" rx="0" ry="0" style="stroke:none;fill:#f44800;"/>
<text x="157.900000" y="142.000000" font-family="Arial" font-size="7" text-anchor="middle" fill="#FFFFFF">1e-10f</text>
<circle cx="147.000000" cy="130.000000" r="1"/>
<rect x="232.800000" y="97.000000" width="24.000000" height="24.000000" rx="0" ry="0" style="stroke:none;fill:#cccccc;"/>
<rect x="231.800000" y="96.000000" width="24.000000" height="24.000000" rx="0" ry="0" style="stroke:none;fill:#4B71A1;"/>
<text x="243.800000" y="110.000000" font-family="Arial" font-size="7" text-anchor="middle" fill="#FFFFFF">max</text>
<circle cx="233.800000" cy="98.000000" r="1"/>
<line x1="228.800000" y1="103.000000" x2="231.800000" y2="104.000000"  transform="rotate(0.000000,231.800000,104.000000)" style="stroke: black; stroke-width:0.25;"/>
<line x1="228.800000" y1="105.000000" x2="231.800000" y2="104.000000"  transform="rotate(0.000000,231.800000,104.000000)" style="stroke: black; stroke-width:0.25;"/>
<line x1="228.800000" y1="111.000000" x2="231.800000" y2="112.000000"  transform="rotate(0.000000,231.800000,112.000000)" style="stroke: black; stroke-width:0.25;"/>
<line x1="228.800000" y1="113.000000" x2="231.800000" y2="112.000000"  transform="rotate(0.000000,231.800000,112.000000)" style="stroke: black; stroke-width:0.25;"/>
<rect x="272.800000" y="93.000000" width="24.000000" height="24.000000" rx="0" ry="0" style="stroke:none;fill:#cccccc;"/>
<rect x="271.800000" y="92.000000" width="24.000000" height="24.000000" rx="0" ry="0" style="stroke:none;fill:#4B71A1;"/>
<text x="283.800000" y="106.000000" font-family="Arial" font-size="7" text-anchor="middle" fill="#FFFFFF">/</text>
<circle cx="273.800000" cy="94.000000" r="1"/>
<line x1="268.800000" y1="99.000000" x2="271.800000" y2="100.000000"  transform="rotate(0.000000,271.800000,100.000000)" style="stroke: black; stroke-width:0.25;"/>
<line x1="268.800000" y1="101.000000" x2="271.800000" y2="100.000000"  transform="rotate(0.000000,271.800000,100.000000)" style="stroke: black; stroke-width:0.25;"/>
<line x1="268.800000" y1="107.000000" x2="271.800000" y2="108.000000"  transform="rotate(0.000000,271.800000,108.000000)" style="stroke: black; stroke-width:0.25;"/>
<line x1="268.800000" y1="109.000000" x2="271.800000" y2="108.000000"  transform="rotate(0.000000,271.800000,108.000000)" style="stroke: black; stroke-width:0.25;"/>
<polygon fill="#ffffff" stroke="black" stroke-width=".25" points="303.799988,100.500000 312.799988,104.000000 303.799988,107.500000"/>
<circle  fill="#ffffff" stroke="black" stroke-width=".25" cx="314.299988" cy="104.000000" r="1.500000"/>
<rect x="110.000000" y="169.000000" width="24.000000" height="24.000000" rx="0" ry="0" style="stroke:none;fill:#cccccc;"/>
<rect x="109.000000" y="168.000000" width="24.000000" height="24.000000" rx="0" ry="0" style="stroke:none;fill:#f44800;"/>
<text x="121.000000" y="182.000000" font-family="Arial" font-size="7" text-anchor="middle" fill="#FFFFFF">1</text>
<circle cx="111.000000" cy="170.000000" r="1"/>
<rect x="119.000000" y="201.000000" width="24.000000" height="24.000000" rx="0" ry="0" style="stroke:none;fill:#cccccc;"/>
<rect x="118.000000" y="200.000000" width="24.000000" height="24.000000" rx="0" ry="0" style="stroke:none;fill:#4B71A1;"/>
<text x="130.000000" y="214.000000" font-family="Arial" font-size="7" text-anchor="middle" fill="#FFFFFF">*</text>
<circle cx="120.000000" cy="202.000000" r="1"/>
<line x1="115.000000" y1="207.000000" x2="118.000000" y2="208.000000"  transform="rotate(0.000000,118.000000,208.000000)" style="stroke: black; stroke-width:0.25;"/>
<line x1="115.000000" y1="209.000000" x2="118.000000" y2="208.000000"  transform="rotate(0.000000,118.000000,208.000000)" style="stroke: black; stroke-width:0.25;"/>
<line x1="115.000000" y1="215.000000" x2="118.000000" y2="216.000000"  transform="rotate(0.000000,118.000000,216.000000)" style="stroke: black; stroke-width:0.25;"/>
<line x1="115.000000" y1="217.000000" x2="118.000000" y2="216.000000"  transform="rotate(0.000000,118.000000,216.000000)" style="stroke: black; stroke-width:0.25;"/>
<rect x="159.000000" y="185.000000" width="24.000000" height="24.000000" rx="0" ry="0" style="stroke:none;fill:#cccccc;"/>
<rect x="158.000000" y="184.000000" width="24.000000" height="24.000000" rx="0" ry="0" style="stroke:none;fill:#4B71A1;"/>
<text x="170.000000" y="198.000000" font-family="Arial" font-size="7" text-anchor="middle" fill="#FFFFFF">-</text>
<circle cx="160.000000" cy="186.000000" r="1"/>
<line x1="155.000000" y1="191.000000" x2="158.000000" y2="192.000000"  transform="rotate(0.000000,158.000000,192.000000)" style="stroke: black; stroke-width:0.25;"/>
<line x1="155.000000" y1="193.000000" x2="158.000000" y2="192.000000"  transform="rotate(0.000000,158.000000,192.000000)" style="stroke: black; stroke-width:0.25;"/>
<line x1="155.000000" y1="199.000000" x2="158.000000" y2="200.000000"  transform="rotate(0.000000,158.000000,200.000000)" style="stroke: black; stroke-width:0.25;"/>
<line x1="155.000000" y1="201.000000" x2="158.000000" y2="200.000000"  transform="rotate(0.000000,158.000000,200.000000)" style="stroke: black; stroke-width:0.25;"/>
<rect x="191.000000" y="185.000000" width="25.800000" height="24.000000" rx="0" ry="0" style="stroke:none;fill:#cccccc;"/>
<rect x="190.000000" y="184.000000" width="25.800000" height="24.000000" rx="0" ry="0" style="stroke:none;fill:#4B71A1;"/>
<text x="202.900000" y="198.000000" font-family="Arial" font-size="7" text-anchor="middle" fill="#FFFFFF">sqrt</text>
<circle cx="192.000000" cy="186.000000" r="1"/>
<line x1="187.000000" y1="195.000000" x2="190.000000" y2="196.000000"  transform="rotate(0.000000,190.000000,196.000000)" style="stroke: black; stroke-width:0.25;"/>
<line x1="187.000000" y1="197.000000" x2="190.000000" y2="196.000000"  transform="rotate(0.000000,190.000000,196.000000)" style="stroke: black; stroke-width:0.25;"/>
<rect x="146.000000" y="233.000000" width="25.800000" height="24.000000" rx="0" ry="0" style="stroke:none;fill:#cccccc;"/>
<rect x="145.000000" y="232.000000" width="25.800000" height="24.000000" rx="0" ry="0" style="stroke:none;fill:#f44800;"/>
<text x="157.900000" y="246.000000" font-family="Arial" font-size="7" text-anchor="middle" fill="#FFFFFF">1e-10f</text>
<circle cx="147.000000" cy="234.000000" r="1"/>
<rect x="232.800000" y="201.000000" width="24.000000" height="24.000000" rx="0" ry="0" style="stroke:none;fill:#cccccc;"/>
<rect x="231.800000" y="200.000000" width="24.000000" height="24.000000" rx="0" ry="0" style="stroke:none;fill:#4B71A1;"/>
<text x="243.800000" y="214.000000" font-family="Arial" font-size="7" text-anchor="middle" fill="#FFFFFF">max</text>
<circle cx="233.800000" cy="202.000000" r="1"/>
<line x1="228.800000" y1="207.000000" x2="231.800000" y2="208.000000"  transform="rotate(0.000000,231.800000,208.000000)" style="stroke: black; stroke-width:0.25;"/>
<line x1="228.800000" y1="209.000000" x2="231.800000" y2="208.000000"  transform="rotate(0.000000,231.800000,208.000000)" style="stroke: black; stroke-width:0.25;"/>
<line x1="228.800000" y1="215.000000" x2="231.800000" y2="216.000000"  transform="rotate(0.000000,231.800000,216.000000)" style="stroke: black; stroke-width:0.25;"/>
<line x1="228.800000" y1="217.000000" x2="231.800000" y2="216.000000"  transform="rotate(0.000000,231.800000,216.000000)" style="stroke: black; stroke-width:0.25;"/>
<rect x="272.800000" y="197.000000" width="24.000000" height="24.000000" rx="0" ry="0" style="stroke:none;fill:#cccccc;"/>
<rect x="271.800000" y="196.000000" width="24.000000" height="24.000000" rx="0" ry="0" style="stroke:none;fill:#4B71A1;"/>
<text x="283.800000" y="210.000000" font-family="Arial" font-size="7" text-anchor="middle" fill="#FFFFFF">/</text>
<circle cx="273.800000" cy="198.000000" r="1"/>
<line x1="268.800000" y1="203.000000" x2="271.800000" y2="204.000000"  transform="rotate(0.000000,271.800000,204.000000)" style="stroke: black; stroke-width:0.25;"/>
<line x1="268.800000" y1="205.000000" x2="271.800000" y2="204.000000"  transform="rotate(0.000000,271.800000,204.000000)" style="stroke: black; stroke-width:0.25;"/>
<line x1="268.800000" y1="211.000000" x2="271.800000" y2="212.000000"  transform="rotate(0.000000,271.800000,212.000000)" style="stroke: black; stroke-width:0.25;"/>
<line x1="268.800000" y1="213.000000" x2="271.800000" y2="212.000000"  transform="rotate(0.000000,271.800000,212.000000)" style="stroke: black; stroke-width:0.25;"/>
<polygon fill="#ffffff" stroke="black" stroke-width=".25" points="303.799988,204.500000 312.799988,208.000000 303.799988,211.500000"/>
<circle  fill="#ffffff" stroke="black" stroke-width=".25" cx="314.299988" cy="208.000000" r="1.500000"/>
<line x1="15.000000" y1="15.000000" x2="15.000000" y2="265.000000"  style="stroke: black; stroke-linecap:round; stroke-width:0.25; stroke-dasharray:3,3;"/>
<line x1="15.000000" y1="265.000000" x2="348.800000" y2="265.000000"  style="stroke: black; stroke-linecap:round; stroke-width:0.25; stroke-dasharray:3,3;"/>
<line x1="348.800000" y1="265.000000" x2="348.800000" y2="15.000000"  style="stroke: black; stroke-linecap:round; stroke-width:0.25; stroke-dasharray:3,3;"/>
<line x1="15.000000" y1="15.000000" x2="20.000000" y2="15.000000"  style="stroke: black; stroke-linecap:round; stroke-width:0.25; stroke-dasharray:3,3;"/>
<line x1="49.025000" y1="15.000000" x2="348.800000" y2="15.000000"  style="stroke: black; stroke-linecap:round; stroke-width:0.25; stroke-dasharray:3,3;"/>
<text x="20.000000" y="17.000000" font-family="Arial" font-size="7">process</text>
<line x1="350.800000" y1="131.000000" x2="353.800000" y2="132.000000"  transform="rotate(0.000000,353.800000,132.000000)" style="stroke: black; stroke-width:0.25;"/>
<line x1="350.800000" y1="133.000000" x2="353.800000" y2="132.000000"  transform="rotate(0.000000,353.800000,132.000000)" style="stroke: black; stroke-width:0.25;"/>
<line x1="350.800000" y1="139.000000" x2="353.800000" y2="140.000000"  transform="rotate(0.000000,353.800000,140.000000)" style="stroke: black; stroke-width:0.25;"/>
<line x1="350.800000" y1="141.000000" x2="353.800000" y2="140.000000"  transform="rotate(0.000000,353.800000,140.000000)" style="stroke: black; stroke-width:0.25;"/>
<line x1="350.800000" y1="147.000000" x2="353.800000" y2="148.000000"  transform="rotate(0.000000,353.800000,148.000000)" style="stroke: black; stroke-width:0.25;"/>
<line x1="350.800000" y1="149.000000" x2="353.800000" y2="148.000000"  transform="rotate(0.000000,353.800000,148.000000)" style="stroke: black; stroke-width:0.25;"/>
<line x1="10.000000" y1="132.000000" x2="20.000000" y2="132.000000"  style="stroke:black; stroke-linecap:round; stroke-width:0.25;"/>
<line x1="10.000000" y1="140.000000" x2="20.000000" y2="140.000000"  style="stroke:black; stroke-linecap:round; stroke-width:0.25;"/>
<line x1="10.000000" y1="148.000000" x2="20.000000" y2="148.000000"  style="stroke:black; stroke-linecap:round; stroke-width:0.25;"/>
<line x1="20.000000" y1="132.000000" x2="24.000000" y2="132.000000"  style="stroke:black; stroke-linecap:round; stroke-width:0.25;"/>
<line x1="20.000000" y1="140.000000" x2="24.000000" y2="140.000000"  style="stroke:black; stroke-linecap:round; stroke-width:0.25;"/>
<line x1="20.000000" y1="148.000000" x2="24.000000" y2="148.000000"  style="stroke:black; stroke-linecap:round; stroke-width:0.25;"/>
<line x1="24.000000" y1="132.000000" x2="28.000000" y2="132.000000"  style="stroke:black; stroke-linecap:round; stroke-width:0.25;"/>
<line x1="24.000000" y1="140.000000" x2="28.000000" y2="140.000000"  style="stroke:black; stroke-linecap:round; stroke-width:0.25;"/>
<line x1="24.000000" y1="148.000000" x2="28.000000" y2="148.000000"  style="stroke:black; stroke-linecap:round; stroke-width:0.25;"/>
<line x1="28.000000" y1="132.000000" x2="28.000000" y2="132.000000"  style="stroke:black; stroke-linecap:round; stroke-width:0.25;"/>
<line x1="28.000000" y1="132.000000" x2="32.000000" y2="132.000000"  style="stroke:black; stroke-linecap:round; stroke-width:0.25;"/>
<line x1="28.000000" y1="140.000000" x2="28.000000" y2="140.000000"  style="stroke:black; stroke-linecap:round; stroke-width:0.25;"/>
<line x1="28.000000" y1="140.000000" x2="32.000000" y2="140.000000"  style="stroke:black; stroke-linecap:round; stroke-width:0.25;"/>
<line x1="28.000000" y1="148.000000" x2="28.000000" y2="148.000000"  style="stroke:black; stroke-linecap:round; stroke-width:0.25;"/>
<line x1="28.000000" y1="148.000000" x2="32.000000" y2="148.000000"  style="stroke:black; stroke-linecap:round; stroke-width:0.25;"/>
<line x1="32.000000" y1="132.000000" x2="68.000000" y2="124.000000"  style="stroke:black; stroke-linecap:round; stroke-width:0.25;"/>
<line x1="32.000000" y1="132.000000" x2="68.000000" y2="140.000000"  style="stroke:black; stroke-linecap:round; stroke-width:0.25;"/>
<line x1="32.000000" y1="132.000000" x2="68.000000" y2="156.000000"  style="stroke:black; stroke-linecap:round; stroke-width:0.25;"/>
<line x1="32.000000" y1="140.000000" x2="68.000000" y2="132.000000"  style="stroke:black; stroke-linecap:round; stroke-width:0.25;"/>
<line x1="32.000000" y1="148.000000" x2="68.000000" y2="148.000000"  style="stroke:black; stroke-linecap:round; stroke-width:0.25;"/>
<line x1="68.000000" y1="124.000000" x2="72.000000" y2="124.000000"  style="stroke:black; stroke-linecap:round; stroke-width:0.25;"/>
<line x1="68.000000" y1="132.000000" x2="72.000000" y2="132.000000"  style="stroke:black; stroke-linecap:round; stroke-width:0.25;"/>
<line x1="68.000000" y1="140.000000" x2="72.000000" y2="140.000000"  style="stroke:black; stroke-linecap:round; stroke-width:0.25;"/>
<line x1="68.000000" y1="148.000000" x2="72.000000" y2="148.000000"  style="stroke:black; stroke-linecap:round; stroke-width:0.25;"/>
<line x1="68.000000" y1="156.000000" x2="72.000000" y2="156.000000"  style="stroke:black; stroke-linecap:round; stroke-width:0.25;"/>
<line x1="72.000000" y1="36.000000" x2="96.000000" y2="36.000000"  style="stroke:black; stroke-linecap:round; stroke-width:0.25;"/>
<line x1="72.000000" y1="124.000000" x2="72.000000" y2="36.000000"  style="stroke:black; stroke-linecap:round; stroke-width:0.25;"/>
<line x1="72.000000" y1="124.000000" x2="72.000000" y2="124.000000"  style="stroke:black; stroke-linecap:round; stroke-width:0.25;"/>
<line x1="72.000000" y1="132.000000" x2="80.000000" y2="132.000000"  style="stroke:black; stroke-linecap:round; stroke-width:0.25;"/>
<line x1="72.000000" y1="140.000000" x2="88.000000" y2="140.000000"  style="stroke:black; stroke-linecap:round; stroke-width:0.25;"/>
<line x1="72.000000" y1="148.000000" x2="96.000000" y2="148.000000"  style="stroke:black; stroke-linecap:round; stroke-width:0.25;"/>
<line x1="72.000000" y1="156.000000" x2="88.000000" y2="156.000000"  style="stroke:black; stroke-linecap:round; stroke-width:0.25;"/>
<line x1="80.000000" y1="56.000000" x2="96.000000" y2="56.000000"  style="stroke:black; stroke-linecap:round; stroke-width:0.25;"/>
<line x1="80.000000" y1="132.000000" x2="80.000000" y2="56.000000"  style="stroke:black; stroke-linecap:round; stroke-width:0.25;"/>
<line x1="88.000000" y1="108.000000" x2="96.000000" y2="108.000000"  style="stroke:black; stroke-linecap:round; stroke-width:0.25;"/>
<line x1="88.000000" y1="140.000000" x2="88.000000" y2="108.000000"  style="stroke:black; stroke-linecap:round; stroke-width:0.25;"/>
<line x1="88.000000" y1="156.000000" x2="88.000000" y2="212.000000"  style="stroke:black; stroke-linecap:round; stroke-width:0.25;"/>
<line x1="88.000000" y1="212.000000" x2="96.000000" y2="212.000000"  style="stroke:black; stroke-linecap:round; stroke-width:0.25;"/>
<line x1="96.000000" y1="36.000000" x2="191.000000" y2="36.000000"  style="stroke:black; stroke-linecap:round; stroke-width:0.25;"/>
<line x1="96.000000" y1="56.000000" x2="177.900000" y2="56.000000"  style="stroke:black; stroke-linecap:round; stroke-width:0.25;"/>
<line x1="96.000000" y1="108.000000" x2="100.000000" y2="108.000000"  style="stroke:black; stroke-linecap:round; stroke-width:0.25;"/>
<line x1="96.000000" y1="148.000000" x2="96.000000" y2="160.000000"  style="stroke:black; stroke-linecap:round; stroke-width:0.25;"/>
<line x1="96.000000" y1="160.000000" x2="96.000000" y2="160.000000"  style="stroke:black; stroke-linecap:round; stroke-width:0.25;"/>
<line x1="96.000000" y1="160.000000" x2="177.900000" y2="160.000000"  style="stroke:black; stroke-linecap:round; stroke-width:0.25;"/>
<line x1="96.000000" y1="212.000000" x2="100.000000" y2="212.000000"  style="stroke:black; stroke-linecap:round; stroke-width:0.25;"/>
<line x1="100.000000" y1="108.000000" x2="104.000000" y2="108.000000"  style="stroke:black; stroke-linecap:round; stroke-width:0.25;"/>
<line x1="100.000000" y1="212.000000" x2="104.000000" y2="212.000000"  style="stroke:black; stroke-linecap:round; stroke-width:0.25;"/>
<line x1="104.000000" y1="108.000000" x2="114.000000" y2="104.000000"  style="stroke:black; stroke-linecap:round; stroke-width:0.25;"/>
<line x1="104.000000" y1="108.000000" x2="114.000000" y2="112.000000"  style="stroke:black; stroke-linecap:round; stroke-width:0.25;"/>
<line x1="104.000000" y1="212.000000" x2="114.000000" y2="208.000000"  style="stroke:black; stroke-linecap:round; stroke-width:0.25;"/>
<line x1="104.000000" y1="212.000000" x2="114.000000" y2="216.000000"  style="stroke:black; stroke-linecap:round; stroke-width:0.25;"/>
<line x1="114.000000" y1="104.000000" x2="118.000000" y2="104.000000"  style="stroke:black; stroke-linecap:round; stroke-width:0.25;"/>
<line x1="114.000000" y1="112.000000" x2="118.000000" y2="112.000000"  style="stroke:black; stroke-linecap:round; stroke-width:0.25;"/>
<line x1="114.000000" y1="208.000000" x2="118.000000" y2="208.000000"  style="stroke:black; stroke-linecap:round; stroke-width:0.25;"/>
<line x1="114.000000" y1="216.000000" x2="118.000000" y2="216.000000"  style="stroke:black; stroke-linecap:round; stroke-width:0.25;"/>
<line x1="133.000000" y1="76.000000" x2="137.000000" y2="76.000000"  style="stroke:black; stroke-linecap:round; stroke-width:0.25;"/>
<line x1="133.000000" y1="180.000000" x2="137.000000" y2="180.000000"  style="stroke:black; stroke-linecap:round; stroke-width:0.25;"/>
<line x1="137.000000" y1="76.000000" x2="146.000000" y2="76.000000"  style="stroke:black; stroke-linecap:round; stroke-width:0.25;"/>
<line x1="137.000000" y1="180.000000" x2="146.000000" y2="180.000000"  style="stroke:black; stroke-linecap:round; stroke-width:0.25;"/>
<line x1="142.000000" y1="108.000000" x2="146.000000" y2="108.000000"  style="stroke:black; stroke-linecap:round; stroke-width:0.25;"/>
<line x1="142.000000" y1="212.000000" x2="146.000000" y2="212.000000"  style="stroke:black; stroke-linecap:round; stroke-width:0.25;"/>
<line x1="146.000000" y1="76.000000" x2="154.000000" y2="76.000000"  style="stroke:black; stroke-linecap:round; stroke-width:0.25;"/>
<line x1="146.000000" y1="96.000000" x2="154.000000" y2="96.000000"  style="stroke:black; stroke-linecap:round; stroke-width:0.25;"/>
<line x1="146.000000" y1="108.000000" x2="146.000000" y2="96.000000"  style="stroke:black; stroke-linecap:round; stroke-width:0.25;"/>
<line x1="146.000000" y1="108.000000" x2="146.000000" y2="108.000000"  style="stroke:black; stroke-linecap:round; stroke-width:0.25;"/>
<line x1="146.000000" y1="180.000000" x2="154.000000" y2="180.000000"  style="stroke:black; stroke-linecap:round; stroke-width:0.25;"/>
<line x1="146.000000" y1="200.000000" x2="154.000000" y2="200.000000"  style="stroke:black; stroke-linecap:round; stroke-width:0.25;"/>
<line x1="146.000000" y1="212.000000" x2="146.000000" y2="200.000000"  style="stroke:black; stroke-linecap:round; stroke-width:0.25;"/>
<line x1="146.000000" y1="212.000000" x2="146.000000" y2="212.000000"  style="stroke:black; stroke-linecap:round; stroke-width:0.25;"/>
<line x1="154.000000" y1="76.000000" x2="154.000000" y2="88.000000"  style="stroke:black; stroke-linecap:round; stroke-width:0.25;"/>
<line x1="154.000000" y1="88.000000" x2="154.000000" y2="88.000000"  style="stroke:black; stroke-linecap:round; stroke-width:0.25;"/>
<line x1="154.000000" y1="88.000000" x2="158.000000" y2="88.000000"  style="stroke:black; stroke-linecap:round; stroke-width:0.25;"/>
<line x1="154.000000" y1="96.000000" x2="158.000000" y2="96.000000"  style="stroke:black; stroke-linecap:round; stroke-width:0.25;"/>
<line x1="154.000000" y1="180.000000" x2="154.000000" y2="192.000000"  style="stroke:black; stroke-linecap:round; stroke-width:0.25;"/>
<line x1="154.000000" y1="192.000000" x2="154.000000" y2="192.000000"  style="stroke:black; stroke-linecap:round; stroke-width:0.25;"/>
<line x1="154.000000" y1="192.000000" x2="158.000000" y2="192.000000"  style="stroke:black; stroke-linecap:round; stroke-width:0.25;"/>
<line x1="154.000000" y1="200.000000" x2="158.000000" y2="200.000000"  style="stroke:black; stroke-linecap:round; stroke-width:0.25;"/>
<line x1="170.800000" y1="140.000000" x2="174.800000" y2="140.000000"  style="stroke:black; stroke-linecap:round; stroke-width:0.25;"/>
<line x1="170.800000" y1="244.000000" x2="174.800000" y2="244.000000"  style="stroke:black; stroke-linecap:round; stroke-width:0.25;"/>
<line x1="174.800000" y1="140.000000" x2="219.800000" y2="140.000000"  style="stroke:black; stroke-linecap:round; stroke-width:0.25;"/>
<line x1="174.800000" y1="244.000000" x2="219.800000" y2="244.000000"  style="stroke:black; stroke-linecap:round; stroke-width:0.25;"/>
<line x1="177.900000" y1="56.000000" x2="259.800000" y2="56.000000"  style="stroke:black; stroke-linecap:round; stroke-width:0.25;"/>
<line x1="177.900000" y1="160.000000" x2="259.800000" y2="160.000000"  style="stroke:black; stroke-linecap:round; stroke-width:0.25;"/>
<line x1="182.000000" y1="92.000000" x2="186.000000" y2="92.000000"  style="stroke:black; stroke-linecap:round; stroke-width:0.25;"/>
<line x1="182.000000" y1="196.000000" x2="186.000000" y2="196.000000"  style="stroke:black; stroke-linecap:round; stroke-width:0.25;"/>
<line x1="186.000000" y1="92.000000" x2="186.000000" y2="92.000000"  style="stroke:black; stroke-linecap:round; stroke-width:0.25;"/>
<line x1="186.000000" y1="92.000000" x2="190.000000" y2="92.000000"  style="stroke:black; stroke-linecap:round; stroke-width:0.25;"/>
<line x1="186.000000" y1="196.000000" x2="186.000000" y2="196.000000"  style="stroke:black; stroke-linecap:round; stroke-width:0.25;"/>
<line x1="186.000000" y1="196.000000" x2="190.000000" y2="196.000000"  style="stroke:black; stroke-linecap:round; stroke-width:0.25;"/>
<line x1="191.000000" y1="36.000000" x2="195.000000" y2="36.000000"  style="stroke:black; stroke-linecap:round; stroke-width:0.25;"/>
<line x1="215.800000" y1="92.000000" x2="219.800000" y2="92.000000"  style="stroke:black; stroke-linecap:round; stroke-width:0.25;"/>
<line x1="215.800000" y1="196.000000" x2="219.800000" y2="196.000000"  style="stroke:black; stroke-linecap:round; stroke-width:0.25;"/>
<line x1="219.800000" y1="92.000000" x2="227.800000" y2="92.000000"  style="stroke:black; stroke-linecap:round; stroke-width:0.25;"/>
<line x1="219.800000" y1="112.000000" x2="227.800000" y2="112.000000"  style="stroke:black; stroke-linecap:round; stroke-width:0.25;"/>
<line x1="219.800000" y1="140.000000" x2="219.800000" y2="112.000000"  style="stroke:black; stroke-linecap:round; stroke-width:0.25;"/>
<line x1="219.800000" y1="140.000000" x2="219.800000" y2="140.000000"  style="stroke:black; stroke-linecap:round; stroke-width:0.25;"/>
<line x1="219.800000" y1="196.000000" x2="227.800000" y2="196.000000"  style="stroke:black; stroke-linecap:round; stroke-width:0.25;"/>
<line x1="219.800000" y1="216.000000" x2="227.800000" y2="216.000000"  style="stroke:black; stroke-linecap:round; stroke-width:0.25;"/>
<line x1="219.800000" y1="244.000000" x2="219.800000" y2="216.000000"  style="stroke:black; stroke-linecap:round; stroke-width:0.25;"/>
<line x1="219.800000" y1="244.000000" x2="219.800000" y2="244.000000"  style="stroke:black; stroke-linecap:round; stroke-width:0.25;"/>
<line x1="220.800000" y1="36.000000" x2="224.800000" y2="36.000000"  style="stroke:black; stroke-linecap:round; stroke-width:0.25;"/>
<line x1="224.800000" y1="36.000000" x2="319.800000" y2="36.000000"  style="stroke:black; stroke-linecap:round; stroke-width:0.25;"/>
<line x1="227.800000" y1="92.000000" x2="227.800000" y2="104.000000"  style="stroke:black; stroke-linecap:round; stroke-width:0.25;"/>
<line x1="227.800000" y1="104.000000" x2="227.800000" y2="104.000000"  style="stroke:black; stroke-linecap:round; stroke-width:0.25;"/>
<line x1="227.800000" y1="104.000000" x2="231.800000" y2="104.000000"  style="stroke:black; stroke-linecap:round; stroke-width:0.25;"/>
<line x1="227.800000" y1="112.000000" x2="231.800000" y2="112.000000"  style="stroke:black; stroke-linecap:round; stroke-width:0.25;"/>
<line x1="227.800000" y1="196.000000" x2="227.800000" y2="208.000000"  style="stroke:black; stroke-linecap:round; stroke-width:0.25;"/>
<line x1="227.800000" y1="208.000000" x2="227.800000" y2="208.000000"  style="stroke:black; stroke-linecap:round; stroke-width:0.25;"/>
<line x1="227.800000" y1="208.000000" x2="231.800000" y2="208.000000"  style="stroke:black; stroke-linecap:round; stroke-width:0.25;"/>
<line x1="227.800000" y1="216.000000" x2="231.800000" y2="216.000000"  style="stroke:black; stroke-linecap:round; stroke-width:0.25;"/>
<line x1="255.800000" y1="108.000000" x2="259.800000" y2="108.000000"  style="stroke:black; stroke-linecap:round; stroke-width:0.25;"/>
<line x1="255.800000" y1="212.000000" x2="259.800000" y2="212.000000"  style="stroke:black; stroke-linecap:round; stroke-width:0.25;"/>
<line x1="259.800000" y1="56.000000" x2="267.800000" y2="56.000000"  style="stroke:black; stroke-linecap:round; stroke-width:0.25;"/>
<line x1="259.800000" y1="108.000000" x2="267.800000" y2="108.000000"  style="stroke:black; stroke-linecap:round; stroke-width:0.25;"/>
<line x1="259.800000" y1="160.000000" x2="267.800000" y2="160.000000"  style="stroke:black; stroke-linecap:round; stroke-width:0.25;"/>
<line x1="259.800000" y1="212.000000" x2="267.800000" y2="212.000000"  style="stroke:black; stroke-linecap:round; stroke-width:0.25;"/>
<line x1="267.800000" y1="56.000000" x2="267.800000" y2="100.000000"  style="stroke:black; stroke-linecap:round; stroke-width:0.25;"/>
<line x1="267.800000" y1="100.000000" x2="267.800000" y2="100.000000"  style="stroke:black; stroke-linecap:round; stroke-width:0.25;"/>
<line x1="267.800000" y1="100.000000" x2="271.800000" y2="100.000000"  style="stroke:black; stroke-linecap:round; stroke-width:0.25;"/>
<line x1="267.800000" y1="108.000000" x2="271.800000" y2="108.000000"  style="stroke:black; stroke-linecap:round; stroke-width:0.25;"/>
<line x1="267.800000" y1="160.000000" x2="267.800000" y2="204.000000"  style="stroke:black; stroke-linecap:round; stroke-width:0.25;"/>
<line x1="267.800000" y1="204.000000" x2="267.800000" y2="204.000000"  style="stroke:black; stroke-linecap:round; stroke-width:0.25;"/>
<line x1="267.800000" y1="204.000000" x2="271.800000" y2="204.000000"  style="stroke:black; stroke-linecap:round; stroke-width:0.25;"/>
<line x1="267.800000" y1="212.000000" x2="271.800000" y2="212.000000"  style="stroke:black; stroke-linecap:round; stroke-width:0.25;"/>
<line x1="295.800000" y1="104.000000" x2="299.800000" y2="104.000000"  style="stroke:black; stroke-linecap:round; stroke-width:0.25;"/>
<line x1="295.800000" y1="208.000000" x2="299.800000" y2="208.000000"  style="stroke:black; stroke-linecap:round; stroke-width:0.25;"/>
<line x1="299.800000" y1="104.000000" x2="299.800000" y2="104.000000"  style="stroke:black; stroke-linecap:round; stroke-width:0.25;"/>
<line x1="299.800000" y1="104.000000" x2="303.800000" y2="104.000000"  style="stroke:black; stroke-linecap:round; stroke-width:0.25;"/>
<line x1="299.800000" y1="208.000000" x2="299.800000" y2="208.000000"  style="stroke:black; stroke-linecap:round; stroke-width:0.25;"/>
<line x1="299.800000" y1="208.000000" x2="303.800000" y2="208.000000"  style="stroke:black; stroke-linecap:round; stroke-width:0.25;"/>
<line x1="315.800000" y1="104.000000" x2="319.800000" y2="104.000000"  style="stroke:black; stroke-linecap:round; stroke-width:0.25;"/>
<line x1="315.800000" y1="208.000000" x2="319.800000" y2="208.000000"  style="stroke:black; stroke-linecap:round; stroke-width:0.25;"/>
<line x1="319.800000" y1="36.000000" x2="335.800000" y2="36.000000"  style="stroke:black; stroke-linecap:round; stroke-width:0.25;"/>
<line x1="319.800000" y1="104.000000" x2="327.800000" y2="104.000000"  style="stroke:black; stroke-linecap:round; stroke-width:0.25;"/>
<line x1="319.800000" y1="148.000000" x2="335.800000" y2="148.000000"  style="stroke:black; stroke-linecap:round; stroke-width:0.25;"/>
<line x1="319.800000" y1="208.000000" x2="319.800000" y2="148.000000"  style="stroke:black; stroke-linecap:round; stroke-width:0.25;"/>
<line x1="319.800000" y1="208.000000" x2="319.800000" y2="208.000000"  style="stroke:black; stroke-linecap:round; stroke-width:0.25;"/>
<line x1="327.800000" y1="104.000000" x2="327.800000" y2="140.000000"  style="stroke:black; stroke-linecap:round; stroke-width:0.25;"/>
<line x1="327.800000" y1="140.000000" x2="335.800000" y2="140.000000"  style="stroke:black; stroke-linecap:round; stroke-width:0.25;"/>
<line x1="335.800000" y1="36.000000" x2="335.800000" y2="132.000000"  style="stroke:black; stroke-linecap:round; stroke-width:0.25;"/>
<line x1="335.800000" y1="132.000000" x2="335.800000" y2="132.000000"  style="stroke:black; stroke-linecap:round; stroke-width:0.25;"/>
<line x1="335.800000" y1="132.000000" x2="339.800000" y2="132.000000"  style="stroke:black; stroke-linecap:round; stroke-width:0.25;"/>
<line x1="335.800000" y1="140.000000" x2="339.800000" y2="140.000000"  style="stroke:black; stroke-linecap:round; stroke-width:0.25;"/>
<line x1="335.800000" y1="148.000000" x2="339.800000" y2="148.000000"  style="stroke:black; stroke-linecap:round; stroke-width:0.25;"/>
<line x1="339.800000" y1="132.000000" x2="343.800000" y2="132.000000"  style="stroke:black; stroke-linecap:round; stroke-width:0.25;"/>
<line x1="339.800000" y1="140.000000" x2="343.800000" y2="140.000000"  style="stroke:black; stroke-linecap:round; stroke-width:0.25;"/>
<line x1="339.800000" y1="148.000000" x2="343.800000" y2="148.000000"  style="stroke:black; stroke-linecap:round; stroke-width:0.25;"/>
<line x1="343.800000" y1="132.000000" x2="353.800000" y2="132.000000"  style="stroke:black; stroke-linecap:round; stroke-width:0.25;"/>
<line x1="343.800000" y1="140.000000" x2="353.800000" y2="140.000000"  style="stroke:black; stroke-linecap:round; stroke-width:0.25;"/>
<line x1="343.800000" y1="148.000000" x2="353.800000" y2="148.000000"  style="stroke:black; stroke-linecap:round; stroke-width:0.25;"/>
</svg>
