<?xml version="1.0"?>
<svg xmlns="http://www.w3.org/2000/svg" xmlns:xlink="http://www.w3.org/1999/xlink" viewBox="0 0 262.000000 216.000000" width="131.000000mm" height="108.000000mm" version="1.1">
<rect x="1.000000" y="1.000000" width="261.000000" height="215.000000" rx="0" ry="0" style="stroke:none;fill:#cccccc;"/>
<rect x="0.000000" y="0.000000" width="261.000000" height="215.000000" rx="0" ry="0" style="stroke:none;fill:#ffffff;"/>
<text x="10.000000" y="7.000000" font-family="Arial" font-size="7"></text>
<rect x="141.100000" y="25.000000" width="25.800000" height="24.000000" rx="0" ry="0" style="stroke:none;fill:#cccccc;"/>
<rect x="140.100000" y="24.000000" width="25.800000" height="24.000000" rx="0" ry="0" style="stroke:none;fill:#4B71A1;"/>
<text x="153.000000" y="38.000000" font-family="Arial" font-size="7" text-anchor="middle" fill="#FFFFFF">atan</text>
<circle cx="142.100000" cy="26.000000" r="1"/>
<line x1="137.100000" y1="35.000000" x2="140.100000" y2="36.000000"  transform="rotate(0.000000,140.100000,36.000000)" style="stroke: black; stroke-width:0.25;"/>
<line x1="137.100000" y1="37.000000" x2="140.100000" y2="36.000000"  transform="rotate(0.000000,140.100000,36.000000)" style="stroke: black; stroke-width:0.25;"/>
<rect x="102.000000" y="65.000000" width="24.000000" height="24.000000" rx="0" ry="0" style="stroke:none;fill:#cccccc;"/>
<rect x="101.000000" y="64.000000" width="24.000000" height="24.000000" rx="0" ry="0" style="stroke:none;fill:#f44800;"/>
<text x="113.000000" y="78.000000" font-family="Arial" font-size="7" text-anchor="middle" fill="#FFFFFF">1</text>
<circle cx="103.000000" cy="66.000000" r="1"/>
<rect x="111.000000" y="97.000000" width="24.000000" height="24.000000" rx="0" ry="0" style="stroke:none;fill:#cccccc;"/>
<rect x="110.000000" y="96.000000" width="24.000000" height="24.000000" rx="0" ry="0" style="stroke:none;fill:#4B71A1;"/>
<text x="122.000000" y="110.000000" font-family="Arial" font-size="7" text-anchor="middle" fill="#FFFFFF">*</text>
<circle cx="112.000000" cy="98.000000" r="1"/>
<line x1="107.000000" y1="103.000000" x2="110.000000" y2="104.000000"  transform="rotate(0.000000,110.000000,104.000000)" style="stroke: black; stroke-width:0.25;"/>
<line x1="107.000000" y1="105.000000" x2="110.000000" y2="104.000000"  transform="rotate(0.000000,110.000000,104.000000)" style="stroke: black; stroke-width:0.25;"/>
<line x1="107.000000" y1="111.000000" x2="110.000000" y2="112.000000"  transform="rotate(0.000000,110.000000,112.000000)" style="stroke: black; stroke-width:0.25;"/>
<line x1="107.000000" y1="113.000000" x2="110.000000" y2="112.000000"  transform="rotate(0.000000,110.000000,112.000000)" style="stroke: black; stroke-width:0.25;"/>
<rect x="151.000000" y="81.000000" width="24.000000" height="24.000000" rx="0" ry="0" style="stroke:none;fill:#cccccc;"/>
<rect x="150.000000" y="80.000000" width="24.000000" height="24.000000" rx="0" ry="0" style="stroke:none;fill:#4B71A1;"/>
<text x="162.000000" y="94.000000" font-family="Arial" font-size="7" text-anchor="middle" fill="#FFFFFF">+</text>
<circle cx="152.000000" cy="82.000000" r="1"/>
<line x1="147.000000" y1="87.000000" x2="150.000000" y2="88.000000"  transform="rotate(0.000000,150.000000,88.000000)" style="stroke: black; stroke-width:0.25;"/>
<line x1="147.000000" y1="89.000000" x2="150.000000" y2="88.000000"  transform="rotate(0.000000,150.000000,88.000000)" style="stroke: black; stroke-width:0.25;"/>
<line x1="147.000000" y1="95.000000" x2="150.000000" y2="96.000000"  transform="rotate(0.000000,150.000000,96.000000)" style="stroke: black; stroke-width:0.25;"/>
<line x1="147.000000" y1="97.000000" x2="150.000000" y2="96.000000"  transform="rotate(0.000000,150.000000,96.000000)" style="stroke: black; stroke-width:0.25;"/>
<rect x="191.000000" y="77.000000" width="24.000000" height="24.000000" rx="0" ry="0" style="stroke:none;fill:#cccccc;"/>
<rect x="190.000000" y="76.000000" width="24.000000" height="24.000000" rx="0" ry="0" style="stroke:none;fill:#4B71A1;"/>
<text x="202.000000" y="90.000000" font-family="Arial" font-size="7" text-anchor="middle" fill="#FFFFFF">/</text>
<circle cx="192.000000" cy="78.000000" r="1"/>
<line x1="187.000000" y1="83.000000" x2="190.000000" y2="84.000000"  transform="rotate(0.000000,190.000000,84.000000)" style="stroke: black; stroke-width:0.25;"/>
<line x1="187.000000" y1="85.000000" x2="190.000000" y2="84.000000"  transform="rotate(0.000000,190.000000,84.000000)" style="stroke: black; stroke-width:0.25;"/>
<line x1="187.000000" y1="91.000000" x2="190.000000" y2="92.000000"  transform="rotate(0.000000,190.000000,92.000000)" style="stroke: black; stroke-width:0.25;"/>
<line x1="187.000000" y1="93.000000" x2="190.000000" y2="92.000000"  transform="rotate(0.000000,190.000000,92.000000)" style="stroke: black; stroke-width:0.25;"/>
<rect x="102.000000" y="137.000000" width="24.000000" height="24.000000" rx="0" ry="0" style="stroke:none;fill:#cccccc;"/>
<rect x="101.000000" y="136.000000" width="24.000000" height="24.000000" rx="0" ry="0" style="stroke:none;fill:#f44800;"/>
<text x="113.000000" y="150.000000" font-family="Arial" font-size="7" text-anchor="middle" fill="#FFFFFF">1</text>
<circle cx="103.000000" cy="138.000000" r="1"/>
<rect x="111.000000" y="169.000000" width="24.000000" height="24.000000" rx="0" ry="0" style="stroke:none;fill:#cccccc;"/>
<rect x="110.000000" y="168.000000" width="24.000000" height="24.000000" rx="0" ry="0" style="stroke:none;fill:#4B71A1;"/>
<text x="122.000000" y="182.000000" font-family="Arial" font-size="7" text-anchor="middle" fill="#FFFFFF">*</text>
<circle cx="112.000000" cy="170.000000" r="1"/>
<line x1="107.000000" y1="175.000000" x2="110.000000" y2="176.000000"  transform="rotate(0.000000,110.000000,176.000000)" style="stroke: black; stroke-width:0.25;"/>
<line x1="107.000000" y1="177.000000" x2="110.000000" y2="176.000000"  transform="rotate(0.000000,110.000000,176.000000)" style="stroke: black; stroke-width:0.25;"/>
<line x1="107.000000" y1="183.000000" x2="110.000000" y2="184.000000"  transform="rotate(0.000000,110.000000,184.000000)" style="stroke: black; stroke-width:0.25;"/>
<line x1="107.000000" y1="185.000000" x2="110.000000" y2="184.000000"  transform="rotate(0.000000,110.000000,184.000000)" style="stroke: black; stroke-width:0.25;"/>
<rect x="151.000000" y="153.000000" width="24.000000" height="24.000000" rx="0" ry="0" style="stroke:none;fill:#cccccc;"/>
<rect x="150.000000" y="152.000000" width="24.000000" height="24.000000" rx="0" ry="0" style="stroke:none;fill:#4B71A1;"/>
<text x="162.000000" y="166.000000" font-family="Arial" font-size="7" text-anchor="middle" fill="#FFFFFF">+</text>
<circle cx="152.000000" cy="154.000000" r="1"/>
<line x1="147.000000" y1="159.000000" x2="150.000000" y2="160.000000"  transform="rotate(0.000000,150.000000,160.000000)" style="stroke: black; stroke-width:0.25;"/>
<line x1="147.000000" y1="161.000000" x2="150.000000" y2="160.000000"  transform="rotate(0.000000,150.000000,160.000000)" style="stroke: black; stroke-width:0.25;"/>
<line x1="147.000000" y1="167.000000" x2="150.000000" y2="168.000000"  transform="rotate(0.000000,150.000000,168.000000)" style="stroke: black; stroke-width:0.25;"/>
<line x1="147.000000" y1="169.000000" x2="150.000000" y2="168.000000"  transform="rotate(0.000000,150.000000,168.000000)" style="stroke: black; stroke-width:0.25;"/>
<rect x="191.000000" y="149.000000" width="24.000000" height="24.000000" rx="0" ry="0" style="stroke:none;fill:#cccccc;"/>
<rect x="190.000000" y="148.000000" width="24.000000" height="24.000000" rx="0" ry="0" style="stroke:none;fill:#4B71A1;"/>
<text x="202.000000" y="162.000000" font-family="Arial" font-size="7" text-anchor="middle" fill="#FFFFFF">/</text>
<circle cx="192.000000" cy="150.000000" r="1"/>
<line x1="187.000000" y1="155.000000" x2="190.000000" y2="156.000000"  transform="rotate(0.000000,190.000000,156.000000)" style="stroke: black; stroke-width:0.25;"/>
<line x1="187.000000" y1="157.000000" x2="190.000000" y2="156.000000"  transform="rotate(0.000000,190.000000,156.000000)" style="stroke: black; stroke-width:0.25;"/>
<line x1="187.000000" y1="163.000000" x2="190.000000" y2="164.000000"  transform="rotate(0.000000,190.000000,164.000000)" style="stroke: black; stroke-width:0.25;"/>
<line x1="187.000000" y1="165.000000" x2="190.000000" y2="164.000000"  transform="rotate(0.000000,190.000000,164.000000)" style="stroke: black; stroke-width:0.25;"/>
<line x1="15.000000" y1="15.000000" x2="15.000000" y2="201.000000"  style="stroke: black; stroke-linecap:round; stroke-width:0.25; stroke-dasharray:3,3;"/>
<line x1="15.000000" y1="201.000000" x2="247.000000" y2="201.000000"  style="stroke: black; stroke-linecap:round; stroke-width:0.25; stroke-dasharray:3,3;"/>
<line x1="247.000000" y1="201.000000" x2="247.000000" y2="15.000000"  style="stroke: black; stroke-linecap:round; stroke-width:0.25; stroke-dasharray:3,3;"/>
<line x1="15.000000" y1="15.000000" x2="20.000000" y2="15.000000"  style="stroke: black; stroke-linecap:round; stroke-width:0.25; stroke-dasharray:3,3;"/>
<line x1="49.025000" y1="15.000000" x2="247.000000" y2="15.000000"  style="stroke: black; stroke-linecap:round; stroke-width:0.25; stroke-dasharray:3,3;"/>
<text x="20.000000" y="17.000000" font-family="Arial" font-size="7">process</text>
<line x1="249.000000" y1="99.000000" x2="252.000000" y2="100.000000"  transform="rotate(0.000000,252.000000,100.000000)" style="stroke: black; stroke-width:0.25;"/>
<line x1="249.000000" y1="101.000000" x2="252.000000" y2="100.000000"  transform="rotate(0.000000,252.000000,100.000000)" style="stroke: black; stroke-width:0.25;"/>
<line x1="249.000000" y1="107.000000" x2="252.000000" y2="108.000000"  transform="rotate(0.000000,252.000000,108.000000)" style="stroke: black; stroke-width:0.25;"/>
<line x1="249.000000" y1="109.000000" x2="252.000000" y2="108.000000"  transform="rotate(0.000000,252.000000,108.000000)" style="stroke: black; stroke-width:0.25;"/>
<line x1="249.000000" y1="115.000000" x2="252.000000" y2="116.000000"  transform="rotate(0.000000,252.000000,116.000000)" style="stroke: black; stroke-width:0.25;"/>
<line x1="249.000000" y1="117.000000" x2="252.000000" y2="116.000000"  transform="rotate(0.000000,252.000000,116.000000)" style="stroke: black; stroke-width:0.25;"/>
<line x1="10.000000" y1="100.000000" x2="20.000000" y2="100.000000"  style="stroke:black; stroke-linecap:round; stroke-width:0.25;"/>
<line x1="10.000000" y1="108.000000" x2="20.000000" y2="108.000000"  style="stroke:black; stroke-linecap:round; stroke-width:0.25;"/>
<line x1="10.000000" y1="116.000000" x2="20.000000" y2="116.000000"  style="stroke:black; stroke-linecap:round; stroke-width:0.25;"/>
<line x1="20.000000" y1="100.000000" x2="24.000000" y2="100.000000"  style="stroke:black; stroke-linecap:round; stroke-width:0.25;"/>
<line x1="20.000000" y1="108.000000" x2="24.000000" y2="108.000000"  style="stroke:black; stroke-linecap:round; stroke-width:0.25;"/>
<line x1="20.000000" y1="116.000000" x2="24.000000" y2="116.000000"  style="stroke:black; stroke-linecap:round; stroke-width:0.25;"/>
<line x1="24.000000" y1="100.000000" x2="28.000000" y2="100.000000"  style="stroke:black; stroke-linecap:round; stroke-width:0.25;"/>
<line x1="24.000000" y1="108.000000" x2="28.000000" y2="108.000000"  style="stroke:black; stroke-linecap:round; stroke-width:0.25;"/>
<line x1="24.000000" y1="116.000000" x2="28.000000" y2="116.000000"  style="stroke:black; stroke-linecap:round; stroke-width:0.25;"/>
<line x1="28.000000" y1="100.000000" x2="28.000000" y2="100.000000"  style="stroke:black; stroke-linecap:round; stroke-width:0.25;"/>
<line x1="28.000000" y1="100.000000" x2="32.000000" y2="100.000000"  style="stroke:black; stroke-linecap:round; stroke-width:0.25;"/>
<line x1="28.000000" y1="108.000000" x2="28.000000" y2="108.000000"  style="stroke:black; stroke-linecap:round; stroke-width:0.25;"/>
<line x1="28.000000" y1="108.000000" x2="32.000000" y2="108.000000"  style="stroke:black; stroke-linecap:round; stroke-width:0.25;"/>
<line x1="28.000000" y1="116.000000" x2="28.000000" y2="116.000000"  style="stroke:black; stroke-linecap:round; stroke-width:0.25;"/>
<line x1="28.000000" y1="116.000000" x2="32.000000" y2="116.000000"  style="stroke:black; stroke-linecap:round; stroke-width:0.25;"/>
<line x1="32.000000" y1="100.000000" x2="68.000000" y2="92.000000"  style="stroke:black; stroke-linecap:round; stroke-width:0.25;"/>
<line x1="32.000000" y1="100.000000" x2="68.000000" y2="108.000000"  style="stroke:black; stroke-linecap:round; stroke-width:0.25;"/>
<line x1="32.000000" y1="100.000000" x2="68.000000" y2="124.000000"  style="stroke:black; stroke-linecap:round; stroke-width:0.25;"/>
<line x1="32.000000" y1="108.000000" x2="68.000000" y2="100.000000"  style="stroke:black; stroke-linecap:round; stroke-width:0.25;"/>
<line x1="32.000000" y1="116.000000" x2="68.000000" y2="116.000000"  style="stroke:black; stroke-linecap:round; stroke-width:0.25;"/>
<line x1="68.000000" y1="92.000000" x2="72.000000" y2="92.000000"  style="stroke:black; stroke-linecap:round; stroke-width:0.25;"/>
<line x1="68.000000" y1="100.000000" x2="72.000000" y2="100.000000"  style="stroke:black; stroke-linecap:round; stroke-width:0.25;"/>
<line x1="68.000000" y1="108.000000" x2="72.000000" y2="108.000000"  style="stroke:black; stroke-linecap:round; stroke-width:0.25;"/>
<line x1="68.000000" y1="116.000000" x2="72.000000" y2="116.000000"  style="stroke:black; stroke-linecap:round; stroke-width:0.25;"/>
<line x1="68.000000" y1="124.000000" x2="72.000000" y2="124.000000"  style="stroke:black; stroke-linecap:round; stroke-width:0.25;"/>
<line x1="72.000000" y1="36.000000" x2="88.000000" y2="36.000000"  style="stroke:black; stroke-linecap:round; stroke-width:0.25;"/>
<line x1="72.000000" y1="92.000000" x2="72.000000" y2="36.000000"  style="stroke:black; stroke-linecap:round; stroke-width:0.25;"/>
<line x1="72.000000" y1="92.000000" x2="72.000000" y2="92.000000"  style="stroke:black; stroke-linecap:round; stroke-width:0.25;"/>
<line x1="72.000000" y1="100.000000" x2="80.000000" y2="100.000000"  style="stroke:black; stroke-linecap:round; stroke-width:0.25;"/>
<line x1="72.000000" y1="108.000000" x2="88.000000" y2="108.000000"  style="stroke:black; stroke-linecap:round; stroke-width:0.25;"/>
<line x1="72.000000" y1="116.000000" x2="88.000000" y2="116.000000"  style="stroke:black; stroke-linecap:round; stroke-width:0.25;"/>
<line x1="72.000000" y1="124.000000" x2="80.000000" y2="124.000000"  style="stroke:black; stroke-linecap:round; stroke-width:0.25;"/>
<line x1="80.000000" y1="56.000000" x2="88.000000" y2="56.000000"  style="stroke:black; stroke-linecap:round; stroke-width:0.25;"/>
<line x1="80.000000" y1="100.000000" x2="80.000000" y2="56.000000"  style="stroke:black; stroke-linecap:round; stroke-width:0.25;"/>
<line x1="80.000000" y1="124.000000" x2="80.000000" y2="180.000000"  style="stroke:black; stroke-linecap:round; stroke-width:0.25;"/>
<line x1="80.000000" y1="180.000000" x2="88.000000" y2="180.000000"  style="stroke:black; stroke-linecap:round; stroke-width:0.25;"/>
<line x1="88.000000" y1="36.000000" x2="136.100000" y2="36.000000"  style="stroke:black; stroke-linecap:round; stroke-width:0.25;"/>
<line x1="88.000000" y1="56.000000" x2="133.000000" y2="56.000000"  style="stroke:black; stroke-linecap:round; stroke-width:0.25;"/>
<line x1="88.000000" y1="108.000000" x2="92.000000" y2="108.000000"  style="stroke:black; stroke-linecap:round; stroke-width:0.25;"/>
<line x1="88.000000" y1="116.000000" x2="88.000000" y2="128.000000"  style="stroke:black; stroke-linecap:round; stroke-width:0.25;"/>
<line x1="88.000000" y1="128.000000" x2="88.000000" y2="128.000000"  style="stroke:black; stroke-linecap:round; stroke-width:0.25;"/>
<line x1="88.000000" y1="128.000000" x2="133.000000" y2="128.000000"  style="stroke:black; stroke-linecap:round; stroke-width:0.25;"/>
<line x1="88.000000" y1="180.000000" x2="92.000000" y2="180.000000"  style="stroke:black; stroke-linecap:round; stroke-width:0.25;"/>
<line x1="92.000000" y1="108.000000" x2="96.000000" y2="108.000000"  style="stroke:black; stroke-linecap:round; stroke-width:0.25;"/>
<line x1="92.000000" y1="180.000000" x2="96.000000" y2="180.000000"  style="stroke:black; stroke-linecap:round; stroke-width:0.25;"/>
<line x1="96.000000" y1="108.000000" x2="106.000000" y2="104.000000"  style="stroke:black; stroke-linecap:round; stroke-width:0.25;"/>
<line x1="96.000000" y1="108.000000" x2="106.000000" y2="112.000000"  style="stroke:black; stroke-linecap:round; stroke-width:0.25;"/>
<line x1="96.000000" y1="180.000000" x2="106.000000" y2="176.000000"  style="stroke:black; stroke-linecap:round; stroke-width:0.25;"/>
<line x1="96.000000" y1="180.000000" x2="106.000000" y2="184.000000"  style="stroke:black; stroke-linecap:round; stroke-width:0.25;"/>
<line x1="106.000000" y1="104.000000" x2="110.000000" y2="104.000000"  style="stroke:black; stroke-linecap:round; stroke-width:0.25;"/>
<line x1="106.000000" y1="112.000000" x2="110.000000" y2="112.000000"  style="stroke:black; stroke-linecap:round; stroke-width:0.25;"/>
<line x1="106.000000" y1="176.000000" x2="110.000000" y2="176.000000"  style="stroke:black; stroke-linecap:round; stroke-width:0.25;"/>
<line x1="106.000000" y1="184.000000" x2="110.000000" y2="184.000000"  style="stroke:black; stroke-linecap:round; stroke-width:0.25;"/>
<line x1="125.000000" y1="76.000000" x2="129.000000" y2="76.000000"  style="stroke:black; stroke-linecap:round; stroke-width:0.25;"/>
<line x1="125.000000" y1="148.000000" x2="129.000000" y2="148.000000"  style="stroke:black; stroke-linecap:round; stroke-width:0.25;"/>
<line x1="129.000000" y1="76.000000" x2="138.000000" y2="76.000000"  style="stroke:black; stroke-linecap:round; stroke-width:0.25;"/>
<line x1="129.000000" y1="148.000000" x2="138.000000" y2="148.000000"  style="stroke:black; stroke-linecap:round; stroke-width:0.25;"/>
<line x1="133.000000" y1="56.000000" x2="178.000000" y2="56.000000"  style="stroke:black; stroke-linecap:round; stroke-width:0.25;"/>
<line x1="133.000000" y1="128.000000" x2="178.000000" y2="128.000000"  style="stroke:black; stroke-linecap:round; stroke-width:0.25;"/>
<line x1="134.000000" y1="108.000000" x2="138.000000" y2="108.000000"  style="stroke:black; stroke-linecap:round; stroke-width:0.25;"/>
<line x1="134.000000" y1="180.000000" x2="138.000000" y2="180.000000"  style="stroke:black; stroke-linecap:round; stroke-width:0.25;"/>
<line x1="136.100000" y1="36.000000" x2="140.100000" y2="36.000000"  style="stroke:black; stroke-linecap:round; stroke-width:0.25;"/>
<line x1="138.000000" y1="76.000000" x2="146.000000" y2="76.000000"  style="stroke:black; stroke-linecap:round; stroke-width:0.25;"/>
<line x1="138.000000" y1="96.000000" x2="146.000000" y2="96.000000"  style="stroke:black; stroke-linecap:round; stroke-width:0.25;"/>
<line x1="138.000000" y1="108.000000" x2="138.000000" y2="96.000000"  style="stroke:black; stroke-linecap:round; stroke-width:0.25;"/>
<line x1="138.000000" y1="108.000000" x2="138.000000" y2="108.000000"  style="stroke:black; stroke-linecap:round; stroke-width:0.25;"/>
<line x1="138.000000" y1="148.000000" x2="146.000000" y2="148.000000"  style="stroke:black; stroke-linecap:round; stroke-width:0.25;"/>
<line x1="138.000000" y1="168.000000" x2="146.000000" y2="168.000000"  style="stroke:black; stroke-linecap:round; stroke-width:0.25;"/>
<line x1="138.000000" y1="180.000000" x2="138.000000" y2="168.000000"  style="stroke:black; stroke-linecap:round; stroke-width:0.25;"/>
<line x1="138.000000" y1="180.000000" x2="138.000000" y2="180.000000"  style="stroke:black; stroke-linecap:round; stroke-width:0.25;"/>
<line x1="146.000000" y1="76.000000" x2="146.000000" y2="88.000000"  style="stroke:black; stroke-linecap:round; stroke-width:0.25;"/>
<line x1="146.000000" y1="88.000000" x2="146.000000" y2="88.000000"  style="stroke:black; stroke-linecap:round; stroke-width:0.25;"/>
<line x1="146.000000" y1="88.000000" x2="150.000000" y2="88.000000"  style="stroke:black; stroke-linecap:round; stroke-width:0.25;"/>
<line x1="146.000000" y1="96.000000" x2="150.000000" y2="96.000000"  style="stroke:black; stroke-linecap:round; stroke-width:0.25;"/>
<line x1="146.000000" y1="148.000000" x2="146.000000" y2="160.000000"  style="stroke:black; stroke-linecap:round; stroke-width:0.25;"/>
<line x1="146.000000" y1="160.000000" x2="146.000000" y2="160.000000"  style="stroke:black; stroke-linecap:round; stroke-width:0.25;"/>
<line x1="146.000000" y1="160.000000" x2="150.000000" y2="160.000000"  style="stroke:black; stroke-linecap:round; stroke-width:0.25;"/>
<line x1="146.000000" y1="168.000000" x2="150.000000" y2="168.000000"  style="stroke:black; stroke-linecap:round; stroke-width:0.25;"/>
<line x1="165.900000" y1="36.000000" x2="169.900000" y2="36.000000"  style="stroke:black; stroke-linecap:round; stroke-width:0.25;"/>
<line x1="169.900000" y1="36.000000" x2="218.000000" y2="36.000000"  style="stroke:black; stroke-linecap:round; stroke-width:0.25;"/>
<line x1="174.000000" y1="92.000000" x2="178.000000" y2="92.000000"  style="stroke:black; stroke-linecap:round; stroke-width:0.25;"/>
<line x1="174.000000" y1="164.000000" x2="178.000000" y2="164.000000"  style="stroke:black; stroke-linecap:round; stroke-width:0.25;"/>
<line x1="178.000000" y1="56.000000" x2="186.000000" y2="56.000000"  style="stroke:black; stroke-linecap:round; stroke-width:0.25;"/>
<line x1="178.000000" y1="92.000000" x2="186.000000" y2="92.000000"  style="stroke:black; stroke-linecap:round; stroke-width:0.25;"/>
<line x1="178.000000" y1="128.000000" x2="186.000000" y2="128.000000"  style="stroke:black; stroke-linecap:round; stroke-width:0.25;"/>
<line x1="178.000000" y1="164.000000" x2="186.000000" y2="164.000000"  style="stroke:black; stroke-linecap:round; stroke-width:0.25;"/>
<line x1="186.000000" y1="56.000000" x2="186.000000" y2="84.000000"  style="stroke:black; stroke-linecap:round; stroke-width:0.25;"/>
<line x1="186.000000" y1="84.000000" x2="186.000000" y2="84.000000"  style="stroke:black; stroke-linecap:round; stroke-width:0.25;"/>
<line x1="186.000000" y1="84.000000" x2="190.000000" y2="84.000000"  style="stroke:black; stroke-linecap:round; stroke-width:0.25;"/>
<line x1="186.000000" y1="92.000000" x2="190.000000" y2="92.000000"  style="stroke:black; stroke-linecap:round; stroke-width:0.25;"/>
<line x1="186.000000" y1="128.000000" x2="186.000000" y2="156.000000"  style="stroke:black; stroke-linecap:round; stroke-width:0.25;"/>
<line x1="186.000000" y1="156.000000" x2="186.000000" y2="156.000000"  style="stroke:black; stroke-linecap:round; stroke-width:0.25;"/>
<line x1="186.000000" y1="156.000000" x2="190.000000" y2="156.000000"  style="stroke:black; stroke-linecap:round; stroke-width:0.25;"/>
<line x1="186.000000" y1="164.000000" x2="190.000000" y2="164.000000"  style="stroke:black; stroke-linecap:round; stroke-width:0.25;"/>
<line x1="214.000000" y1="88.000000" x2="218.000000" y2="88.000000"  style="stroke:black; stroke-linecap:round; stroke-width:0.25;"/>
<line x1="214.000000" y1="160.000000" x2="218.000000" y2="160.000000"  style="stroke:black; stroke-linecap:round; stroke-width:0.25;"/>
<line x1="218.000000" y1="36.000000" x2="234.000000" y2="36.000000"  style="stroke:black; stroke-linecap:round; stroke-width:0.25;"/>
<line x1="218.000000" y1="88.000000" x2="226.000000" y2="88.000000"  style="stroke:black; stroke-linecap:round; stroke-width:0.25;"/>
<line x1="218.000000" y1="116.000000" x2="234.000000" y2="116.000000"  style="stroke:black; stroke-linecap:round; stroke-width:0.25;"/>
<line x1="218.000000" y1="160.000000" x2="218.000000" y2="116.000000"  style="stroke:black; stroke-linecap:round; stroke-width:0.25;"/>
<line x1="218.000000" y1="160.000000" x2="218.000000" y2="160.000000"  style="stroke:black; stroke-linecap:round; stroke-width:0.25;"/>
<line x1="226.000000" y1="88.000000" x2="226.000000" y2="108.000000"  style="stroke:black; stroke-linecap:round; stroke-width:0.25;"/>
<line x1="226.000000" y1="108.000000" x2="234.000000" y2="108.000000"  style="stroke:black; stroke-linecap:round; stroke-width:0.25;"/>
<line x1="234.000000" y1="36.000000" x2="234.000000" y2="100.000000"  style="stroke:black; stroke-linecap:round; stroke-width:0.25;"/>
<line x1="234.000000" y1="100.000000" x2="234.000000" y2="100.000000"  style="stroke:black; stroke-linecap:round; stroke-width:0.25;"/>
<line x1="234.000000" y1="100.000000" x2="238.000000" y2="100.000000"  style="stroke:black; stroke-linecap:round; stroke-width:0.25;"/>
<line x1="234.000000" y1="108.000000" x2="238.000000" y2="108.000000"  style="stroke:black; stroke-linecap:round; stroke-width:0.25;"/>
<line x1="234.000000" y1="116.000000" x2="238.000000" y2="116.000000"  style="stroke:black; stroke-linecap:round; stroke-width:0.25;"/>
<line x1="238.000000" y1="100.000000" x2="242.000000" y2="100.000000"  style="stroke:black; stroke-linecap:round; stroke-width:0.25;"/>
<line x1="238.000000" y1="108.000000" x2="242.000000" y2="108.000000"  style="stroke:black; stroke-linecap:round; stroke-width:0.25;"/>
<line x1="238.000000" y1="116.000000" x2="242.000000" y2="116.000000"  style="stroke:black; stroke-linecap:round; stroke-width:0.25;"/>
<line x1="242.000000" y1="100.000000" x2="252.000000" y2="100.000000"  style="stroke:black; stroke-linecap:round; stroke-width:0.25;"/>
<line x1="242.000000" y1="108.000000" x2="252.000000" y2="108.000000"  style="stroke:black; stroke-linecap:round; stroke-width:0.25;"/>
<line x1="242.000000" y1="116.000000" x2="252.000000" y2="116.000000"  style="stroke:black; stroke-linecap:round; stroke-width:0.25;"/>
</svg>
