<?xml version="1.0"?>
<svg xmlns="http://www.w3.org/2000/svg" xmlns:xlink="http://www.w3.org/1999/xlink" viewBox="0 0 536.100000 384.000000" width="268.050000mm" height="192.000000mm" version="1.1">
<rect x="1.000000" y="1.000000" width="535.100000" height="383.000000" rx="0" ry="0" style="stroke:none;fill:#cccccc;"/>
<rect x="0.000000" y="0.000000" width="535.100000" height="383.000000" rx="0" ry="0" style="stroke:none;fill:#ffffff;"/>
<text x="10.000000" y="7.000000" font-family="Arial" font-size="7"></text>
<rect x="282.150000" y="25.000000" width="25.800000" height="24.000000" rx="0" ry="0" style="stroke:none;fill:#cccccc;"/>
<rect x="281.150000" y="24.000000" width="25.800000" height="24.000000" rx="0" ry="0" style="stroke:none;fill:#4B71A1;"/>
<text x="294.050000" y="38.000000" font-family="Arial" font-size="7" text-anchor="middle" fill="#FFFFFF">sqrt</text>
<circle cx="283.150000" cy="26.000000" r="1"/>
<line x1="278.150000" y1="35.000000" x2="281.150000" y2="36.000000"  transform="rotate(0.000000,281.150000,36.000000)" style="stroke: black; stroke-width:0.25;"/>
<line x1="278.150000" y1="37.000000" x2="281.150000" y2="36.000000"  transform="rotate(0.000000,281.150000,36.000000)" style="stroke: black; stroke-width:0.25;"/>
<rect x="101.000000" y="123.000000" width="25.800000" height="24.000000" rx="0" ry="0" style="stroke:none;fill:#cccccc;"/>
<rect x="100.000000" y="122.000000" width="25.800000" height="24.000000" rx="0" ry="0" style="stroke:none;fill:#4B71A1;"/>
<text x="112.900000" y="136.000000" font-family="Arial" font-size="7" text-anchor="middle" fill="#FFFFFF">sqrt</text>
<circle cx="102.000000" cy="124.000000" r="1"/>
<line x1="97.000000" y1="133.000000" x2="100.000000" y2="134.000000"  transform="rotate(0.000000,100.000000,134.000000)" style="stroke: black; stroke-width:0.25;"/>
<line x1="97.000000" y1="135.000000" x2="100.000000" y2="134.000000"  transform="rotate(0.000000,100.000000,134.000000)" style="stroke: black; stroke-width:0.25;"/>
<rect x="152.800000" y="127.000000" width="24.000000" height="24.000000" rx="0" ry="0" style="stroke:none;fill:#cccccc;"/>
<rect x="151.800000" y="126.000000" width="24.000000" height="24.000000" rx="0" ry="0" style="stroke:none;fill:#f44800;"/>
<text x="163.800000" y="140.000000" font-family="Arial" font-size="7" text-anchor="middle" fill="#FFFFFF">2</text>
<circle cx="153.800000" cy="128.000000" r="1"/>
<line x1="142.800000" y1="117.000000" x2="142.800000" y2="159.000000"  style="stroke: black; stroke-linecap:round; stroke-width:0.25; stroke-dasharray:3,3;"/>
<line x1="142.800000" y1="159.000000" x2="184.800000" y2="159.000000"  style="stroke: black; stroke-linecap:round; stroke-width:0.25; stroke-dasharray:3,3;"/>
<line x1="184.800000" y1="159.000000" x2="184.800000" y2="117.000000"  style="stroke: black; stroke-linecap:round; stroke-width:0.25; stroke-dasharray:3,3;"/>
<line x1="142.800000" y1="117.000000" x2="147.800000" y2="117.000000"  style="stroke: black; stroke-linecap:round; stroke-width:0.25; stroke-dasharray:3,3;"/>
<line x1="157.475000" y1="117.000000" x2="184.800000" y2="117.000000"  style="stroke: black; stroke-linecap:round; stroke-width:0.25; stroke-dasharray:3,3;"/>
<text x="147.800000" y="119.000000" font-family="Arial" font-size="7">N</text>
<rect x="202.800000" y="123.000000" width="24.000000" height="24.000000" rx="0" ry="0" style="stroke:none;fill:#cccccc;"/>
<rect x="201.800000" y="122.000000" width="24.000000" height="24.000000" rx="0" ry="0" style="stroke:none;fill:#4B71A1;"/>
<text x="213.800000" y="136.000000" font-family="Arial" font-size="7" text-anchor="middle" fill="#FFFFFF">*</text>
<circle cx="203.800000" cy="124.000000" r="1"/>
<line x1="198.800000" y1="129.000000" x2="201.800000" y2="130.000000"  transform="rotate(0.000000,201.800000,130.000000)" style="stroke: black; stroke-width:0.25;"/>
<line x1="198.800000" y1="131.000000" x2="201.800000" y2="130.000000"  transform="rotate(0.000000,201.800000,130.000000)" style="stroke: black; stroke-width:0.25;"/>
<line x1="198.800000" y1="137.000000" x2="201.800000" y2="138.000000"  transform="rotate(0.000000,201.800000,138.000000)" style="stroke: black; stroke-width:0.25;"/>
<line x1="198.800000" y1="139.000000" x2="201.800000" y2="138.000000"  transform="rotate(0.000000,201.800000,138.000000)" style="stroke: black; stroke-width:0.25;"/>
<rect x="260.800000" y="103.000000" width="25.800000" height="24.000000" rx="0" ry="0" style="stroke:none;fill:#cccccc;"/>
<rect x="259.800000" y="102.000000" width="25.800000" height="24.000000" rx="0" ry="0" style="stroke:none;fill:#47945E;"/>
<text x="272.700000" y="116.000000" font-family="Arial" font-size="7" text-anchor="middle" fill="#FFFFFF">[1] x</text>
<circle cx="261.800000" cy="104.000000" r="1"/>
<line x1="256.800000" y1="113.000000" x2="259.800000" y2="114.000000"  transform="rotate(0.000000,259.800000,114.000000)" style="stroke: black; stroke-width:0.25;"/>
<line x1="256.800000" y1="115.000000" x2="259.800000" y2="114.000000"  transform="rotate(0.000000,259.800000,114.000000)" style="stroke: black; stroke-width:0.25;"/>
<rect x="260.800000" y="135.000000" width="25.800000" height="24.000000" rx="0" ry="0" style="stroke:none;fill:#cccccc;"/>
<rect x="259.800000" y="134.000000" width="25.800000" height="24.000000" rx="0" ry="0" style="stroke:none;fill:#47945E;"/>
<text x="272.700000" y="148.000000" font-family="Arial" font-size="7" text-anchor="middle" fill="#FFFFFF">[2] y</text>
<circle cx="261.800000" cy="136.000000" r="1"/>
<line x1="256.800000" y1="145.000000" x2="259.800000" y2="146.000000"  transform="rotate(0.000000,259.800000,146.000000)" style="stroke: black; stroke-width:0.25;"/>
<line x1="256.800000" y1="147.000000" x2="259.800000" y2="146.000000"  transform="rotate(0.000000,259.800000,146.000000)" style="stroke: black; stroke-width:0.25;"/>
<rect x="353.950000" y="77.000000" width="25.800000" height="24.000000" rx="0" ry="0" style="stroke:none;fill:#cccccc;"/>
<rect x="352.950000" y="76.000000" width="25.800000" height="24.000000" rx="0" ry="0" style="stroke:none;fill:#47945E;"/>
<text x="365.850000" y="90.000000" font-family="Arial" font-size="7" text-anchor="middle" fill="#FFFFFF">[1] x</text>
<circle cx="354.950000" cy="78.000000" r="1"/>
<rect x="333.950000" y="109.000000" width="25.800000" height="24.000000" rx="0" ry="0" style="stroke:none;fill:#cccccc;"/>
<rect x="332.950000" y="108.000000" width="25.800000" height="24.000000" rx="0" ry="0" style="stroke:none;fill:#47945E;"/>
<text x="345.850000" y="122.000000" font-family="Arial" font-size="7" text-anchor="middle" fill="#FFFFFF">[2] y</text>
<circle cx="334.950000" cy="110.000000" r="1"/>
<rect x="314.600000" y="151.000000" width="64.500000" height="24.000000" rx="0" ry="0" style="stroke:none;fill:#cccccc;"/>
<rect x="313.600000" y="150.000000" width="64.500000" height="24.000000" rx="0" ry="0" style="stroke:none;fill:#f44800;"/>
<text x="345.850000" y="164.000000" font-family="Arial" font-size="7" text-anchor="middle" fill="#FFFFFF">1.1920929e-07f</text>
<circle cx="315.600000" cy="152.000000" r="1"/>
<line x1="304.600000" y1="141.000000" x2="304.600000" y2="183.000000"  style="stroke: black; stroke-linecap:round; stroke-width:0.25; stroke-dasharray:3,3;"/>
<line x1="304.600000" y1="183.000000" x2="387.100000" y2="183.000000"  style="stroke: black; stroke-linecap:round; stroke-width:0.25; stroke-dasharray:3,3;"/>
<line x1="387.100000" y1="183.000000" x2="387.100000" y2="141.000000"  style="stroke: black; stroke-linecap:round; stroke-width:0.25; stroke-dasharray:3,3;"/>
<line x1="304.600000" y1="141.000000" x2="309.600000" y2="141.000000"  style="stroke: black; stroke-linecap:round; stroke-width:0.25; stroke-dasharray:3,3;"/>
<line x1="338.625000" y1="141.000000" x2="387.100000" y2="141.000000"  style="stroke: black; stroke-linecap:round; stroke-width:0.25; stroke-dasharray:3,3;"/>
<text x="309.600000" y="143.000000" font-family="Arial" font-size="7">EPSILON</text>
<rect x="405.100000" y="135.000000" width="24.000000" height="24.000000" rx="0" ry="0" style="stroke:none;fill:#cccccc;"/>
<rect x="404.100000" y="134.000000" width="24.000000" height="24.000000" rx="0" ry="0" style="stroke:none;fill:#4B71A1;"/>
<text x="416.100000" y="148.000000" font-family="Arial" font-size="7" text-anchor="middle" fill="#FFFFFF">min</text>
<circle cx="406.100000" cy="136.000000" r="1"/>
<line x1="401.100000" y1="141.000000" x2="404.100000" y2="142.000000"  transform="rotate(0.000000,404.100000,142.000000)" style="stroke: black; stroke-width:0.25;"/>
<line x1="401.100000" y1="143.000000" x2="404.100000" y2="142.000000"  transform="rotate(0.000000,404.100000,142.000000)" style="stroke: black; stroke-width:0.25;"/>
<line x1="401.100000" y1="149.000000" x2="404.100000" y2="150.000000"  transform="rotate(0.000000,404.100000,150.000000)" style="stroke: black; stroke-width:0.25;"/>
<line x1="401.100000" y1="151.000000" x2="404.100000" y2="150.000000"  transform="rotate(0.000000,404.100000,150.000000)" style="stroke: black; stroke-width:0.25;"/>
<rect x="445.100000" y="119.000000" width="24.000000" height="24.000000" rx="0" ry="0" style="stroke:none;fill:#cccccc;"/>
<rect x="444.100000" y="118.000000" width="24.000000" height="24.000000" rx="0" ry="0" style="stroke:none;fill:#4B71A1;"/>
<text x="456.100000" y="132.000000" font-family="Arial" font-size="7" text-anchor="middle" fill="#FFFFFF">/</text>
<circle cx="446.100000" cy="120.000000" r="1"/>
<line x1="441.100000" y1="125.000000" x2="444.100000" y2="126.000000"  transform="rotate(0.000000,444.100000,126.000000)" style="stroke: black; stroke-width:0.25;"/>
<line x1="441.100000" y1="127.000000" x2="444.100000" y2="126.000000"  transform="rotate(0.000000,444.100000,126.000000)" style="stroke: black; stroke-width:0.25;"/>
<line x1="441.100000" y1="133.000000" x2="444.100000" y2="134.000000"  transform="rotate(0.000000,444.100000,134.000000)" style="stroke: black; stroke-width:0.25;"/>
<line x1="441.100000" y1="135.000000" x2="444.100000" y2="134.000000"  transform="rotate(0.000000,444.100000,134.000000)" style="stroke: black; stroke-width:0.25;"/>
<line x1="294.600000" y1="67.000000" x2="294.600000" y2="193.000000"  style="stroke: black; stroke-linecap:round; stroke-width:0.25; stroke-dasharray:3,3;"/>
<line x1="294.600000" y1="193.000000" x2="477.100000" y2="193.000000"  style="stroke: black; stroke-linecap:round; stroke-width:0.25; stroke-dasharray:3,3;"/>
<line x1="477.100000" y1="193.000000" x2="477.100000" y2="67.000000"  style="stroke: black; stroke-linecap:round; stroke-width:0.25; stroke-dasharray:3,3;"/>
<line x1="294.600000" y1="67.000000" x2="299.600000" y2="67.000000"  style="stroke: black; stroke-linecap:round; stroke-width:0.25; stroke-dasharray:3,3;"/>
<line x1="318.950000" y1="67.000000" x2="477.100000" y2="67.000000"  style="stroke: black; stroke-linecap:round; stroke-width:0.25; stroke-dasharray:3,3;"/>
<text x="299.600000" y="69.000000" font-family="Arial" font-size="7">divi</text>
<line x1="250.800000" y1="57.000000" x2="250.800000" y2="203.000000"  style="stroke: black; stroke-linecap:round; stroke-width:0.25; stroke-dasharray:3,3;"/>
<line x1="250.800000" y1="203.000000" x2="487.100000" y2="203.000000"  style="stroke: black; stroke-linecap:round; stroke-width:0.25; stroke-dasharray:3,3;"/>
<line x1="487.100000" y1="203.000000" x2="487.100000" y2="57.000000"  style="stroke: black; stroke-linecap:round; stroke-width:0.25; stroke-dasharray:3,3;"/>
<line x1="250.800000" y1="57.000000" x2="255.800000" y2="57.000000"  style="stroke: black; stroke-linecap:round; stroke-width:0.25; stroke-dasharray:3,3;"/>
<line x1="271.925000" y1="57.000000" x2="487.100000" y2="57.000000"  style="stroke: black; stroke-linecap:round; stroke-width:0.25; stroke-dasharray:3,3;"/>
<text x="255.800000" y="59.000000" font-family="Arial" font-size="7">div</text>
<rect x="101.000000" y="279.000000" width="25.800000" height="24.000000" rx="0" ry="0" style="stroke:none;fill:#cccccc;"/>
<rect x="100.000000" y="278.000000" width="25.800000" height="24.000000" rx="0" ry="0" style="stroke:none;fill:#4B71A1;"/>
<text x="112.900000" y="292.000000" font-family="Arial" font-size="7" text-anchor="middle" fill="#FFFFFF">sqrt</text>
<circle cx="102.000000" cy="280.000000" r="1"/>
<line x1="97.000000" y1="289.000000" x2="100.000000" y2="290.000000"  transform="rotate(0.000000,100.000000,290.000000)" style="stroke: black; stroke-width:0.25;"/>
<line x1="97.000000" y1="291.000000" x2="100.000000" y2="290.000000"  transform="rotate(0.000000,100.000000,290.000000)" style="stroke: black; stroke-width:0.25;"/>
<rect x="152.800000" y="283.000000" width="24.000000" height="24.000000" rx="0" ry="0" style="stroke:none;fill:#cccccc;"/>
<rect x="151.800000" y="282.000000" width="24.000000" height="24.000000" rx="0" ry="0" style="stroke:none;fill:#f44800;"/>
<text x="163.800000" y="296.000000" font-family="Arial" font-size="7" text-anchor="middle" fill="#FFFFFF">2</text>
<circle cx="153.800000" cy="284.000000" r="1"/>
<line x1="142.800000" y1="273.000000" x2="142.800000" y2="315.000000"  style="stroke: black; stroke-linecap:round; stroke-width:0.25; stroke-dasharray:3,3;"/>
<line x1="142.800000" y1="315.000000" x2="184.800000" y2="315.000000"  style="stroke: black; stroke-linecap:round; stroke-width:0.25; stroke-dasharray:3,3;"/>
<line x1="184.800000" y1="315.000000" x2="184.800000" y2="273.000000"  style="stroke: black; stroke-linecap:round; stroke-width:0.25; stroke-dasharray:3,3;"/>
<line x1="142.800000" y1="273.000000" x2="147.800000" y2="273.000000"  style="stroke: black; stroke-linecap:round; stroke-width:0.25; stroke-dasharray:3,3;"/>
<line x1="157.475000" y1="273.000000" x2="184.800000" y2="273.000000"  style="stroke: black; stroke-linecap:round; stroke-width:0.25; stroke-dasharray:3,3;"/>
<text x="147.800000" y="275.000000" font-family="Arial" font-size="7">N</text>
<rect x="202.800000" y="279.000000" width="24.000000" height="24.000000" rx="0" ry="0" style="stroke:none;fill:#cccccc;"/>
<rect x="201.800000" y="278.000000" width="24.000000" height="24.000000" rx="0" ry="0" style="stroke:none;fill:#4B71A1;"/>
<text x="213.800000" y="292.000000" font-family="Arial" font-size="7" text-anchor="middle" fill="#FFFFFF">*</text>
<circle cx="203.800000" cy="280.000000" r="1"/>
<line x1="198.800000" y1="285.000000" x2="201.800000" y2="286.000000"  transform="rotate(0.000000,201.800000,286.000000)" style="stroke: black; stroke-width:0.25;"/>
<line x1="198.800000" y1="287.000000" x2="201.800000" y2="286.000000"  transform="rotate(0.000000,201.800000,286.000000)" style="stroke: black; stroke-width:0.25;"/>
<line x1="198.800000" y1="293.000000" x2="201.800000" y2="294.000000"  transform="rotate(0.000000,201.800000,294.000000)" style="stroke: black; stroke-width:0.25;"/>
<line x1="198.800000" y1="295.000000" x2="201.800000" y2="294.000000"  transform="rotate(0.000000,201.800000,294.000000)" style="stroke: black; stroke-width:0.25;"/>
<rect x="260.800000" y="259.000000" width="25.800000" height="24.000000" rx="0" ry="0" style="stroke:none;fill:#cccccc;"/>
<rect x="259.800000" y="258.000000" width="25.800000" height="24.000000" rx="0" ry="0" style="stroke:none;fill:#47945E;"/>
<text x="272.700000" y="272.000000" font-family="Arial" font-size="7" text-anchor="middle" fill="#FFFFFF">[1] x</text>
<circle cx="261.800000" cy="260.000000" r="1"/>
<line x1="256.800000" y1="269.000000" x2="259.800000" y2="270.000000"  transform="rotate(0.000000,259.800000,270.000000)" style="stroke: black; stroke-width:0.25;"/>
<line x1="256.800000" y1="271.000000" x2="259.800000" y2="270.000000"  transform="rotate(0.000000,259.800000,270.000000)" style="stroke: black; stroke-width:0.25;"/>
<rect x="260.800000" y="291.000000" width="25.800000" height="24.000000" rx="0" ry="0" style="stroke:none;fill:#cccccc;"/>
<rect x="259.800000" y="290.000000" width="25.800000" height="24.000000" rx="0" ry="0" style="stroke:none;fill:#47945E;"/>
<text x="272.700000" y="304.000000" font-family="Arial" font-size="7" text-anchor="middle" fill="#FFFFFF">[2] y</text>
<circle cx="261.800000" cy="292.000000" r="1"/>
<line x1="256.800000" y1="301.000000" x2="259.800000" y2="302.000000"  transform="rotate(0.000000,259.800000,302.000000)" style="stroke: black; stroke-width:0.25;"/>
<line x1="256.800000" y1="303.000000" x2="259.800000" y2="302.000000"  transform="rotate(0.000000,259.800000,302.000000)" style="stroke: black; stroke-width:0.25;"/>
<rect x="353.950000" y="233.000000" width="25.800000" height="24.000000" rx="0" ry="0" style="stroke:none;fill:#cccccc;"/>
<rect x="352.950000" y="232.000000" width="25.800000" height="24.000000" rx="0" ry="0" style="stroke:none;fill:#47945E;"/>
<text x="365.850000" y="246.000000" font-family="Arial" font-size="7" text-anchor="middle" fill="#FFFFFF">[1] x</text>
<circle cx="354.950000" cy="234.000000" r="1"/>
<rect x="333.950000" y="265.000000" width="25.800000" height="24.000000" rx="0" ry="0" style="stroke:none;fill:#cccccc;"/>
<rect x="332.950000" y="264.000000" width="25.800000" height="24.000000" rx="0" ry="0" style="stroke:none;fill:#47945E;"/>
<text x="345.850000" y="278.000000" font-family="Arial" font-size="7" text-anchor="middle" fill="#FFFFFF">[2] y</text>
<circle cx="334.950000" cy="266.000000" r="1"/>
<rect x="314.600000" y="307.000000" width="64.500000" height="24.000000" rx="0" ry="0" style="stroke:none;fill:#cccccc;"/>
<rect x="313.600000" y="306.000000" width="64.500000" height="24.000000" rx="0" ry="0" style="stroke:none;fill:#f44800;"/>
<text x="345.850000" y="320.000000" font-family="Arial" font-size="7" text-anchor="middle" fill="#FFFFFF">1.1920929e-07f</text>
<circle cx="315.600000" cy="308.000000" r="1"/>
<line x1="304.600000" y1="297.000000" x2="304.600000" y2="339.000000"  style="stroke: black; stroke-linecap:round; stroke-width:0.25; stroke-dasharray:3,3;"/>
<line x1="304.600000" y1="339.000000" x2="387.100000" y2="339.000000"  style="stroke: black; stroke-linecap:round; stroke-width:0.25; stroke-dasharray:3,3;"/>
<line x1="387.100000" y1="339.000000" x2="387.100000" y2="297.000000"  style="stroke: black; stroke-linecap:round; stroke-width:0.25; stroke-dasharray:3,3;"/>
<line x1="304.600000" y1="297.000000" x2="309.600000" y2="297.000000"  style="stroke: black; stroke-linecap:round; stroke-width:0.25; stroke-dasharray:3,3;"/>
<line x1="338.625000" y1="297.000000" x2="387.100000" y2="297.000000"  style="stroke: black; stroke-linecap:round; stroke-width:0.25; stroke-dasharray:3,3;"/>
<text x="309.600000" y="299.000000" font-family="Arial" font-size="7">EPSILON</text>
<rect x="405.100000" y="291.000000" width="24.000000" height="24.000000" rx="0" ry="0" style="stroke:none;fill:#cccccc;"/>
<rect x="404.100000" y="290.000000" width="24.000000" height="24.000000" rx="0" ry="0" style="stroke:none;fill:#4B71A1;"/>
<text x="416.100000" y="304.000000" font-family="Arial" font-size="7" text-anchor="middle" fill="#FFFFFF">min</text>
<circle cx="406.100000" cy="292.000000" r="1"/>
<line x1="401.100000" y1="297.000000" x2="404.100000" y2="298.000000"  transform="rotate(0.000000,404.100000,298.000000)" style="stroke: black; stroke-width:0.25;"/>
<line x1="401.100000" y1="299.000000" x2="404.100000" y2="298.000000"  transform="rotate(0.000000,404.100000,298.000000)" style="stroke: black; stroke-width:0.25;"/>
<line x1="401.100000" y1="305.000000" x2="404.100000" y2="306.000000"  transform="rotate(0.000000,404.100000,306.000000)" style="stroke: black; stroke-width:0.25;"/>
<line x1="401.100000" y1="307.000000" x2="404.100000" y2="306.000000"  transform="rotate(0.000000,404.100000,306.000000)" style="stroke: black; stroke-width:0.25;"/>
<rect x="445.100000" y="275.000000" width="24.000000" height="24.000000" rx="0" ry="0" style="stroke:none;fill:#cccccc;"/>
<rect x="444.100000" y="274.000000" width="24.000000" height="24.000000" rx="0" ry="0" style="stroke:none;fill:#4B71A1;"/>
<text x="456.100000" y="288.000000" font-family="Arial" font-size="7" text-anchor="middle" fill="#FFFFFF">/</text>
<circle cx="446.100000" cy="276.000000" r="1"/>
<line x1="441.100000" y1="281.000000" x2="444.100000" y2="282.000000"  transform="rotate(0.000000,444.100000,282.000000)" style="stroke: black; stroke-width:0.25;"/>
<line x1="441.100000" y1="283.000000" x2="444.100000" y2="282.000000"  transform="rotate(0.000000,444.100000,282.000000)" style="stroke: black; stroke-width:0.25;"/>
<line x1="441.100000" y1="289.000000" x2="444.100000" y2="290.000000"  transform="rotate(0.000000,444.100000,290.000000)" style="stroke: black; stroke-width:0.25;"/>
<line x1="441.100000" y1="291.000000" x2="444.100000" y2="290.000000"  transform="rotate(0.000000,444.100000,290.000000)" style="stroke: black; stroke-width:0.25;"/>
<line x1="294.600000" y1="223.000000" x2="294.600000" y2="349.000000"  style="stroke: black; stroke-linecap:round; stroke-width:0.25; stroke-dasharray:3,3;"/>
<line x1="294.600000" y1="349.000000" x2="477.100000" y2="349.000000"  style="stroke: black; stroke-linecap:round; stroke-width:0.25; stroke-dasharray:3,3;"/>
<line x1="477.100000" y1="349.000000" x2="477.100000" y2="223.000000"  style="stroke: black; stroke-linecap:round; stroke-width:0.25; stroke-dasharray:3,3;"/>
<line x1="294.600000" y1="223.000000" x2="299.600000" y2="223.000000"  style="stroke: black; stroke-linecap:round; stroke-width:0.25; stroke-dasharray:3,3;"/>
<line x1="318.950000" y1="223.000000" x2="477.100000" y2="223.000000"  style="stroke: black; stroke-linecap:round; stroke-width:0.25; stroke-dasharray:3,3;"/>
<text x="299.600000" y="225.000000" font-family="Arial" font-size="7">divi</text>
<line x1="250.800000" y1="213.000000" x2="250.800000" y2="359.000000"  style="stroke: black; stroke-linecap:round; stroke-width:0.25; stroke-dasharray:3,3;"/>
<line x1="250.800000" y1="359.000000" x2="487.100000" y2="359.000000"  style="stroke: black; stroke-linecap:round; stroke-width:0.25; stroke-dasharray:3,3;"/>
<line x1="487.100000" y1="359.000000" x2="487.100000" y2="213.000000"  style="stroke: black; stroke-linecap:round; stroke-width:0.25; stroke-dasharray:3,3;"/>
<line x1="250.800000" y1="213.000000" x2="255.800000" y2="213.000000"  style="stroke: black; stroke-linecap:round; stroke-width:0.25; stroke-dasharray:3,3;"/>
<line x1="271.925000" y1="213.000000" x2="487.100000" y2="213.000000"  style="stroke: black; stroke-linecap:round; stroke-width:0.25; stroke-dasharray:3,3;"/>
<text x="255.800000" y="215.000000" font-family="Arial" font-size="7">div</text>
<line x1="15.000000" y1="15.000000" x2="15.000000" y2="369.000000"  style="stroke: black; stroke-linecap:round; stroke-width:0.25; stroke-dasharray:3,3;"/>
<line x1="15.000000" y1="369.000000" x2="521.100000" y2="369.000000"  style="stroke: black; stroke-linecap:round; stroke-width:0.25; stroke-dasharray:3,3;"/>
<line x1="521.100000" y1="369.000000" x2="521.100000" y2="15.000000"  style="stroke: black; stroke-linecap:round; stroke-width:0.25; stroke-dasharray:3,3;"/>
<line x1="15.000000" y1="15.000000" x2="20.000000" y2="15.000000"  style="stroke: black; stroke-linecap:round; stroke-width:0.25; stroke-dasharray:3,3;"/>
<line x1="49.025000" y1="15.000000" x2="521.100000" y2="15.000000"  style="stroke: black; stroke-linecap:round; stroke-width:0.25; stroke-dasharray:3,3;"/>
<text x="20.000000" y="17.000000" font-family="Arial" font-size="7">process</text>
<line x1="523.100000" y1="183.000000" x2="526.100000" y2="184.000000"  transform="rotate(0.000000,526.100000,184.000000)" style="stroke: black; stroke-width:0.25;"/>
<line x1="523.100000" y1="185.000000" x2="526.100000" y2="184.000000"  transform="rotate(0.000000,526.100000,184.000000)" style="stroke: black; stroke-width:0.25;"/>
<line x1="523.100000" y1="191.000000" x2="526.100000" y2="192.000000"  transform="rotate(0.000000,526.100000,192.000000)" style="stroke: black; stroke-width:0.25;"/>
<line x1="523.100000" y1="193.000000" x2="526.100000" y2="192.000000"  transform="rotate(0.000000,526.100000,192.000000)" style="stroke: black; stroke-width:0.25;"/>
<line x1="523.100000" y1="199.000000" x2="526.100000" y2="200.000000"  transform="rotate(0.000000,526.100000,200.000000)" style="stroke: black; stroke-width:0.25;"/>
<line x1="523.100000" y1="201.000000" x2="526.100000" y2="200.000000"  transform="rotate(0.000000,526.100000,200.000000)" style="stroke: black; stroke-width:0.25;"/>
<line x1="10.000000" y1="184.000000" x2="20.000000" y2="184.000000"  style="stroke:black; stroke-linecap:round; stroke-width:0.25;"/>
<line x1="10.000000" y1="192.000000" x2="20.000000" y2="192.000000"  style="stroke:black; stroke-linecap:round; stroke-width:0.25;"/>
<line x1="10.000000" y1="200.000000" x2="20.000000" y2="200.000000"  style="stroke:black; stroke-linecap:round; stroke-width:0.25;"/>
<line x1="20.000000" y1="184.000000" x2="24.000000" y2="184.000000"  style="stroke:black; stroke-linecap:round; stroke-width:0.25;"/>
<line x1="20.000000" y1="192.000000" x2="24.000000" y2="192.000000"  style="stroke:black; stroke-linecap:round; stroke-width:0.25;"/>
<line x1="20.000000" y1="200.000000" x2="24.000000" y2="200.000000"  style="stroke:black; stroke-linecap:round; stroke-width:0.25;"/>
<line x1="24.000000" y1="184.000000" x2="28.000000" y2="184.000000"  style="stroke:black; stroke-linecap:round; stroke-width:0.25;"/>
<line x1="24.000000" y1="192.000000" x2="28.000000" y2="192.000000"  style="stroke:black; stroke-linecap:round; stroke-width:0.25;"/>
<line x1="24.000000" y1="200.000000" x2="28.000000" y2="200.000000"  style="stroke:black; stroke-linecap:round; stroke-width:0.25;"/>
<line x1="28.000000" y1="184.000000" x2="28.000000" y2="184.000000"  style="stroke:black; stroke-linecap:round; stroke-width:0.25;"/>
<line x1="28.000000" y1="184.000000" x2="32.000000" y2="184.000000"  style="stroke:black; stroke-linecap:round; stroke-width:0.25;"/>
<line x1="28.000000" y1="192.000000" x2="28.000000" y2="192.000000"  style="stroke:black; stroke-linecap:round; stroke-width:0.25;"/>
<line x1="28.000000" y1="192.000000" x2="32.000000" y2="192.000000"  style="stroke:black; stroke-linecap:round; stroke-width:0.25;"/>
<line x1="28.000000" y1="200.000000" x2="28.000000" y2="200.000000"  style="stroke:black; stroke-linecap:round; stroke-width:0.25;"/>
<line x1="28.000000" y1="200.000000" x2="32.000000" y2="200.000000"  style="stroke:black; stroke-linecap:round; stroke-width:0.25;"/>
<line x1="32.000000" y1="184.000000" x2="68.000000" y2="176.000000"  style="stroke:black; stroke-linecap:round; stroke-width:0.25;"/>
<line x1="32.000000" y1="184.000000" x2="68.000000" y2="192.000000"  style="stroke:black; stroke-linecap:round; stroke-width:0.25;"/>
<line x1="32.000000" y1="184.000000" x2="68.000000" y2="208.000000"  style="stroke:black; stroke-linecap:round; stroke-width:0.25;"/>
<line x1="32.000000" y1="192.000000" x2="68.000000" y2="184.000000"  style="stroke:black; stroke-linecap:round; stroke-width:0.25;"/>
<line x1="32.000000" y1="200.000000" x2="68.000000" y2="200.000000"  style="stroke:black; stroke-linecap:round; stroke-width:0.25;"/>
<line x1="68.000000" y1="176.000000" x2="72.000000" y2="176.000000"  style="stroke:black; stroke-linecap:round; stroke-width:0.25;"/>
<line x1="68.000000" y1="184.000000" x2="72.000000" y2="184.000000"  style="stroke:black; stroke-linecap:round; stroke-width:0.25;"/>
<line x1="68.000000" y1="192.000000" x2="72.000000" y2="192.000000"  style="stroke:black; stroke-linecap:round; stroke-width:0.25;"/>
<line x1="68.000000" y1="200.000000" x2="72.000000" y2="200.000000"  style="stroke:black; stroke-linecap:round; stroke-width:0.25;"/>
<line x1="68.000000" y1="208.000000" x2="72.000000" y2="208.000000"  style="stroke:black; stroke-linecap:round; stroke-width:0.25;"/>
<line x1="72.000000" y1="36.000000" x2="96.000000" y2="36.000000"  style="stroke:black; stroke-linecap:round; stroke-width:0.25;"/>
<line x1="72.000000" y1="176.000000" x2="72.000000" y2="36.000000"  style="stroke:black; stroke-linecap:round; stroke-width:0.25;"/>
<line x1="72.000000" y1="176.000000" x2="72.000000" y2="176.000000"  style="stroke:black; stroke-linecap:round; stroke-width:0.25;"/>
<line x1="72.000000" y1="184.000000" x2="80.000000" y2="184.000000"  style="stroke:black; stroke-linecap:round; stroke-width:0.25;"/>
<line x1="72.000000" y1="192.000000" x2="88.000000" y2="192.000000"  style="stroke:black; stroke-linecap:round; stroke-width:0.25;"/>
<line x1="72.000000" y1="200.000000" x2="96.000000" y2="200.000000"  style="stroke:black; stroke-linecap:round; stroke-width:0.25;"/>
<line x1="72.000000" y1="208.000000" x2="88.000000" y2="208.000000"  style="stroke:black; stroke-linecap:round; stroke-width:0.25;"/>
<line x1="80.000000" y1="100.000000" x2="96.000000" y2="100.000000"  style="stroke:black; stroke-linecap:round; stroke-width:0.25;"/>
<line x1="80.000000" y1="184.000000" x2="80.000000" y2="100.000000"  style="stroke:black; stroke-linecap:round; stroke-width:0.25;"/>
<line x1="88.000000" y1="134.000000" x2="96.000000" y2="134.000000"  style="stroke:black; stroke-linecap:round; stroke-width:0.25;"/>
<line x1="88.000000" y1="192.000000" x2="88.000000" y2="134.000000"  style="stroke:black; stroke-linecap:round; stroke-width:0.25;"/>
<line x1="88.000000" y1="208.000000" x2="88.000000" y2="290.000000"  style="stroke:black; stroke-linecap:round; stroke-width:0.25;"/>
<line x1="88.000000" y1="290.000000" x2="96.000000" y2="290.000000"  style="stroke:black; stroke-linecap:round; stroke-width:0.25;"/>
<line x1="96.000000" y1="36.000000" x2="277.150000" y2="36.000000"  style="stroke:black; stroke-linecap:round; stroke-width:0.25;"/>
<line x1="96.000000" y1="100.000000" x2="162.900000" y2="100.000000"  style="stroke:black; stroke-linecap:round; stroke-width:0.25;"/>
<line x1="96.000000" y1="134.000000" x2="96.000000" y2="134.000000"  style="stroke:black; stroke-linecap:round; stroke-width:0.25;"/>
<line x1="96.000000" y1="134.000000" x2="100.000000" y2="134.000000"  style="stroke:black; stroke-linecap:round; stroke-width:0.25;"/>
<line x1="96.000000" y1="200.000000" x2="96.000000" y2="256.000000"  style="stroke:black; stroke-linecap:round; stroke-width:0.25;"/>
<line x1="96.000000" y1="256.000000" x2="96.000000" y2="256.000000"  style="stroke:black; stroke-linecap:round; stroke-width:0.25;"/>
<line x1="96.000000" y1="256.000000" x2="162.900000" y2="256.000000"  style="stroke:black; stroke-linecap:round; stroke-width:0.25;"/>
<line x1="96.000000" y1="290.000000" x2="96.000000" y2="290.000000"  style="stroke:black; stroke-linecap:round; stroke-width:0.25;"/>
<line x1="96.000000" y1="290.000000" x2="100.000000" y2="290.000000"  style="stroke:black; stroke-linecap:round; stroke-width:0.25;"/>
<line x1="125.800000" y1="134.000000" x2="129.800000" y2="134.000000"  style="stroke:black; stroke-linecap:round; stroke-width:0.25;"/>
<line x1="125.800000" y1="290.000000" x2="129.800000" y2="290.000000"  style="stroke:black; stroke-linecap:round; stroke-width:0.25;"/>
<line x1="129.800000" y1="108.000000" x2="137.800000" y2="108.000000"  style="stroke:black; stroke-linecap:round; stroke-width:0.25;"/>
<line x1="129.800000" y1="134.000000" x2="129.800000" y2="108.000000"  style="stroke:black; stroke-linecap:round; stroke-width:0.25;"/>
<line x1="129.800000" y1="134.000000" x2="129.800000" y2="134.000000"  style="stroke:black; stroke-linecap:round; stroke-width:0.25;"/>
<line x1="129.800000" y1="264.000000" x2="137.800000" y2="264.000000"  style="stroke:black; stroke-linecap:round; stroke-width:0.25;"/>
<line x1="129.800000" y1="290.000000" x2="129.800000" y2="264.000000"  style="stroke:black; stroke-linecap:round; stroke-width:0.25;"/>
<line x1="129.800000" y1="290.000000" x2="129.800000" y2="290.000000"  style="stroke:black; stroke-linecap:round; stroke-width:0.25;"/>
<line x1="137.800000" y1="108.000000" x2="163.800000" y2="108.000000"  style="stroke:black; stroke-linecap:round; stroke-width:0.25;"/>
<line x1="137.800000" y1="264.000000" x2="163.800000" y2="264.000000"  style="stroke:black; stroke-linecap:round; stroke-width:0.25;"/>
<line x1="162.900000" y1="100.000000" x2="229.800000" y2="100.000000"  style="stroke:black; stroke-linecap:round; stroke-width:0.25;"/>
<line x1="162.900000" y1="256.000000" x2="229.800000" y2="256.000000"  style="stroke:black; stroke-linecap:round; stroke-width:0.25;"/>
<line x1="163.800000" y1="108.000000" x2="189.800000" y2="108.000000"  style="stroke:black; stroke-linecap:round; stroke-width:0.25;"/>
<line x1="163.800000" y1="264.000000" x2="189.800000" y2="264.000000"  style="stroke:black; stroke-linecap:round; stroke-width:0.25;"/>
<line x1="175.800000" y1="138.000000" x2="179.800000" y2="138.000000"  style="stroke:black; stroke-linecap:round; stroke-width:0.25;"/>
<line x1="175.800000" y1="294.000000" x2="179.800000" y2="294.000000"  style="stroke:black; stroke-linecap:round; stroke-width:0.25;"/>
<line x1="179.800000" y1="138.000000" x2="189.800000" y2="138.000000"  style="stroke:black; stroke-linecap:round; stroke-width:0.25;"/>
<line x1="179.800000" y1="294.000000" x2="189.800000" y2="294.000000"  style="stroke:black; stroke-linecap:round; stroke-width:0.25;"/>
<line x1="189.800000" y1="108.000000" x2="197.800000" y2="108.000000"  style="stroke:black; stroke-linecap:round; stroke-width:0.25;"/>
<line x1="189.800000" y1="138.000000" x2="197.800000" y2="138.000000"  style="stroke:black; stroke-linecap:round; stroke-width:0.25;"/>
<line x1="189.800000" y1="264.000000" x2="197.800000" y2="264.000000"  style="stroke:black; stroke-linecap:round; stroke-width:0.25;"/>
<line x1="189.800000" y1="294.000000" x2="197.800000" y2="294.000000"  style="stroke:black; stroke-linecap:round; stroke-width:0.25;"/>
<line x1="197.800000" y1="108.000000" x2="197.800000" y2="130.000000"  style="stroke:black; stroke-linecap:round; stroke-width:0.25;"/>
<line x1="197.800000" y1="130.000000" x2="197.800000" y2="130.000000"  style="stroke:black; stroke-linecap:round; stroke-width:0.25;"/>
<line x1="197.800000" y1="130.000000" x2="201.800000" y2="130.000000"  style="stroke:black; stroke-linecap:round; stroke-width:0.25;"/>
<line x1="197.800000" y1="138.000000" x2="201.800000" y2="138.000000"  style="stroke:black; stroke-linecap:round; stroke-width:0.25;"/>
<line x1="197.800000" y1="264.000000" x2="197.800000" y2="286.000000"  style="stroke:black; stroke-linecap:round; stroke-width:0.25;"/>
<line x1="197.800000" y1="286.000000" x2="197.800000" y2="286.000000"  style="stroke:black; stroke-linecap:round; stroke-width:0.25;"/>
<line x1="197.800000" y1="286.000000" x2="201.800000" y2="286.000000"  style="stroke:black; stroke-linecap:round; stroke-width:0.25;"/>
<line x1="197.800000" y1="294.000000" x2="201.800000" y2="294.000000"  style="stroke:black; stroke-linecap:round; stroke-width:0.25;"/>
<line x1="225.800000" y1="134.000000" x2="229.800000" y2="134.000000"  style="stroke:black; stroke-linecap:round; stroke-width:0.25;"/>
<line x1="225.800000" y1="290.000000" x2="229.800000" y2="290.000000"  style="stroke:black; stroke-linecap:round; stroke-width:0.25;"/>
<line x1="229.800000" y1="100.000000" x2="245.800000" y2="100.000000"  style="stroke:black; stroke-linecap:round; stroke-width:0.25;"/>
<line x1="229.800000" y1="134.000000" x2="237.800000" y2="134.000000"  style="stroke:black; stroke-linecap:round; stroke-width:0.25;"/>
<line x1="229.800000" y1="256.000000" x2="245.800000" y2="256.000000"  style="stroke:black; stroke-linecap:round; stroke-width:0.25;"/>
<line x1="229.800000" y1="290.000000" x2="237.800000" y2="290.000000"  style="stroke:black; stroke-linecap:round; stroke-width:0.25;"/>
<line x1="237.800000" y1="134.000000" x2="237.800000" y2="146.000000"  style="stroke:black; stroke-linecap:round; stroke-width:0.25;"/>
<line x1="237.800000" y1="146.000000" x2="245.800000" y2="146.000000"  style="stroke:black; stroke-linecap:round; stroke-width:0.25;"/>
<line x1="237.800000" y1="290.000000" x2="237.800000" y2="302.000000"  style="stroke:black; stroke-linecap:round; stroke-width:0.25;"/>
<line x1="237.800000" y1="302.000000" x2="245.800000" y2="302.000000"  style="stroke:black; stroke-linecap:round; stroke-width:0.25;"/>
<line x1="245.800000" y1="100.000000" x2="245.800000" y2="114.000000"  style="stroke:black; stroke-linecap:round; stroke-width:0.25;"/>
<line x1="245.800000" y1="114.000000" x2="245.800000" y2="114.000000"  style="stroke:black; stroke-linecap:round; stroke-width:0.25;"/>
<line x1="245.800000" y1="114.000000" x2="255.800000" y2="114.000000"  style="stroke:black; stroke-linecap:round; stroke-width:0.25;"/>
<line x1="245.800000" y1="146.000000" x2="255.800000" y2="146.000000"  style="stroke:black; stroke-linecap:round; stroke-width:0.25;"/>
<line x1="245.800000" y1="256.000000" x2="245.800000" y2="270.000000"  style="stroke:black; stroke-linecap:round; stroke-width:0.25;"/>
<line x1="245.800000" y1="270.000000" x2="245.800000" y2="270.000000"  style="stroke:black; stroke-linecap:round; stroke-width:0.25;"/>
<line x1="245.800000" y1="270.000000" x2="255.800000" y2="270.000000"  style="stroke:black; stroke-linecap:round; stroke-width:0.25;"/>
<line x1="245.800000" y1="302.000000" x2="255.800000" y2="302.000000"  style="stroke:black; stroke-linecap:round; stroke-width:0.25;"/>
<line x1="255.800000" y1="114.000000" x2="259.800000" y2="114.000000"  style="stroke:black; stroke-linecap:round; stroke-width:0.25;"/>
<line x1="255.800000" y1="146.000000" x2="259.800000" y2="146.000000"  style="stroke:black; stroke-linecap:round; stroke-width:0.25;"/>
<line x1="255.800000" y1="270.000000" x2="259.800000" y2="270.000000"  style="stroke:black; stroke-linecap:round; stroke-width:0.25;"/>
<line x1="255.800000" y1="302.000000" x2="259.800000" y2="302.000000"  style="stroke:black; stroke-linecap:round; stroke-width:0.25;"/>
<line x1="277.150000" y1="36.000000" x2="281.150000" y2="36.000000"  style="stroke:black; stroke-linecap:round; stroke-width:0.25;"/>
<line x1="306.950000" y1="36.000000" x2="310.950000" y2="36.000000"  style="stroke:black; stroke-linecap:round; stroke-width:0.25;"/>
<line x1="310.950000" y1="36.000000" x2="492.100000" y2="36.000000"  style="stroke:black; stroke-linecap:round; stroke-width:0.25;"/>
<line x1="358.750000" y1="120.000000" x2="362.750000" y2="120.000000"  style="stroke:black; stroke-linecap:round; stroke-width:0.25;"/>
<line x1="358.750000" y1="276.000000" x2="362.750000" y2="276.000000"  style="stroke:black; stroke-linecap:round; stroke-width:0.25;"/>
<line x1="362.750000" y1="120.000000" x2="392.100000" y2="120.000000"  style="stroke:black; stroke-linecap:round; stroke-width:0.25;"/>
<line x1="362.750000" y1="276.000000" x2="392.100000" y2="276.000000"  style="stroke:black; stroke-linecap:round; stroke-width:0.25;"/>
<line x1="378.100000" y1="162.000000" x2="382.100000" y2="162.000000"  style="stroke:black; stroke-linecap:round; stroke-width:0.25;"/>
<line x1="378.100000" y1="318.000000" x2="382.100000" y2="318.000000"  style="stroke:black; stroke-linecap:round; stroke-width:0.25;"/>
<line x1="378.750000" y1="88.000000" x2="382.750000" y2="88.000000"  style="stroke:black; stroke-linecap:round; stroke-width:0.25;"/>
<line x1="378.750000" y1="244.000000" x2="382.750000" y2="244.000000"  style="stroke:black; stroke-linecap:round; stroke-width:0.25;"/>
<line x1="382.100000" y1="162.000000" x2="392.100000" y2="162.000000"  style="stroke:black; stroke-linecap:round; stroke-width:0.25;"/>
<line x1="382.100000" y1="318.000000" x2="392.100000" y2="318.000000"  style="stroke:black; stroke-linecap:round; stroke-width:0.25;"/>
<line x1="382.750000" y1="88.000000" x2="432.100000" y2="88.000000"  style="stroke:black; stroke-linecap:round; stroke-width:0.25;"/>
<line x1="382.750000" y1="244.000000" x2="432.100000" y2="244.000000"  style="stroke:black; stroke-linecap:round; stroke-width:0.25;"/>
<line x1="392.100000" y1="150.000000" x2="400.100000" y2="150.000000"  style="stroke:black; stroke-linecap:round; stroke-width:0.25;"/>
<line x1="392.100000" y1="162.000000" x2="392.100000" y2="150.000000"  style="stroke:black; stroke-linecap:round; stroke-width:0.25;"/>
<line x1="392.100000" y1="162.000000" x2="392.100000" y2="162.000000"  style="stroke:black; stroke-linecap:round; stroke-width:0.25;"/>
<line x1="392.100000" y1="306.000000" x2="400.100000" y2="306.000000"  style="stroke:black; stroke-linecap:round; stroke-width:0.25;"/>
<line x1="392.100000" y1="318.000000" x2="392.100000" y2="306.000000"  style="stroke:black; stroke-linecap:round; stroke-width:0.25;"/>
<line x1="392.100000" y1="318.000000" x2="392.100000" y2="318.000000"  style="stroke:black; stroke-linecap:round; stroke-width:0.25;"/>
<line x1="392.100000" y1="120.000000" x2="400.100000" y2="120.000000"  style="stroke:black; stroke-linecap:round; stroke-width:0.25;"/>
<line x1="392.100000" y1="276.000000" x2="400.100000" y2="276.000000"  style="stroke:black; stroke-linecap:round; stroke-width:0.25;"/>
<line x1="400.100000" y1="142.000000" x2="404.100000" y2="142.000000"  style="stroke:black; stroke-linecap:round; stroke-width:0.25;"/>
<line x1="400.100000" y1="150.000000" x2="404.100000" y2="150.000000"  style="stroke:black; stroke-linecap:round; stroke-width:0.25;"/>
<line x1="400.100000" y1="298.000000" x2="404.100000" y2="298.000000"  style="stroke:black; stroke-linecap:round; stroke-width:0.25;"/>
<line x1="400.100000" y1="306.000000" x2="404.100000" y2="306.000000"  style="stroke:black; stroke-linecap:round; stroke-width:0.25;"/>
<line x1="400.100000" y1="120.000000" x2="400.100000" y2="142.000000"  style="stroke:black; stroke-linecap:round; stroke-width:0.25;"/>
<line x1="400.100000" y1="142.000000" x2="400.100000" y2="142.000000"  style="stroke:black; stroke-linecap:round; stroke-width:0.25;"/>
<line x1="400.100000" y1="276.000000" x2="400.100000" y2="298.000000"  style="stroke:black; stroke-linecap:round; stroke-width:0.25;"/>
<line x1="400.100000" y1="298.000000" x2="400.100000" y2="298.000000"  style="stroke:black; stroke-linecap:round; stroke-width:0.25;"/>
<line x1="428.100000" y1="146.000000" x2="432.100000" y2="146.000000"  style="stroke:black; stroke-linecap:round; stroke-width:0.25;"/>
<line x1="428.100000" y1="302.000000" x2="432.100000" y2="302.000000"  style="stroke:black; stroke-linecap:round; stroke-width:0.25;"/>
<line x1="432.100000" y1="134.000000" x2="440.100000" y2="134.000000"  style="stroke:black; stroke-linecap:round; stroke-width:0.25;"/>
<line x1="432.100000" y1="146.000000" x2="432.100000" y2="134.000000"  style="stroke:black; stroke-linecap:round; stroke-width:0.25;"/>
<line x1="432.100000" y1="146.000000" x2="432.100000" y2="146.000000"  style="stroke:black; stroke-linecap:round; stroke-width:0.25;"/>
<line x1="432.100000" y1="290.000000" x2="440.100000" y2="290.000000"  style="stroke:black; stroke-linecap:round; stroke-width:0.25;"/>
<line x1="432.100000" y1="302.000000" x2="432.100000" y2="290.000000"  style="stroke:black; stroke-linecap:round; stroke-width:0.25;"/>
<line x1="432.100000" y1="302.000000" x2="432.100000" y2="302.000000"  style="stroke:black; stroke-linecap:round; stroke-width:0.25;"/>
<line x1="432.100000" y1="88.000000" x2="440.100000" y2="88.000000"  style="stroke:black; stroke-linecap:round; stroke-width:0.25;"/>
<line x1="432.100000" y1="244.000000" x2="440.100000" y2="244.000000"  style="stroke:black; stroke-linecap:round; stroke-width:0.25;"/>
<line x1="440.100000" y1="126.000000" x2="444.100000" y2="126.000000"  style="stroke:black; stroke-linecap:round; stroke-width:0.25;"/>
<line x1="440.100000" y1="134.000000" x2="444.100000" y2="134.000000"  style="stroke:black; stroke-linecap:round; stroke-width:0.25;"/>
<line x1="440.100000" y1="282.000000" x2="444.100000" y2="282.000000"  style="stroke:black; stroke-linecap:round; stroke-width:0.25;"/>
<line x1="440.100000" y1="290.000000" x2="444.100000" y2="290.000000"  style="stroke:black; stroke-linecap:round; stroke-width:0.25;"/>
<line x1="440.100000" y1="88.000000" x2="440.100000" y2="126.000000"  style="stroke:black; stroke-linecap:round; stroke-width:0.25;"/>
<line x1="440.100000" y1="126.000000" x2="440.100000" y2="126.000000"  style="stroke:black; stroke-linecap:round; stroke-width:0.25;"/>
<line x1="440.100000" y1="244.000000" x2="440.100000" y2="282.000000"  style="stroke:black; stroke-linecap:round; stroke-width:0.25;"/>
<line x1="440.100000" y1="282.000000" x2="440.100000" y2="282.000000"  style="stroke:black; stroke-linecap:round; stroke-width:0.25;"/>
<line x1="468.100000" y1="130.000000" x2="472.100000" y2="130.000000"  style="stroke:black; stroke-linecap:round; stroke-width:0.25;"/>
<line x1="468.100000" y1="286.000000" x2="472.100000" y2="286.000000"  style="stroke:black; stroke-linecap:round; stroke-width:0.25;"/>
<line x1="472.100000" y1="130.000000" x2="482.100000" y2="130.000000"  style="stroke:black; stroke-linecap:round; stroke-width:0.25;"/>
<line x1="472.100000" y1="286.000000" x2="482.100000" y2="286.000000"  style="stroke:black; stroke-linecap:round; stroke-width:0.25;"/>
<line x1="482.100000" y1="130.000000" x2="492.100000" y2="130.000000"  style="stroke:black; stroke-linecap:round; stroke-width:0.25;"/>
<line x1="482.100000" y1="286.000000" x2="492.100000" y2="286.000000"  style="stroke:black; stroke-linecap:round; stroke-width:0.25;"/>
<line x1="492.100000" y1="36.000000" x2="508.100000" y2="36.000000"  style="stroke:black; stroke-linecap:round; stroke-width:0.25;"/>
<line x1="492.100000" y1="130.000000" x2="500.100000" y2="130.000000"  style="stroke:black; stroke-linecap:round; stroke-width:0.25;"/>
<line x1="492.100000" y1="200.000000" x2="508.100000" y2="200.000000"  style="stroke:black; stroke-linecap:round; stroke-width:0.25;"/>
<line x1="492.100000" y1="286.000000" x2="492.100000" y2="200.000000"  style="stroke:black; stroke-linecap:round; stroke-width:0.25;"/>
<line x1="492.100000" y1="286.000000" x2="492.100000" y2="286.000000"  style="stroke:black; stroke-linecap:round; stroke-width:0.25;"/>
<line x1="500.100000" y1="130.000000" x2="500.100000" y2="192.000000"  style="stroke:black; stroke-linecap:round; stroke-width:0.25;"/>
<line x1="500.100000" y1="192.000000" x2="508.100000" y2="192.000000"  style="stroke:black; stroke-linecap:round; stroke-width:0.25;"/>
<line x1="508.100000" y1="36.000000" x2="508.100000" y2="184.000000"  style="stroke:black; stroke-linecap:round; stroke-width:0.25;"/>
<line x1="508.100000" y1="184.000000" x2="508.100000" y2="184.000000"  style="stroke:black; stroke-linecap:round; stroke-width:0.25;"/>
<line x1="508.100000" y1="184.000000" x2="512.100000" y2="184.000000"  style="stroke:black; stroke-linecap:round; stroke-width:0.25;"/>
<line x1="508.100000" y1="192.000000" x2="512.100000" y2="192.000000"  style="stroke:black; stroke-linecap:round; stroke-width:0.25;"/>
<line x1="508.100000" y1="200.000000" x2="512.100000" y2="200.000000"  style="stroke:black; stroke-linecap:round; stroke-width:0.25;"/>
<line x1="512.100000" y1="184.000000" x2="516.100000" y2="184.000000"  style="stroke:black; stroke-linecap:round; stroke-width:0.25;"/>
<line x1="512.100000" y1="192.000000" x2="516.100000" y2="192.000000"  style="stroke:black; stroke-linecap:round; stroke-width:0.25;"/>
<line x1="512.100000" y1="200.000000" x2="516.100000" y2="200.000000"  style="stroke:black; stroke-linecap:round; stroke-width:0.25;"/>
<line x1="516.100000" y1="184.000000" x2="526.100000" y2="184.000000"  style="stroke:black; stroke-linecap:round; stroke-width:0.25;"/>
<line x1="516.100000" y1="192.000000" x2="526.100000" y2="192.000000"  style="stroke:black; stroke-linecap:round; stroke-width:0.25;"/>
<line x1="516.100000" y1="200.000000" x2="526.100000" y2="200.000000"  style="stroke:black; stroke-linecap:round; stroke-width:0.25;"/>
</svg>
