<?xml version="1.0"?>
<svg xmlns="http://www.w3.org/2000/svg" xmlns:xlink="http://www.w3.org/1999/xlink" viewBox="0 0 313.900000 144.000000" width="156.950000mm" height="72.000000mm" version="1.1">
<rect x="1.000000" y="1.000000" width="312.900000" height="143.000000" rx="0" ry="0" style="stroke:none;fill:#cccccc;"/>
<rect x="0.000000" y="0.000000" width="312.900000" height="143.000000" rx="0" ry="0" style="stroke:none;fill:#ffffff;"/>
<text x="10.000000" y="7.000000" font-family="Arial" font-size="7"></text>
<rect x="49.000000" y="33.000000" width="24.000000" height="24.000000" rx="0" ry="0" style="stroke:none;fill:#cccccc;"/>
<rect x="48.000000" y="32.000000" width="24.000000" height="24.000000" rx="0" ry="0" style="stroke:none;fill:#4B71A1;"/>
<text x="60.000000" y="46.000000" font-family="Arial" font-size="7" text-anchor="middle" fill="#FFFFFF">-</text>
<circle cx="50.000000" cy="34.000000" r="1"/>
<line x1="45.000000" y1="39.000000" x2="48.000000" y2="40.000000"  transform="rotate(0.000000,48.000000,40.000000)" style="stroke: black; stroke-width:0.25;"/>
<line x1="45.000000" y1="41.000000" x2="48.000000" y2="40.000000"  transform="rotate(0.000000,48.000000,40.000000)" style="stroke: black; stroke-width:0.25;"/>
<line x1="45.000000" y1="47.000000" x2="48.000000" y2="48.000000"  transform="rotate(0.000000,48.000000,48.000000)" style="stroke: black; stroke-width:0.25;"/>
<line x1="45.000000" y1="49.000000" x2="48.000000" y2="48.000000"  transform="rotate(0.000000,48.000000,48.000000)" style="stroke: black; stroke-width:0.25;"/>
<line x1="74.000000" y1="44.000000" x2="74.000000" y2="40.000000"  style="stroke:black; stroke-linecap:round; stroke-width:0.25;"/>
<line x1="74.000000" y1="40.000000" x2="78.000000" y2="40.000000"  style="stroke:black; stroke-linecap:round; stroke-width:0.25;"/>
<line x1="78.000000" y1="40.000000" x2="78.000000" y2="44.000000"  style="stroke:black; stroke-linecap:round; stroke-width:0.25;"/>
<rect x="109.000000" y="33.000000" width="116.100000" height="24.000000" rx="0" ry="0" style="stroke:none;fill:#cccccc;"/>
<rect x="108.000000" y="32.000000" width="116.100000" height="24.000000" rx="0" ry="0" style="stroke:none;fill:#477881;"/>
<text x="166.050000" y="46.000000" font-family="Arial" font-size="7" text-anchor="middle" fill="#FFFFFF">hbargraph(x1, -1.0f, 1.0f)</text>
<circle cx="110.000000" cy="34.000000" r="1"/>
<line x1="105.000000" y1="43.000000" x2="108.000000" y2="44.000000"  transform="rotate(0.000000,108.000000,44.000000)" style="stroke: black; stroke-width:0.25;"/>
<line x1="105.000000" y1="45.000000" x2="108.000000" y2="44.000000"  transform="rotate(0.000000,108.000000,44.000000)" style="stroke: black; stroke-width:0.25;"/>
<rect x="241.100000" y="29.000000" width="25.800000" height="24.000000" rx="0" ry="0" style="stroke:none;fill:#cccccc;"/>
<rect x="240.100000" y="28.000000" width="25.800000" height="24.000000" rx="0" ry="0" style="stroke:none;fill:#4B71A1;"/>
<text x="253.000000" y="42.000000" font-family="Arial" font-size="7" text-anchor="middle" fill="#FFFFFF">attach</text>
<circle cx="242.100000" cy="30.000000" r="1"/>
<line x1="237.100000" y1="35.000000" x2="240.100000" y2="36.000000"  transform="rotate(0.000000,240.100000,36.000000)" style="stroke: black; stroke-width:0.25;"/>
<line x1="237.100000" y1="37.000000" x2="240.100000" y2="36.000000"  transform="rotate(0.000000,240.100000,36.000000)" style="stroke: black; stroke-width:0.25;"/>
<line x1="237.100000" y1="43.000000" x2="240.100000" y2="44.000000"  transform="rotate(0.000000,240.100000,44.000000)" style="stroke: black; stroke-width:0.25;"/>
<line x1="237.100000" y1="45.000000" x2="240.100000" y2="44.000000"  transform="rotate(0.000000,240.100000,44.000000)" style="stroke: black; stroke-width:0.25;"/>
<rect x="141.950000" y="65.000000" width="24.000000" height="24.000000" rx="0" ry="0" style="stroke:none;fill:#cccccc;"/>
<rect x="140.950000" y="64.000000" width="24.000000" height="24.000000" rx="0" ry="0" style="stroke:none;fill:#f44800;"/>
<text x="152.950000" y="78.000000" font-family="Arial" font-size="7" text-anchor="middle" fill="#FFFFFF">1</text>
<circle cx="142.950000" cy="66.000000" r="1"/>
<rect x="141.950000" y="97.000000" width="24.000000" height="24.000000" rx="0" ry="0" style="stroke:none;fill:#cccccc;"/>
<rect x="140.950000" y="96.000000" width="24.000000" height="24.000000" rx="0" ry="0" style="stroke:none;fill:#f44800;"/>
<text x="152.950000" y="110.000000" font-family="Arial" font-size="7" text-anchor="middle" fill="#FFFFFF">0</text>
<circle cx="142.950000" cy="98.000000" r="1"/>
<line x1="15.000000" y1="15.000000" x2="15.000000" y2="129.000000"  style="stroke: black; stroke-linecap:round; stroke-width:0.25; stroke-dasharray:3,3;"/>
<line x1="15.000000" y1="129.000000" x2="298.900000" y2="129.000000"  style="stroke: black; stroke-linecap:round; stroke-width:0.25; stroke-dasharray:3,3;"/>
<line x1="298.900000" y1="129.000000" x2="298.900000" y2="15.000000"  style="stroke: black; stroke-linecap:round; stroke-width:0.25; stroke-dasharray:3,3;"/>
<line x1="15.000000" y1="15.000000" x2="20.000000" y2="15.000000"  style="stroke: black; stroke-linecap:round; stroke-width:0.25; stroke-dasharray:3,3;"/>
<line x1="49.025000" y1="15.000000" x2="298.900000" y2="15.000000"  style="stroke: black; stroke-linecap:round; stroke-width:0.25; stroke-dasharray:3,3;"/>
<text x="20.000000" y="17.000000" font-family="Arial" font-size="7">process</text>
<line x1="300.900000" y1="63.000000" x2="303.900000" y2="64.000000"  transform="rotate(0.000000,303.900000,64.000000)" style="stroke: black; stroke-width:0.25;"/>
<line x1="300.900000" y1="65.000000" x2="303.900000" y2="64.000000"  transform="rotate(0.000000,303.900000,64.000000)" style="stroke: black; stroke-width:0.25;"/>
<line x1="300.900000" y1="71.000000" x2="303.900000" y2="72.000000"  transform="rotate(0.000000,303.900000,72.000000)" style="stroke: black; stroke-width:0.25;"/>
<line x1="300.900000" y1="73.000000" x2="303.900000" y2="72.000000"  transform="rotate(0.000000,303.900000,72.000000)" style="stroke: black; stroke-width:0.25;"/>
<line x1="300.900000" y1="79.000000" x2="303.900000" y2="80.000000"  transform="rotate(0.000000,303.900000,80.000000)" style="stroke: black; stroke-width:0.25;"/>
<line x1="300.900000" y1="81.000000" x2="303.900000" y2="80.000000"  transform="rotate(0.000000,303.900000,80.000000)" style="stroke: black; stroke-width:0.25;"/>
<line x1="10.000000" y1="72.000000" x2="20.000000" y2="72.000000"  style="stroke:black; stroke-linecap:round; stroke-width:0.25;"/>
<line x1="20.000000" y1="72.000000" x2="24.000000" y2="72.000000"  style="stroke:black; stroke-linecap:round; stroke-width:0.25;"/>
<line x1="24.000000" y1="72.000000" x2="28.000000" y2="72.000000"  style="stroke:black; stroke-linecap:round; stroke-width:0.25;"/>
<line x1="28.000000" y1="48.000000" x2="36.000000" y2="48.000000"  style="stroke:black; stroke-linecap:round; stroke-width:0.25;"/>
<line x1="28.000000" y1="72.000000" x2="28.000000" y2="48.000000"  style="stroke:black; stroke-linecap:round; stroke-width:0.25;"/>
<line x1="28.000000" y1="72.000000" x2="28.000000" y2="72.000000"  style="stroke:black; stroke-linecap:round; stroke-width:0.25;"/>
<line x1="36.000000" y1="48.000000" x2="44.000000" y2="48.000000"  style="stroke:black; stroke-linecap:round; stroke-width:0.25;"/>
<line x1="44.000000" y1="24.000000" x2="44.000000" y2="24.000000"  style="stroke:black; stroke-linecap:round; stroke-width:0.25;"/>
<line x1="44.000000" y1="24.000000" x2="44.000000" y2="40.000000"  style="stroke:black; stroke-linecap:round; stroke-width:0.25;"/>
<line x1="44.000000" y1="40.000000" x2="44.000000" y2="40.000000"  style="stroke:black; stroke-linecap:round; stroke-width:0.25;"/>
<line x1="44.000000" y1="40.000000" x2="48.000000" y2="40.000000"  style="stroke:black; stroke-linecap:round; stroke-width:0.25;"/>
<line x1="44.000000" y1="48.000000" x2="48.000000" y2="48.000000"  style="stroke:black; stroke-linecap:round; stroke-width:0.25;"/>
<line x1="60.000000" y1="24.000000" x2="44.000000" y2="24.000000"  style="stroke:black; stroke-linecap:round; stroke-width:0.25;"/>
<line x1="72.000000" y1="44.000000" x2="76.000000" y2="44.000000"  style="stroke:black; stroke-linecap:round; stroke-width:0.25;"/>
<line x1="76.000000" y1="24.000000" x2="60.000000" y2="24.000000"  style="stroke:black; stroke-linecap:round; stroke-width:0.25;"/>
<line x1="76.000000" y1="24.000000" x2="76.000000" y2="24.000000"  style="stroke:black; stroke-linecap:round; stroke-width:0.25;"/>
<line x1="76.000000" y1="40.000000" x2="76.000000" y2="24.000000"  style="stroke:black; stroke-linecap:round; stroke-width:0.25;"/>
<line x1="76.000000" y1="44.000000" x2="78.000000" y2="44.000000"  style="stroke:black; stroke-linecap:round; stroke-width:0.25;"/>
<line x1="78.000000" y1="44.000000" x2="84.000000" y2="44.000000"  style="stroke:black; stroke-linecap:round; stroke-width:0.25;"/>
<line x1="84.000000" y1="44.000000" x2="104.000000" y2="44.000000"  style="stroke:black; stroke-linecap:round; stroke-width:0.25;"/>
<line x1="84.000000" y1="44.000000" x2="104.000000" y2="24.000000"  style="stroke:black; stroke-linecap:round; stroke-width:0.25;"/>
<line x1="104.000000" y1="44.000000" x2="108.000000" y2="44.000000"  style="stroke:black; stroke-linecap:round; stroke-width:0.25;"/>
<line x1="104.000000" y1="24.000000" x2="166.050000" y2="24.000000"  style="stroke:black; stroke-linecap:round; stroke-width:0.25;"/>
<line x1="164.950000" y1="76.000000" x2="168.950000" y2="76.000000"  style="stroke:black; stroke-linecap:round; stroke-width:0.25;"/>
<line x1="164.950000" y1="108.000000" x2="168.950000" y2="108.000000"  style="stroke:black; stroke-linecap:round; stroke-width:0.25;"/>
<line x1="166.050000" y1="24.000000" x2="228.100000" y2="24.000000"  style="stroke:black; stroke-linecap:round; stroke-width:0.25;"/>
<line x1="168.950000" y1="76.000000" x2="269.900000" y2="76.000000"  style="stroke:black; stroke-linecap:round; stroke-width:0.25;"/>
<line x1="168.950000" y1="108.000000" x2="269.900000" y2="108.000000"  style="stroke:black; stroke-linecap:round; stroke-width:0.25;"/>
<line x1="224.100000" y1="44.000000" x2="228.100000" y2="44.000000"  style="stroke:black; stroke-linecap:round; stroke-width:0.25;"/>
<line x1="228.100000" y1="44.000000" x2="236.100000" y2="44.000000"  style="stroke:black; stroke-linecap:round; stroke-width:0.25;"/>
<line x1="228.100000" y1="24.000000" x2="236.100000" y2="24.000000"  style="stroke:black; stroke-linecap:round; stroke-width:0.25;"/>
<line x1="236.100000" y1="36.000000" x2="240.100000" y2="36.000000"  style="stroke:black; stroke-linecap:round; stroke-width:0.25;"/>
<line x1="236.100000" y1="44.000000" x2="240.100000" y2="44.000000"  style="stroke:black; stroke-linecap:round; stroke-width:0.25;"/>
<line x1="236.100000" y1="24.000000" x2="236.100000" y2="36.000000"  style="stroke:black; stroke-linecap:round; stroke-width:0.25;"/>
<line x1="236.100000" y1="36.000000" x2="236.100000" y2="36.000000"  style="stroke:black; stroke-linecap:round; stroke-width:0.25;"/>
<line x1="265.900000" y1="40.000000" x2="269.900000" y2="40.000000"  style="stroke:black; stroke-linecap:round; stroke-width:0.25;"/>
<line x1="269.900000" y1="40.000000" x2="285.900000" y2="40.000000"  style="stroke:black; stroke-linecap:round; stroke-width:0.25;"/>
<line x1="269.900000" y1="72.000000" x2="285.900000" y2="72.000000"  style="stroke:black; stroke-linecap:round; stroke-width:0.25;"/>
<line x1="269.900000" y1="76.000000" x2="269.900000" y2="72.000000"  style="stroke:black; stroke-linecap:round; stroke-width:0.25;"/>
<line x1="269.900000" y1="76.000000" x2="269.900000" y2="76.000000"  style="stroke:black; stroke-linecap:round; stroke-width:0.25;"/>
<line x1="269.900000" y1="108.000000" x2="277.900000" y2="108.000000"  style="stroke:black; stroke-linecap:round; stroke-width:0.25;"/>
<line x1="277.900000" y1="80.000000" x2="285.900000" y2="80.000000"  style="stroke:black; stroke-linecap:round; stroke-width:0.25;"/>
<line x1="277.900000" y1="108.000000" x2="277.900000" y2="80.000000"  style="stroke:black; stroke-linecap:round; stroke-width:0.25;"/>
<line x1="285.900000" y1="40.000000" x2="285.900000" y2="64.000000"  style="stroke:black; stroke-linecap:round; stroke-width:0.25;"/>
<line x1="285.900000" y1="64.000000" x2="285.900000" y2="64.000000"  style="stroke:black; stroke-linecap:round; stroke-width:0.25;"/>
<line x1="285.900000" y1="64.000000" x2="289.900000" y2="64.000000"  style="stroke:black; stroke-linecap:round; stroke-width:0.25;"/>
<line x1="285.900000" y1="72.000000" x2="289.900000" y2="72.000000"  style="stroke:black; stroke-linecap:round; stroke-width:0.25;"/>
<line x1="285.900000" y1="80.000000" x2="289.900000" y2="80.000000"  style="stroke:black; stroke-linecap:round; stroke-width:0.25;"/>
<line x1="289.900000" y1="64.000000" x2="293.900000" y2="64.000000"  style="stroke:black; stroke-linecap:round; stroke-width:0.25;"/>
<line x1="289.900000" y1="72.000000" x2="293.900000" y2="72.000000"  style="stroke:black; stroke-linecap:round; stroke-width:0.25;"/>
<line x1="289.900000" y1="80.000000" x2="293.900000" y2="80.000000"  style="stroke:black; stroke-linecap:round; stroke-width:0.25;"/>
<line x1="293.900000" y1="64.000000" x2="303.900000" y2="64.000000"  style="stroke:black; stroke-linecap:round; stroke-width:0.25;"/>
<line x1="293.900000" y1="72.000000" x2="303.900000" y2="72.000000"  style="stroke:black; stroke-linecap:round; stroke-width:0.25;"/>
<line x1="293.900000" y1="80.000000" x2="303.900000" y2="80.000000"  style="stroke:black; stroke-linecap:round; stroke-width:0.25;"/>
</svg>
