<?xml version="1.0" encoding="UTF-8"?>
<!DOCTYPE svg PUBLIC "-//W3C//DTD SVG 1.1//EN" "http://www.w3.org/Graphics/SVG/1.1/DTD/svg11.dtd">
<svg xmlns="http://www.w3.org/2000/svg" version="1.1" width="481px" height="305px" style="shape-rendering:geometricPrecision; text-rendering:geometricPrecision; image-rendering:optimizeQuality; fill-rule:evenodd; clip-rule:evenodd" xmlns:xlink="http://www.w3.org/1999/xlink">
<g><path style="opacity:1" fill="#fdfdfd" d="M -0.5,-0.5 C 159.833,-0.5 320.167,-0.5 480.5,-0.5C 480.5,101.167 480.5,202.833 480.5,304.5C 320.167,304.5 159.833,304.5 -0.5,304.5C -0.5,202.833 -0.5,101.167 -0.5,-0.5 Z"/></g>
<g><path style="opacity:1" fill="#030303" d="M 88.5,11.5 C 109.684,10.6249 120.184,20.6249 120,41.5C 113.891,59.4713 101.725,65.6379 83.5,60C 70.4681,51.571 66.6348,40.071 72,25.5C 76.1976,19.123 81.6976,14.4563 88.5,11.5 Z"/></g>
<g><path style="opacity:1" fill="#1e1721" d="M 30.5,34.5 C 31.2506,33.4265 32.2506,33.2599 33.5,34C 34.9178,38.0199 36.2511,38.1865 37.5,34.5C 38.5,33.1667 39.5,33.1667 40.5,34.5C 37.9781,38.3248 38.3114,41.9915 41.5,45.5C 40.635,46.5827 39.635,46.7494 38.5,46C 37.5399,44.5806 36.7065,43.0806 36,41.5C 35.4283,44.707 33.595,46.3737 30.5,46.5C 30.5457,43.9078 31.5457,41.7411 33.5,40C 32.8598,37.8796 31.8598,36.0463 30.5,34.5 Z"/></g>
<g><path style="opacity:1" fill="#191919" d="M 245.5,77.5 C 250.382,80.4639 255.715,82.4639 261.5,83.5C 265.534,85.7372 269.868,87.4039 274.5,88.5C 274.174,85.2428 275.507,83.7428 278.5,84C 281.209,87.5208 283.209,91.3541 284.5,95.5C 280.207,96.6564 275.874,97.6564 271.5,98.5C 271.674,96.139 272.007,93.8056 272.5,91.5C 225.997,75.254 179.664,58.4206 133.5,41C 132.151,39.3646 132.318,37.8646 134,36.5C 170.993,50.6641 208.16,64.3308 245.5,77.5 Z"/></g>
<g><path style="opacity:1" fill="#321d24" d="M 44.5,38.5 C 45.5,38.5 46.5,38.5 47.5,38.5C 47.1103,41.4658 47.777,44.1324 49.5,46.5C 47.1667,47.8333 44.8333,47.8333 42.5,46.5C 45.1667,44.5 45.1667,42.5 42.5,40.5C 43.2427,39.8182 43.9094,39.1515 44.5,38.5 Z"/></g>
<g><path style="opacity:1" fill="#261920" d="M 227.5,45.5 C 227.5,46.8333 227.5,48.1667 227.5,49.5C 226.603,48.4019 225.77,48.4019 225,49.5C 224.433,52.1677 223.933,54.8344 223.5,57.5C 222.167,57.5 220.833,57.5 219.5,57.5C 219.67,53.3556 219.003,49.3556 217.5,45.5C 218.325,44.6143 219.325,44.281 220.5,44.5C 221.501,55.1638 222.501,55.1638 223.5,44.5C 225.099,44.2322 226.432,44.5655 227.5,45.5 Z"/></g>
<g><path style="opacity:1" fill="#1c407f" d="M 227.5,45.5 C 228.924,47.5145 229.59,49.8478 229.5,52.5C 228.833,51.5 228.167,50.5 227.5,49.5C 227.5,48.1667 227.5,46.8333 227.5,45.5 Z"/></g>
<g><path style="opacity:1" fill="#150909" d="M 237.5,49.5 C 238.5,49.5 239.5,49.5 240.5,49.5C 240.11,52.4658 240.777,55.1324 242.5,57.5C 240.5,58.8333 238.5,58.8333 236.5,57.5C 239.167,55.5 239.167,53.5 236.5,51.5C 236.863,50.8165 237.196,50.1499 237.5,49.5 Z"/></g>
<g><path style="opacity:1" fill="#1f1b29" d="M 227.5,49.5 C 228.167,50.5 228.833,51.5 229.5,52.5C 231.223,50.22 231.889,47.5533 231.5,44.5C 232.5,44.5 233.5,44.5 234.5,44.5C 233.993,48.8595 233.327,53.1928 232.5,57.5C 231.167,57.5 229.833,57.5 228.5,57.5C 228.167,54.8333 227.833,52.1667 227.5,49.5 Z"/></g>
<g><path style="opacity:1" fill="#989899" d="M 245.5,77.5 C 251.129,78.929 256.463,80.929 261.5,83.5C 255.715,82.4639 250.382,80.4639 245.5,77.5 Z"/></g>
<g><path style="opacity:1" fill="#1d1313" d="M 383.5,93.5 C 387.5,93.5 391.5,93.5 395.5,93.5C 395.5,94.5 395.5,95.5 395.5,96.5C 394.325,96.281 393.325,96.6143 392.5,97.5C 395.094,105.741 392.094,109.241 383.5,108C 378.214,103.169 378.214,98.3354 383.5,93.5 Z"/></g>
<g><path style="opacity:1" fill="#261920" d="M 192.5,98.5 C 192.5,99.8333 192.5,101.167 192.5,102.5C 191.603,101.402 190.77,101.402 190,102.5C 189.433,105.168 188.933,107.834 188.5,110.5C 187.167,110.5 185.833,110.5 184.5,110.5C 184.67,106.356 184.003,102.356 182.5,98.5C 183.325,97.6143 184.325,97.281 185.5,97.5C 186.507,108.147 187.507,108.147 188.5,97.5C 190.099,97.2322 191.432,97.5655 192.5,98.5 Z"/></g>
<g><path style="opacity:1" fill="#e3e7ea" d="M 385.5,96.5 C 386.833,96.5 388.167,96.5 389.5,96.5C 389.664,99.1873 389.497,101.854 389,104.5C 385.474,105.832 383.641,104.499 383.5,100.5C 383.803,98.8857 384.47,97.5523 385.5,96.5 Z"/></g>
<g><path style="opacity:1" fill="#040404" d="M 88.5,98.5 C 103.869,97.0892 114.369,103.423 120,117.5C 121.429,136.312 112.762,146.645 94,148.5C 81.4813,147.242 73.4813,140.576 70,128.5C 68.6057,113.747 74.7724,103.747 88.5,98.5 Z"/></g>
<g><path style="opacity:1" fill="#1c407f" d="M 192.5,98.5 C 193.924,100.515 194.59,102.848 194.5,105.5C 193.833,104.5 193.167,103.5 192.5,102.5C 192.5,101.167 192.5,99.8333 192.5,98.5 Z"/></g>
<g><path style="opacity:1" fill="#1b1215" d="M 202.5,102.5 C 208.253,102.928 208.92,105.095 204.5,109C 205.624,109.249 206.624,109.749 207.5,110.5C 205.604,111.466 203.604,111.799 201.5,111.5C 201.585,109.071 202.585,107.071 204.5,105.5C 203.624,104.749 202.624,104.249 201.5,104C 202.056,103.617 202.389,103.117 202.5,102.5 Z"/></g>
<g><path style="opacity:1" fill="#1f1b29" d="M 192.5,102.5 C 193.167,103.5 193.833,104.5 194.5,105.5C 196.223,103.22 196.889,100.553 196.5,97.5C 197.5,97.5 198.5,97.5 199.5,97.5C 198.993,101.86 198.327,106.193 197.5,110.5C 196.167,110.5 194.833,110.5 193.5,110.5C 193.167,107.833 192.833,105.167 192.5,102.5 Z"/></g>
<g><path style="opacity:1" fill="#0f0f0f" d="M 409.5,113.5 C 424.133,118.584 424.133,123.584 409.5,128.5C 409.5,126.833 409.5,125.167 409.5,123.5C 390.5,123.5 371.5,123.5 352.5,123.5C 352.5,122.167 352.5,120.833 352.5,119.5C 371.5,119.5 390.5,119.5 409.5,119.5C 409.5,117.5 409.5,115.5 409.5,113.5 Z"/></g>
<g><path style="opacity:1" fill="#010101" d="M 259.5,115.5 C 260.922,115.709 262.255,116.209 263.5,117C 266.255,118.711 268.589,120.878 270.5,123.5C 267.571,126.636 264.238,129.303 260.5,131.5C 258.717,129.977 258.051,127.977 258.5,125.5C 216.5,125.5 174.5,125.5 132.5,125.5C 132.5,124.167 132.5,122.833 132.5,121.5C 174.5,121.5 216.5,121.5 258.5,121.5C 258.325,119.379 258.659,117.379 259.5,115.5 Z"/></g>
<g><path style="opacity:1" fill="#fcbc5a" d="M 303.5,98.5 C 324.521,97.6884 334.687,107.688 334,128.5C 329.348,143.466 319.181,149.966 303.5,148C 289.113,142.924 282.946,132.757 285,117.5C 288.017,107.984 294.184,101.651 303.5,98.5 Z"/></g>
<g><path style="opacity:1" fill="#181610" d="M 302.5,120.5 C 305.365,120.055 307.865,120.722 310,122.5C 310.42,126.191 310.92,129.858 311.5,133.5C 308.822,132.382 306.155,132.382 303.5,133.5C 299.826,132.782 298.826,130.782 300.5,127.5C 303.056,126.949 305.389,125.949 307.5,124.5C 305.647,123.24 303.814,123.24 302,124.5C 300.413,123.154 300.58,121.821 302.5,120.5 Z"/></g>
<g><path style="opacity:1" fill="#e4b481" d="M 440.5,119.5 C 442.065,121.509 443.065,123.843 443.5,126.5C 441.166,124.824 440.166,122.491 440.5,119.5 Z"/></g>
<g><path style="opacity:1" fill="#1e1820" d="M 443.5,132.5 C 444.478,132.189 445.145,131.522 445.5,130.5C 445.006,128.974 444.339,127.641 443.5,126.5C 443.065,123.843 442.065,121.509 440.5,119.5C 440.843,117.775 441.843,117.275 443.5,118C 444.477,120.602 445.644,123.102 447,125.5C 447.511,123.122 448.178,120.788 449,118.5C 450.011,117.663 451.178,117.33 452.5,117.5C 451.267,124.051 448.6,129.884 444.5,135C 443.207,135.49 441.873,135.657 440.5,135.5C 440.5,134.5 440.5,133.5 440.5,132.5C 441.5,132.5 442.5,132.5 443.5,132.5 Z"/></g>
<g><path style="opacity:1" fill="#1e1721" d="M 30.5,127.5 C 31.2506,126.427 32.2506,126.26 33.5,127C 34.9178,131.02 36.2511,131.187 37.5,127.5C 38.5,126.167 39.5,126.167 40.5,127.5C 37.9781,131.325 38.3114,134.992 41.5,138.5C 40.635,139.583 39.635,139.749 38.5,139C 37.5399,137.581 36.7065,136.081 36,134.5C 35.4283,137.707 33.595,139.374 30.5,139.5C 30.5457,136.908 31.5457,134.741 33.5,133C 32.8598,130.88 31.8598,129.046 30.5,127.5 Z"/></g>
<g><path style="opacity:1" fill="#d19644" d="M 303.5,127.5 C 304.833,127.5 306.167,127.5 307.5,127.5C 307.114,131.738 305.448,132.404 302.5,129.5C 302.863,128.817 303.196,128.15 303.5,127.5 Z"/></g>
<g><path style="opacity:1" fill="#d4a06c" d="M 443.5,126.5 C 444.339,127.641 445.006,128.974 445.5,130.5C 445.145,131.522 444.478,132.189 443.5,132.5C 443.5,130.5 443.5,128.5 443.5,126.5 Z"/></g>
<g><path style="opacity:1" fill="#040308" d="M 315.5,125.5 C 316.982,127.91 318.315,130.577 319.5,133.5C 317.5,134.833 315.5,134.833 313.5,133.5C 316.167,131.5 316.167,129.5 313.5,127.5C 314.243,126.818 314.909,126.151 315.5,125.5 Z"/></g>
<g><path style="opacity:1" fill="#251a20" d="M 43.5,131.5 C 50.535,131.771 51.2017,133.937 45.5,138C 46.938,138.219 48.2713,138.719 49.5,139.5C 47.2573,140.474 44.924,140.808 42.5,140.5C 42.3505,139.448 42.5172,138.448 43,137.5C 44.4866,136.845 45.6533,135.845 46.5,134.5C 45.7261,133.289 44.8928,133.289 44,134.5C 43.5172,133.552 43.3505,132.552 43.5,131.5 Z"/></g>
<g><path style="opacity:1" fill="#261820" d="M 226.5,146.5 C 226.5,147.833 226.5,149.167 226.5,150.5C 225.603,149.402 224.77,149.402 224,150.5C 223.433,153.168 222.933,155.834 222.5,158.5C 221.167,158.5 219.833,158.5 218.5,158.5C 218.67,154.356 218.003,150.356 216.5,146.5C 217.325,145.614 218.325,145.281 219.5,145.5C 220.507,156.147 221.507,156.147 222.5,145.5C 224.099,145.232 225.432,145.566 226.5,146.5 Z"/></g>
<g><path style="opacity:1" fill="#141414" d="M 135.5,210.5 C 133.952,210.179 133.285,209.179 133.5,207.5C 178.204,189.538 223.204,172.038 268.5,155C 269.91,154.632 270.91,153.799 271.5,152.5C 270.691,150.929 270.357,149.262 270.5,147.5C 274.775,148.652 279.108,149.652 283.5,150.5C 282.707,155.422 280.374,159.422 276.5,162.5C 275.026,161.564 274.026,160.23 273.5,158.5C 272.635,157.417 271.635,157.251 270.5,158C 225.474,175.516 180.474,193.016 135.5,210.5 Z"/></g>
<g><path style="opacity:1" fill="#1c407f" d="M 226.5,146.5 C 227.924,148.515 228.59,150.848 228.5,153.5C 227.833,152.5 227.167,151.5 226.5,150.5C 226.5,149.167 226.5,147.833 226.5,146.5 Z"/></g>
<g><path style="opacity:1" fill="#1f1b29" d="M 226.5,150.5 C 227.167,151.5 227.833,152.5 228.5,153.5C 230.223,151.22 230.889,148.553 230.5,145.5C 231.5,145.5 232.5,145.5 233.5,145.5C 232.993,149.86 232.327,154.193 231.5,158.5C 230.167,158.5 228.833,158.5 227.5,158.5C 227.167,155.833 226.833,153.167 226.5,150.5 Z"/></g>
<g><path style="opacity:1" fill="#1f1820" d="M 236.5,150.5 C 238.144,150.286 239.644,150.62 241,151.5C 242.039,153.901 242.206,156.234 241.5,158.5C 239.629,159.767 237.796,159.767 236,158.5C 235.312,157.668 235.479,157.002 236.5,156.5C 239.788,157.538 240.121,156.872 237.5,154.5C 238.025,153.808 238.692,153.308 239.5,153C 238.167,152.667 236.833,152.333 235.5,152C 236.056,151.617 236.389,151.117 236.5,150.5 Z"/></g>
<g><path style="opacity:1" fill="#040404" d="M 88.5,188.5 C 103.869,187.089 114.369,193.423 120,207.5C 121.429,226.312 112.762,236.645 94,238.5C 81.4813,237.242 73.4813,230.576 70,218.5C 68.3245,209.863 70.4912,202.363 76.5,196C 80.4275,193.21 84.4275,190.71 88.5,188.5 Z"/></g>
<g><path style="opacity:1" fill="#302227" d="M 268.5,189.5 C 269.833,189.5 271.167,189.5 272.5,189.5C 272.5,191.5 272.5,193.5 272.5,195.5C 274.833,195.5 277.167,195.5 279.5,195.5C 279.5,193.5 279.5,191.5 279.5,189.5C 280.833,189.5 282.167,189.5 283.5,189.5C 283.5,195.167 283.5,200.833 283.5,206.5C 282.167,206.5 280.833,206.5 279.5,206.5C 279.5,203.833 279.5,201.167 279.5,198.5C 277.167,198.5 274.833,198.5 272.5,198.5C 272.5,201.167 272.5,203.833 272.5,206.5C 271.167,206.5 269.833,206.5 268.5,206.5C 268.5,200.833 268.5,195.167 268.5,189.5 Z"/></g>
<g><path style="opacity:1" fill="#241f22" d="M 287.5,188.5 C 288.5,188.5 289.5,188.5 290.5,188.5C 290.5,189.833 290.5,191.167 290.5,192.5C 289.5,192.5 288.5,192.5 287.5,192.5C 287.5,191.167 287.5,189.833 287.5,188.5 Z"/></g>
<g><path style="opacity:1" fill="#180314" d="M 287.5,193.5 C 288.5,193.5 289.5,193.5 290.5,193.5C 290.5,197.833 290.5,202.167 290.5,206.5C 289.5,206.5 288.5,206.5 287.5,206.5C 287.5,202.167 287.5,197.833 287.5,193.5 Z"/></g>
<g><path style="opacity:1" fill="#211514" d="M 302.5,188.5 C 303.5,188.5 304.5,188.5 305.5,188.5C 305.5,194.5 305.5,200.5 305.5,206.5C 302.542,205.644 299.542,205.477 296.5,206C 292.5,202 292.5,198 296.5,194C 298.235,193.349 299.902,193.515 301.5,194.5C 302.466,192.604 302.799,190.604 302.5,188.5 Z"/></g>
<g><path style="opacity:1" fill="#1d1724" d="M 318.5,188.5 C 319.5,188.5 320.5,188.5 321.5,188.5C 321.5,194.5 321.5,200.5 321.5,206.5C 318.242,205.932 314.909,205.766 311.5,206C 309.571,202.744 309.071,199.244 310,195.5C 312.667,192.833 315.333,192.833 318,195.5C 318.497,193.19 318.663,190.857 318.5,188.5 Z"/></g>
<g><path style="opacity:1" fill="#1e161a" d="M 327.5,193.5 C 333.092,192.772 336.092,195.105 336.5,200.5C 333.428,200.183 330.428,200.516 327.5,201.5C 329.45,203.753 331.784,204.086 334.5,202.5C 335.739,204.007 335.405,205.174 333.5,206C 327.865,207.536 324.865,205.369 324.5,199.5C 324.628,197.045 325.628,195.045 327.5,193.5 Z"/></g>
<g><path style="opacity:1" fill="#1e1011" d="M 339.5,193.5 C 341.124,193.36 342.29,194.027 343,195.5C 344.865,193.327 347.031,192.993 349.5,194.5C 350.491,198.445 350.824,202.445 350.5,206.5C 349.5,206.5 348.5,206.5 347.5,206.5C 347.665,203.15 347.498,199.817 347,196.5C 345.887,195.289 344.72,195.289 343.5,196.5C 342.513,199.768 342.18,203.102 342.5,206.5C 341.5,206.5 340.5,206.5 339.5,206.5C 339.5,202.167 339.5,197.833 339.5,193.5 Z"/></g>
<g><path style="opacity:1" fill="#e9ecec" d="M 297.5,196.5 C 299.144,196.286 300.644,196.62 302,197.5C 302.495,199.473 302.662,201.473 302.5,203.5C 296.753,204.129 295.086,201.795 297.5,196.5 Z"/></g>
<g><path style="opacity:1" fill="#f3eadf" d="M 313.5,196.5 C 318.328,196.385 319.661,198.552 317.5,203C 315.866,203.494 314.199,203.66 312.5,203.5C 312.298,201.05 312.631,198.717 313.5,196.5 Z"/></g>
<g><path style="opacity:1" fill="#f7e9dc" d="M 328.5,196.5 C 330.288,196.215 331.955,196.548 333.5,197.5C 332.667,197.833 331.833,198.167 331,198.5C 329.624,198.316 328.791,197.649 328.5,196.5 Z"/></g>
<g><path style="opacity:1" fill="#797979" d="M 133.5,207.5 C 133.285,209.179 133.952,210.179 135.5,210.5C 133.59,211.705 132.257,211.038 131.5,208.5C 131.957,207.702 132.624,207.369 133.5,207.5 Z"/></g>
<g><path style="opacity:1" fill="#1c1621" d="M 30.5,221.5 C 31.2506,220.427 32.2506,220.26 33.5,221C 34.9178,225.02 36.2511,225.187 37.5,221.5C 38.5,220.167 39.5,220.167 40.5,221.5C 37.9781,225.325 38.3114,228.992 41.5,232.5C 40.635,233.583 39.635,233.749 38.5,233C 37.5399,231.581 36.7065,230.081 36,228.5C 35.4283,231.707 33.595,233.374 30.5,233.5C 31.2311,231.251 32.2311,229.084 33.5,227C 32.8598,224.88 31.8598,223.046 30.5,221.5 Z"/></g>
<g><path style="opacity:1" fill="#29170c" d="M 281.5,221.5 C 282.5,221.5 283.5,221.5 284.5,221.5C 284.124,227.672 284.791,233.672 286.5,239.5C 284.61,239.703 283.11,239.037 282,237.5C 281.501,232.177 281.334,226.844 281.5,221.5 Z"/></g>
<g><path style="opacity:1" fill="#1d1722" d="M 305.5,241.5 C 306.645,239.047 306.312,236.713 304.5,234.5C 303.991,231.808 302.991,229.308 301.5,227C 302.793,226.51 304.127,226.343 305.5,226.5C 307.615,236.971 309.282,236.971 310.5,226.5C 311.978,226.238 313.311,226.571 314.5,227.5C 312.581,232.082 310.748,236.749 309,241.5C 307.152,244.041 304.652,245.041 301.5,244.5C 301.5,243.5 301.5,242.5 301.5,241.5C 302.833,241.5 304.167,241.5 305.5,241.5 Z"/></g>
<g><path style="opacity:1" fill="#322426" d="M 330.5,226.5 C 333.272,227.371 335.938,227.371 338.5,226.5C 338.5,227.5 338.5,228.5 338.5,229.5C 337.178,229.33 336.011,229.663 335,230.5C 334.502,233.482 334.335,236.482 334.5,239.5C 333.167,239.5 331.833,239.5 330.5,239.5C 330.5,235.167 330.5,230.833 330.5,226.5 Z"/></g>
<g><path style="opacity:1" fill="#261d21" d="M 295.5,237.5 C 293.935,239.719 291.935,240.052 289.5,238.5C 288.24,236.647 288.24,234.814 289.5,233C 291.5,232.167 293.5,231.333 295.5,230.5C 293.865,229.319 292.198,229.319 290.5,230.5C 289.167,229.5 289.167,228.5 290.5,227.5C 293.533,226.073 296.366,226.406 299,228.5C 299.42,232.191 299.92,235.858 300.5,239.5C 298.486,239.608 296.82,238.942 295.5,237.5 Z"/></g>
<g><path style="opacity:1" fill="#1c171b" d="M 319.5,226.5 C 325.092,225.772 328.092,228.105 328.5,233.5C 325.428,233.183 322.428,233.516 319.5,234.5C 319.709,235.086 320.043,235.586 320.5,236C 322.995,236.157 325.328,236.324 327.5,236.5C 325.559,239.334 322.893,240.168 319.5,239C 315.615,234.719 315.615,230.552 319.5,226.5 Z"/></g>
<g><path style="opacity:1" fill="#e5eef3" d="M 319.5,229.5 C 321.288,229.215 322.955,229.548 324.5,230.5C 323.667,230.833 322.833,231.167 322,231.5C 320.624,231.316 319.791,230.649 319.5,229.5 Z"/></g>
<g><path style="opacity:1" fill="#282027" d="M 43.5,225.5 C 45.4672,225.261 47.3005,225.594 49,226.5C 49.769,229.099 49.6023,231.599 48.5,234C 46.5594,234.743 44.7261,234.576 43,233.5C 42.3123,232.668 42.479,232.002 43.5,231.5C 44.891,232.645 46.2243,232.645 47.5,231.5C 46.5,230.833 45.5,230.167 44.5,229.5C 45.0253,228.808 45.6919,228.308 46.5,228C 44.8807,227.764 43.8807,226.931 43.5,225.5 Z"/></g>
<g><path style="opacity:1" fill="#d0c6bf" d="M 295.5,237.5 C 292.306,237.824 291.306,236.658 292.5,234C 293.793,233.51 295.127,233.343 296.5,233.5C 296.567,234.959 296.234,236.292 295.5,237.5 Z"/></g>
<g><path style="opacity:1" fill="#d69b5d" d="M 304.5,234.5 C 306.312,236.713 306.645,239.047 305.5,241.5C 305.007,239.194 304.674,236.861 304.5,234.5 Z"/></g>
<g><path style="opacity:1" fill="#322329" d="M 41.5,269.5 C 42.8333,269.5 44.1667,269.5 45.5,269.5C 45.5,275.167 45.5,280.833 45.5,286.5C 44.1667,286.5 42.8333,286.5 41.5,286.5C 41.5,280.833 41.5,275.167 41.5,269.5 Z"/></g>
<g><path style="opacity:1" fill="#21161e" d="M 95.5,270.5 C 96.5,270.5 97.5,270.5 98.5,270.5C 98.5,271.5 98.5,272.5 98.5,273.5C 99.8333,273.5 101.167,273.5 102.5,273.5C 102.5,274.5 102.5,275.5 102.5,276.5C 101.167,276.5 99.8333,276.5 98.5,276.5C 98.5,278.833 98.5,281.167 98.5,283.5C 99.8333,283.5 101.167,283.5 102.5,283.5C 102.5,284.5 102.5,285.5 102.5,286.5C 99.9556,286.896 97.7889,286.229 96,284.5C 95.8655,281.128 95.0322,277.961 93.5,275C 94.7073,273.7 95.3739,272.2 95.5,270.5 Z"/></g>
<g><path style="opacity:1" fill="#201116" d="M 125.5,268.5 C 126.497,268.47 127.164,268.97 127.5,270C 124.883,275.603 124.883,281.27 127.5,287C 127.167,287.5 126.833,288 126.5,288.5C 123.111,286.075 121.778,282.742 122.5,278.5C 122.084,274.668 123.084,271.335 125.5,268.5 Z"/></g>
<g><path style="opacity:1" fill="#2d1e28" d="M 142.5,269.5 C 142.735,268.903 143.235,268.57 144,268.5C 147.386,270.942 148.886,274.275 148.5,278.5C 148.886,282.725 147.386,286.058 144,288.5C 142.216,287.667 142.216,286.667 144,285.5C 144.667,280.833 144.667,276.167 144,271.5C 143.722,270.584 143.222,269.918 142.5,269.5 Z"/></g>
<g><path style="opacity:1" fill="#322223" d="M 79.5,273.5 C 80.5,273.5 81.5,273.5 82.5,273.5C 82.5,276.833 82.5,280.167 82.5,283.5C 84.1667,283.5 85.8333,283.5 87.5,283.5C 87.5,280.167 87.5,276.833 87.5,273.5C 88.8333,273.5 90.1667,273.5 91.5,273.5C 91.5,277.833 91.5,282.167 91.5,286.5C 89.8762,286.64 88.7096,285.973 88,284.5C 85.3333,287.167 82.6667,287.167 80,284.5C 79.5014,280.848 79.3347,277.182 79.5,273.5 Z"/></g>
<g><path style="opacity:1" fill="#201317" d="M 130.5,273.5 C 133.05,273.561 134.55,274.894 135,277.5C 135.956,276.421 136.789,275.255 137.5,274C 138.5,273.333 139.5,273.333 140.5,274C 139.236,275.861 138.236,277.861 137.5,280C 139.454,281.741 140.454,283.908 140.5,286.5C 139.325,286.719 138.325,286.386 137.5,285.5C 135.13,280.175 133.797,280.508 133.5,286.5C 132.022,286.762 130.689,286.429 129.5,285.5C 130.637,283.393 131.637,281.227 132.5,279C 131.68,277.2 131.014,275.366 130.5,273.5 Z"/></g>
<g><path style="opacity:1" fill="#1f141d" d="M 49.5,273.5 C 51.7105,274.583 53.8771,274.583 56,273.5C 57.7106,273.439 59.044,274.106 60,275.5C 60.4986,279.152 60.6653,282.818 60.5,286.5C 59.5,286.5 58.5,286.5 57.5,286.5C 57.5,283.167 57.5,279.833 57.5,276.5C 55.8333,276.5 54.1667,276.5 52.5,276.5C 52.5,279.833 52.5,283.167 52.5,286.5C 51.5,286.5 50.5,286.5 49.5,286.5C 49.5,282.167 49.5,277.833 49.5,273.5 Z"/></g>
<g><path style="opacity:1" fill="#1d1219" d="M 64.5,273.5 C 66.864,274.529 69.1974,274.529 71.5,273.5C 73.1871,273.76 74.6871,274.427 76,275.5C 76.6667,278.5 76.6667,281.5 76,284.5C 73.7011,286.536 71.2011,286.869 68.5,285.5C 67.5344,287.396 67.2011,289.396 67.5,291.5C 66.5,291.5 65.5,291.5 64.5,291.5C 64.5,285.5 64.5,279.5 64.5,273.5 Z"/></g>
<g><path style="opacity:1" fill="#272025" d="M 106.5,273.5 C 114.895,274.171 115.229,275.504 107.5,277.5C 109.781,278.277 111.948,279.277 114,280.5C 114.835,284.706 113.002,286.706 108.5,286.5C 105.054,286.739 104.054,285.406 105.5,282.5C 107.198,283.681 108.865,283.681 110.5,282.5C 108.614,281.594 106.78,280.594 105,279.5C 104.257,277.126 104.757,275.126 106.5,273.5 Z"/></g>
<g><path style="opacity:1" fill="#eaebe7" d="M 67.5,276.5 C 69.5,276.5 71.5,276.5 73.5,276.5C 73.6621,278.527 73.4955,280.527 73,282.5C 71.3333,283.833 69.6667,283.833 68,282.5C 67.5045,280.527 67.3379,278.527 67.5,276.5 Z"/></g>
</svg>
